<svg id="Layer_1" data-name="Layer 1" xmlns="http://www.w3.org/2000/svg" viewBox="0 0 126.49 128.15"><defs><style>.cls-1{fill:#fff;}</style></defs><title>Artboard 28</title><path class="cls-1" d="M62.05,14.9a49.24,49.24,0,1,0,49.24,49.23A49.23,49.23,0,0,0,62.05,14.9Zm0,95.35a46.12,46.12,0,1,1,46.12-46.12A46.16,46.16,0,0,1,62.05,110.25Z"/><path class="cls-1" d="M67.53,86.06a19.88,19.88,0,0,0-3.68-1.71,17.38,17.38,0,0,1-2.79-1.17A4.56,4.56,0,0,1,59.45,82a2.24,2.24,0,0,1-.54-1.52,2.68,2.68,0,0,1,.45-1.35,2.19,2.19,0,0,1,1.34-1,6.16,6.16,0,0,1,2.43-.45,17.53,17.53,0,0,1,2.25.18,7.84,7.84,0,0,1,1.71.45c.53.18.89.36,1.25.45l1.08-3.33a8.32,8.32,0,0,0-2.51-.81,26.85,26.85,0,0,0-3-.36v-3.5H60.88v3.68a8.1,8.1,0,0,0-1.43.36,8.64,8.64,0,0,0-2.88,1.44,5.56,5.56,0,0,0-1.8,2.07,5.33,5.33,0,0,0-.63,2.61,4.57,4.57,0,0,0,.9,2.87A7.21,7.21,0,0,0,57.47,86a16.36,16.36,0,0,0,3.77,1.62,15.3,15.3,0,0,1,2.61,1.08,4,4,0,0,1,1.44,1.25,3,3,0,0,1,.45,1.53,2.51,2.51,0,0,1-.54,1.62,3.66,3.66,0,0,1-1.62,1.08,7.1,7.1,0,0,1-2.52.36,18.84,18.84,0,0,1-2.33-.18l-2.16-.54a10.73,10.73,0,0,1-1.8-.72l-1.08,3.51a6.81,6.81,0,0,0,1.8.71q1.08.27,2.43.54c.9.09,1.79.18,2.69.18h.18v3.6h3.06V97.74l1.08-.27A8.71,8.71,0,0,0,68,96a5.42,5.42,0,0,0,1.8-2.25,6.61,6.61,0,0,0,.63-2.7,5.9,5.9,0,0,0-.72-2.87A6.84,6.84,0,0,0,67.53,86.06Z"/><path class="cls-1" d="M102.8,63.74a40.75,40.75,0,0,0-81.5,0L40,45.05l6.29,6.29L32.6,65h59L77.9,51.34l6.29-6.29ZM63.09,58.91,45.67,40.63H57.23v-9c0-2.3,2.63-4.25,5.86-4.25S69,29.25,69,31.63v9H80.51Z"/></svg>