<svg id="Layer_1" data-name="Layer 1" xmlns="http://www.w3.org/2000/svg" viewBox="0 0 126.49 128.15"><defs><style>.cls-1{fill:#fff;}</style></defs><title>Artboard 25 copy</title><path class="cls-1" d="M63.82,14.9a49.92,49.92,0,1,0,49.92,49.92A49.92,49.92,0,0,0,63.82,14.9Zm0,96.68a46.76,46.76,0,1,1,46.76-46.76A46.81,46.81,0,0,1,63.82,111.58Z"/><path class="cls-1" d="M69,48.48c0-1.25.56-1.88,1.65-1.88H78.1V34.77l-9.9,0c-9.69,0-13.14,6.79-13.14,13.15v5.74H49.3V65.76h5.76V94.92H69V65.76H77.1l1.24-12.14H69Zm7.3,7-.87,8.47H67.18V93.08H56.89V63.93H51.13V55.46h5.76V47.88c0-2.66.82-11.32,11.31-11.32l8.06,0v8.17h-5.6a3.38,3.38,0,0,0-3.48,3.72v7Z"/></svg>