<svg id="Layer_1" data-name="Layer 1" xmlns="http://www.w3.org/2000/svg" viewBox="0 0 126.49 128.15"><defs><style>.cls-1{fill:#fff;}</style></defs><title>Artboard 26</title><path class="cls-1" d="M102.19,50.2H67.25a1.84,1.84,0,0,0-1.27.48,4.2,4.2,0,0,1-5.86,0,1.84,1.84,0,0,0-1.27-.48H23.37a4.6,4.6,0,0,0-4.6,4.6V66.56a4.18,4.18,0,0,0,2.68,3.9v38.09a4.28,4.28,0,0,0,4.27,4.28H99.85a4.28,4.28,0,0,0,4.27-4.28V70.46a4.2,4.2,0,0,0,2.68-3.9V54.8A4.6,4.6,0,0,0,102.19,50.2Zm-.64,58.35a1.71,1.71,0,0,1-1.7,1.71H25.72a1.71,1.71,0,0,1-1.7-1.71V70.89h77.53Zm2.81-42a1.76,1.76,0,0,1-1.76,1.76H23a1.76,1.76,0,0,1-1.77-1.76V54.8a2.16,2.16,0,0,1,2.17-2.16H102.2a2.16,2.16,0,0,1,2.16,2.16Z"/><path class="cls-1" d="M60.83,48.46a2.25,2.25,0,0,0,1,1.4A2.27,2.27,0,0,0,65,49.24a2.3,2.3,0,0,0,.24-2.09C73.62,42.76,94.71,30.64,84.3,24,68.85,14.8,63.89,35.36,62.47,44.58,59.08,33.33,49.51,7,36.77,16.79,16.83,33.05,50.35,45.19,60.83,48.46ZM79,27.1c9.87,4.87-12.91,18.42-13.92,19C65.07,46.11,63.62,20,79,27.1ZM39.24,23.74c10.33-9.89,21.42,20,21.91,21.31C61.15,45.05,23.86,39.27,39.24,23.74Z"/></svg>