<svg id="Layer_1" data-name="Layer 1" xmlns="http://www.w3.org/2000/svg" viewBox="0 0 126.49 128.15"><defs><style>.cls-1{fill:#fff;}</style></defs><title>Artboard 13</title><path class="cls-1" d="M72,43.84a14.63,14.63,0,0,0-9.64-3.43,14.83,14.83,0,0,0-9.75,3.49,16,16,0,0,0-3.49,20l13,23.79L75.34,63.88A16,16,0,0,0,72,43.84Zm1.31,18.9L62.13,82.82l-11-20a13.68,13.68,0,0,1,2.92-17.08,12.52,12.52,0,0,1,8.24-2.93,12.37,12.37,0,0,1,8.13,2.87A13.6,13.6,0,0,1,73.27,62.74Z"/><path class="cls-1" d="M62.24,47.51a7.62,7.62,0,1,0,7.61,7.61A7.62,7.62,0,0,0,62.24,47.51Zm0,12.87a5.26,5.26,0,1,1,5.25-5.26A5.27,5.27,0,0,1,62.24,60.38Z"/><path class="cls-1" d="M103.09,62.29a40.44,40.44,0,0,0-39.21-39V13.57h-3v9.74a40.44,40.44,0,0,0-38.66,39H12.18v3H22.25a40.45,40.45,0,0,0,38.66,38.87V114h3v-9.85a40.45,40.45,0,0,0,39.21-38.88h9.52v-3Zm-3.15,3A37.35,37.35,0,0,1,63.88,101V90.69h-3V101A37.35,37.35,0,0,1,25.4,65.27H35.49v-3H25.4A37.34,37.34,0,0,1,60.91,26.46V36.88h3V26.45A37.34,37.34,0,0,1,99.94,62.29H89.3v3Z"/></svg>