<svg id="Layer_1" data-name="Layer 1" xmlns="http://www.w3.org/2000/svg" viewBox="0 0 126.49 128.15"><defs><style>.cls-1{fill:#fff;}</style></defs><title>Artboard 26 copy</title><path class="cls-1" d="M62.47,14.9A49.51,49.51,0,1,0,112,64.41,49.51,49.51,0,0,0,62.47,14.9Zm0,95.87a46.37,46.37,0,1,1,46.37-46.36A46.42,46.42,0,0,1,62.47,110.77Z"/><circle class="cls-1" cx="56.45" cy="47.81" r="6.84" transform="translate(-17.27 53.92) rotate(-45)"/><polygon class="cls-1" points="85.58 50.03 58.42 83.1 35.34 64.35 20.11 77.77 21.11 80.51 35.41 67.91 58.8 86.91 85.9 53.92 105.78 71.44 106.01 68.03 85.58 50.03"/></svg>