<svg id="Layer_1" data-name="Layer 1" xmlns="http://www.w3.org/2000/svg" viewBox="0 0 126.49 128.15"><defs><style>.cls-1{fill:#fff;}</style></defs><title>Artboard 24</title><path class="cls-1" d="M84.53,67.63a1.89,1.89,0,1,0,1.89,1.89A1.89,1.89,0,0,0,84.53,67.63Z"/><path class="cls-1" d="M88.25,67.07a1.89,1.89,0,1,0,1.89-1.89A1.89,1.89,0,0,0,88.25,67.07Z"/><path class="cls-1" d="M57.6,45.2l-.13-1.11a19.31,19.31,0,0,1-.15-3.86c.78,0,2.17.16,3.16.26,3.75.36,4.69.39,5.38-.18.91-.75.69-2,.4-3.83,0-.23-.09-.51-.13-.79A14.89,14.89,0,0,1,71,37.15a15.54,15.54,0,0,1,2.85,3.51,1.37,1.37,0,0,0,2.37-1.38A18,18,0,0,0,72.69,35c-1.63-1.34-6.93-2.45-8.19-2.09-1.53.44-1.25,2.16-1,4,.05.3.12.71.17,1.07-.83,0-2.06-.15-3-.24-3-.3-4.19-.38-4.9-.06s-1.68.75-1.23,5.63a35.1,35.1,0,0,0-7.26,3.58c-2.62,1.83-8.75,9.2-8.75,10.51a1.37,1.37,0,0,0,2.65.49c.59-1,5-6.9,7.67-8.75a36.08,36.08,0,0,1,7.61-3.6Z"/><path class="cls-1" d="M34.9,71.57a6,6,0,0,0-3.95.88c-2.27,1.36-3.24,5.57-3.28,5.74L29,78.5c.24-1.06,1.18-4,2.65-4.87a4.59,4.59,0,0,1,3-.7A4,4,0,0,1,37.55,75c1.35,2.24,1.43,4.08.23,5.17-.74.67-2.27-.1-2.28-.1l-.64,1.21a5.08,5.08,0,0,0,2.1.53,2.49,2.49,0,0,0,1.74-.63c.81-.73,2.43-2.88,0-6.88A5.3,5.3,0,0,0,34.9,71.57Z"/><path class="cls-1" d="M46.92,69.9a1.94,1.94,0,1,0,1.94,1.94A1.94,1.94,0,0,0,46.92,69.9Z"/><path class="cls-1" d="M113.3,78.54c-.2-.94-1.15-1.69-3.43-3.32-.56-.39-1.37-1-1.62-1.18-.07-.6,0-2.22,0-3.33.09-3.49.06-4.53-.35-5.2s-1.46-1.34-7.31-4.9c-2-1.24-4.74-2.89-5.55-3.49-.15-.87-.24-3.39-.31-5.28-.12-3.56-.22-5.79-.53-6.72-.66-2-2.45-3-4.2-3.74a11.93,11.93,0,0,0-1.07-3.18c1.2-2.84,7-17.7-1.09-22.12-7-3.85-17.52,1.54-20.62,3.32l-4.16-3.65a7.81,7.81,0,0,0-8.22-1.29c-4.77,2.07-14.41,7.18-25.36,18.13A61,61,0,0,0,12.74,62.18,7.79,7.79,0,0,0,15.58,70L21,74.19c-1.35,4.76-.57,10.27,3.48,13.59a15.78,15.78,0,0,0,9.8,3.61h.35c.25,1.87,1.52,5.49,7,10.17,10.34,10.2,22.24,11,30.93,11.67.75,0,1.5.08,2.26.08,6.7,0,13.44-2.13,20-6.33,4.6-2.93,7-5,12.39-11.42C112.87,88.8,113.58,79.85,113.3,78.54Zm-5-1.08.59.43c-2.8,2.2-10.05,7.75-15,10.13-4.73,2.29-15.82,3.77-20,1.22a3,3,0,0,1-1.37-1.55,61.51,61.51,0,0,0,8.94-.61,61.91,61.91,0,0,0,9.86-3,.69.69,0,0,0-.51-1.28,60.82,60.82,0,0,1-9.58,3,62.09,62.09,0,0,1-8.79.59C73,82.66,80.12,81.39,87,80.16c2.14-.38,4.35-.78,6.33-1.24a30.46,30.46,0,0,0,12.12-5.85,4.8,4.8,0,0,0,.34,2.3A9.33,9.33,0,0,0,108.28,77.46ZM91.6,46a50.28,50.28,0,0,1,.39,6c.19,5.19.29,6.14.74,6.76S94,59.8,99.16,63c2.34,1.42,5.46,3.33,6.34,4,.08.7,0,2.47,0,3.69,0,.23,0,.42,0,.63A28.57,28.57,0,0,1,93,77.58c-2,.46-4.14.85-6.27,1.23-7.84,1.4-16,2.84-15.81,8.17h0v0a4.06,4.06,0,0,0,2.16,3.38C75,91.52,77.75,92,80.79,92a35.31,35.31,0,0,0,13.68-2.71,85.23,85.23,0,0,0,12.11-7.88A56.54,56.54,0,0,1,102,87.81c-1.14,1.56-9.77,10.7-16.18,12.07a20.51,20.51,0,0,1-15.72-3.51C66.61,93.94,66,89.05,66,89l-2.74.26a27.44,27.44,0,0,1,0,4c-.46-.12-1.47-.7-2.36-2.69-1.44-3.21-1.82-6.67-1.23-11.21.38-3,3.76-6.49,5-7.59l1.95-1.71-2.51-.66a38.26,38.26,0,0,1-7.07-3.23,6.79,6.79,0,0,1-2.65-3,7,7,0,0,0,3.57.66l.65.21,1.31-1.32-.38-.81v0c0-.56-.1-1.68-.3-3.85-.34-3.62,2.63-6.82,4.72-8.1,1.92-1.17,8.76-1.44,13.4-.12l1,.3.53-.93c2.25-3.88,8.14-5.17,9.65-5.44C90.19,44.46,91.28,45,91.6,46ZM67.67,22.31l1.83-.91-.08-.08c3.48-1.87,11.84-5.72,17.1-2.84,4.94,2.71,2.17,12.4.59,16.79a22.79,22.79,0,0,0-12.24-7.82,35.68,35.68,0,0,0-15.35-.3A88.36,88.36,0,0,1,67.67,22.31ZM15.42,62.77a58.22,58.22,0,0,1,16-28.24C42.05,23.9,51.34,19,55.93,17a5.07,5.07,0,0,1,5.32.83l3.41,3c-4.46,2.45-16.2,9.48-24.54,19.77-.66.82-1.31,1.66-2,2.52a77.41,77.41,0,0,0-8.38,13C26,62.74,23.25,68.71,22,71.48L17.26,67.8A5,5,0,0,1,15.42,62.77Zm89.71,31c-5.16,6.2-7.36,8.06-11.76,10.86C86.53,109,79.59,111,72.73,110.48c-8.26-.59-19.58-1.4-29.26-10.94-5-4.29-5.91-7.34-6.09-8.51a14.11,14.11,0,0,0,5.82-3,12.36,12.36,0,0,0,4.65-11.77l-2.68.61a9.67,9.67,0,0,1-3.72,9c-5.07,4.22-11.29,2.88-15.2-.32s-3.74-9.86-1.13-14,9.3-4.35,9.37-4.35l0-2.75a18.78,18.78,0,0,0-4.75.8,8.48,8.48,0,0,1,.12-1.76,29,29,0,0,1,2.41-6.23,117.18,117.18,0,0,1,9-13.78,61.77,61.77,0,0,1,12.16-11.5c2.32-1.61,12.18-4.22,20.74-1.95a19.28,19.28,0,0,1,11.71,8.24l-.16.36.5.24a11.44,11.44,0,0,1,.94,2.29c-2.42.55-7.34,2.05-10,5.7-4.68-1.07-11.8-1-14.6.67-3.2,2-6.45,6.14-6,10.69.12,1.27.19,2.16.23,2.8a3.44,3.44,0,0,1-2.92-2.79c-.26-.84-.67-2.25-2-2.2a1.55,1.55,0,0,0-1.44,1.27c-.42,1.8.85,8.84,5.35,11.27C58.21,70,60,70.8,61.27,71.32c-1.63,1.75-4,4.72-4.35,7.74-.66,5.07-.21,9,1.45,12.68C59.83,95,62,96.1,63.52,96.08a2.47,2.47,0,0,0,1.85-.84,17.39,17.39,0,0,0,3.12,3.37c3,2.8,12,5,17.57,4,6-1.09,16.4-10.74,18.4-13.75,0,0,3.51-4.77,5.19-7l.87-1.15A25.85,25.85,0,0,1,105.13,93.79Z"/><path class="cls-1" d="M88,54.06c-1.21.24-1.79,2.37-1.3,4.74a7.5,7.5,0,0,0,.92,2.42,2.61,2.61,0,0,1,1.62-1.08,2.51,2.51,0,0,1,1.9.37,7.47,7.47,0,0,0-.09-2.6C90.56,55.54,89.2,53.81,88,54.06Z"/><path class="cls-1" d="M73.49,61.34c-2.68.68-4.52,2.57-4.1,4.21a2,2,0,0,0,.12.34c-.1-1.56,1.66-3.23,4.16-3.87s4.83,0,5.49,1.41a2.27,2.27,0,0,0,0-.35C78.69,61.44,76.17,60.66,73.49,61.34Z"/><path class="cls-1" d="M75,63a2.81,2.81,0,0,0-1.13,3.58,3.28,3.28,0,0,1,4.82-2.83A2.82,2.82,0,0,0,75,63Z"/></svg>