<svg id="Layer_1" data-name="Layer 1" xmlns="http://www.w3.org/2000/svg" viewBox="0 0 126.49 128.15"><defs><style>.cls-1{fill:#fff;}</style></defs><title>Artboard 27 copy 3</title><path class="cls-1" d="M77.21,39.19A28.54,28.54,0,1,0,40.05,82.5a10.83,10.83,0,0,1,3.86,8.41v10a3.51,3.51,0,0,0,3.55,3.52l.38,0,21.43-3a3.52,3.52,0,0,0,3.19-3.51v-7a11.13,11.13,0,0,1,4-8.54,28.53,28.53,0,0,0,.73-43.18Zm-2.6,40.93a14.06,14.06,0,0,0-5.07,10.79v7a.62.62,0,0,1-.61.6l-21.44,3a.61.61,0,0,1-.46-.16.6.6,0,0,1-.19-.44v-10a13.74,13.74,0,0,0-4.93-10.67A25.61,25.61,0,0,1,55.24,35a27.34,27.34,0,0,1,3-.17,25.32,25.32,0,0,1,17,6.53,25.6,25.6,0,0,1-.65,38.74Z"/><path class="cls-1" d="M68.79,103.66l-20.27,2.53a1.47,1.47,0,0,0,.36,2.91l20.27-2.54a1.46,1.46,0,0,0-.36-2.9Z"/><path class="cls-1" d="M67.24,108.66,50.13,110.8a1.23,1.23,0,0,0,.31,2.45l5.65-.7a3.46,3.46,0,0,0,6.48-.81l5-.63a1.22,1.22,0,0,0,1.07-1.37A1.23,1.23,0,0,0,67.24,108.66Z"/><path class="cls-1" d="M22.82,54.3H16.11a1.63,1.63,0,1,0,0,3.25h6.71a1.63,1.63,0,0,0,0-3.25Z"/><path class="cls-1" d="M101.24,54.3H94.53a1.63,1.63,0,0,0,0,3.25h6.71a1.63,1.63,0,1,0,0-3.25Z"/><path class="cls-1" d="M35,35.86a1.62,1.62,0,0,0,0-2.3l-8-8a1.62,1.62,0,0,0-2.29,2.3l8,8A1.62,1.62,0,0,0,35,35.86Z"/><path class="cls-1" d="M90.06,25.47l-8,8a1.62,1.62,0,1,0,2.3,2.29l8-8a1.63,1.63,0,1,0-2.3-2.3Z"/><rect class="cls-1" x="57.03" y="14.9" width="3.25" height="10.27" rx="1.36"/></svg>