<svg id="Layer_1" data-name="Layer 1" xmlns="http://www.w3.org/2000/svg" viewBox="0 0 126.49 128.15"><defs><style>.cls-1{fill:#fff;}</style></defs><title>Artboard 27</title><path class="cls-1" d="M53.38,58c-.5,1.08-1,2.13-1.46,3.17a108.6,108.6,0,0,1-5,9.72,54,54,0,0,0-11.34,5.33,24.54,24.54,0,0,0-4.49,3.63,7.91,7.91,0,0,0-2.51,4.65,2.93,2.93,0,0,0,1.17,2.59,4.89,4.89,0,0,0,4,.52c4.33-.91,7.65-4.63,10.48-7.76a84.86,84.86,0,0,0,6.49-8.22v0a96.27,96.27,0,0,1,12.91-3c2.1-.35,4.26-.64,6.46-.84a29.72,29.72,0,0,0,5,3.87,22.82,22.82,0,0,0,4.51,2.16A32.3,32.3,0,0,0,84.49,75a14.61,14.61,0,0,0,2.57.14c2-.07,4.76-.82,5-3.19A3.26,3.26,0,0,0,91.59,70c-1.53-2.74-6.85-3.6-9.28-4a38,38,0,0,0-5.83-.39c-1.53,0-3,.06-4.52.15l-1.63.13c-.55-.57-1.09-1.17-1.61-1.77a58.88,58.88,0,0,1-8.13-12.95,52.27,52.27,0,0,0,1.31-7c.51-4.4.69-9.42-1-13.61-.57-1.45-2.09-3.21-3.84-2.34-2,1-2.58,3.87-2.75,5.9a19.6,19.6,0,0,0,.24,4.9,35.23,35.23,0,0,0,1.22,4.7c.46,1.41,1,2.81,1.52,4.2-.35,1.09-.73,2.16-1.11,3.21C55.31,53.56,54.32,55.82,53.38,58ZM44.79,74.36c-.91,1.42-1.8,2.69-2.63,3.81-2,2.78-4.36,6.07-7.73,7.3a5.94,5.94,0,0,1-2.37.42c-.8,0-1.58-.39-1.54-1.29a3.87,3.87,0,0,1,.6-1.66,10.45,10.45,0,0,1,1.38-1.78,23.13,23.13,0,0,1,4.13-3.35,49.32,49.32,0,0,1,8.73-4.34Zm31.67-6.9a36.47,36.47,0,0,1,4.43.28,15.58,15.58,0,0,1,8,3c.42.35.56.66.51.93-.14.77-1.77,1.2-2.53,1.32a14.52,14.52,0,0,1-6.76-.65,21.31,21.31,0,0,1-4.25-2,24.52,24.52,0,0,1-3.77-2.82C73.53,67.49,75,67.43,76.46,67.46ZM56.28,38.79a16.17,16.17,0,0,1-.13-4.44,9.58,9.58,0,0,1,.44-2.09c.18-.56.57-1.93,1.19-2.11,1-.29,1.34,1.92,1.46,2.54.66,3.54.07,7.49-.72,11-.13.56-.27,1.1-.41,1.64-.25-.67-.48-1.35-.7-2A35.7,35.7,0,0,1,56.28,38.79Zm3.61,14.87a54.15,54.15,0,0,0,7.66,11.49c.29.32.57.63.87.94-1.73.18-3.43.41-5.09.68a97.86,97.86,0,0,0-11,2.41c.41-.12,2.31-3.71,2.73-4.46A53.73,53.73,0,0,0,59.89,53.66Z"/><path class="cls-1" d="M82.56,39.7a5.75,5.75,0,0,0,4.06-1.33,4.8,4.8,0,0,0,1.43-3.74,4.24,4.24,0,0,0-1.37-3.4A6.12,6.12,0,0,0,82.56,30h-5V44.49h3.9V39.7Zm-1.09-6.52h1c1.09,0,1.63.49,1.63,1.47A1.81,1.81,0,0,1,83.58,36a2,2,0,0,1-1.4.5h-.71Z"/><path class="cls-1" d="M100.65,42.53a7.49,7.49,0,0,0,2-5.58,6.7,6.7,0,0,0-1.9-5.14A7.52,7.52,0,0,0,95.37,30h-5V44.49H95A7.65,7.65,0,0,0,100.65,42.53Zm-6.38-9.35h1.14a2.92,2.92,0,0,1,2.39,1,4.64,4.64,0,0,1,.78,3,4.93,4.93,0,0,1-.83,3.16,3.14,3.14,0,0,1-2.61,1h-.87Z"/><polygon class="cls-1" points="113.78 33.16 113.78 30.03 105.23 30.03 105.23 44.49 109.08 44.49 109.08 39.06 113.41 39.06 113.41 35.92 109.08 35.92 109.08 33.16 113.78 33.16"/><path class="cls-1" d="M100.2,48.88a44.41,44.41,0,1,1-13.58-20.8A12.37,12.37,0,0,1,89,26.17a47.24,47.24,0,1,0,13.89,21.29A12.48,12.48,0,0,1,100.2,48.88Z"/></svg>