<svg id="Layer_1" data-name="Layer 1" xmlns="http://www.w3.org/2000/svg" viewBox="0 0 126.49 128.15"><defs><style>.cls-1{fill:#fff;}</style></defs><title>Artboard 29</title><path class="cls-1" d="M61.75,14.9A48.91,48.91,0,0,0,23.53,94.33L22.07,112l17.35-4.65A48.92,48.92,0,1,0,61.75,14.9Zm0,95a46.06,46.06,0,0,1-21.65-5.4l-.65-.35-14,3.84,1.22-14.31-.46-.57a46.07,46.07,0,1,1,35.57,16.79Z"/><path class="cls-1" d="M95.16,72.75c-.66-.39-1.24-.73-1.87-1-4.49-2.23-7.36-6-9.29-12.14-.62-2-1.06-4.06-1.5-6.07s-.88-4.11-1.51-6.16c-2.93-9.52-9.75-15.06-18.72-15.21-.09,0-.35,0-.35,0a.74.74,0,0,1-.12-.22c-.87-2.15-2.92-3.16-5.48-2.72s-4.15,2-4.29,4.35c0,.4,0,.43-.63.7-7.7,3.4-11.65,9.59-11.74,18.41a52.29,52.29,0,0,0,.85,8.57l.2,1.23c.88,5.78,1.4,10.57-.6,15.33a22.75,22.75,0,0,1-3.61,5.3c-.49.59-1,1.2-1.48,1.82l1.39,2.28L95.77,76l.44-2.63ZM39.7,83.68a20.07,20.07,0,0,0,3-4.78C45,73.47,44.44,68.06,43.52,62l-.2-1.24a50.33,50.33,0,0,1-.82-8.1c.08-7.71,3.37-12.89,10-15.84a3.39,3.39,0,0,0,2.32-3.13c0-.42.09-1.4,1.93-1.72a4.25,4.25,0,0,1,.67-.06A1.6,1.6,0,0,1,59.17,33a2.94,2.94,0,0,0,3,2c10.49.18,14.56,8.35,16,13.2.6,1.93,1,4,1.45,5.93s.91,4.22,1.57,6.32c2,6.59,5.27,10.9,10.1,13.51Z"/><path class="cls-1" d="M73.32,82.2c-2.25.47-4.51.86-6.77,1.29s-4.63.91-7,1.3c-1,.17-1.11.57-.67,1.45,1.47,2.91,5.27,4.61,8.91,3.9s6.4-3.7,6.66-6.85C74.58,82.31,74.34,82,73.32,82.2Z"/></svg>