<svg id="Layer_1" data-name="Layer 1" xmlns="http://www.w3.org/2000/svg" viewBox="0 0 126.49 128.15"><defs><style>.cls-1{fill:#fff;}</style></defs><title>Artboard 7</title><path class="cls-1" d="M66.67,30.37a3.08,3.08,0,0,0,3.08,3.08h7.52a3.08,3.08,0,0,0,3.08-3.08V18.56a3.08,3.08,0,0,0-3.08-3.08H69.75a3.08,3.08,0,0,0-3.08,3.08v2.1H39.27v3.05h27.4Zm3.08-11.85h7.52l0,0,0,11.85-7.56,0Z"/><path class="cls-1" d="M18.35,91.76A3.31,3.31,0,0,1,15,88.45V47.4h76.1V57.82a28,28,0,0,1,3,.53V27a6.36,6.36,0,0,0-6.35-6.35H80.35v3.05h7.48A3.31,3.31,0,0,1,91.14,27V43.38H15V27a3.31,3.31,0,0,1,3.31-3.3h7.24v6.66a3.08,3.08,0,0,0,3.09,3.08h7.51a3.08,3.08,0,0,0,3.08-3.08V18.56a3.08,3.08,0,0,0-3.08-3.08H28.68a3.08,3.08,0,0,0-3.09,3.08v2.1H18.35A6.36,6.36,0,0,0,12,27V88.45a6.36,6.36,0,0,0,6.35,6.35h41.4a30.47,30.47,0,0,1-.69-3ZM28.68,18.52h7.51l0,0,0,11.85-7.56,0Z"/><path class="cls-1" d="M88,59.56A26.74,26.74,0,1,0,114.71,86.3,26.77,26.77,0,0,0,88,59.56ZM88,110a23.7,23.7,0,1,1,23.69-23.7A23.72,23.72,0,0,1,88,110Z"/><path class="cls-1" d="M101.65,85.53h-12V74.2A1.2,1.2,0,0,0,88.5,73H87.41a1.2,1.2,0,0,0-1.2,1.2V85.53h0v3.56h15.44A1.07,1.07,0,0,0,102.73,88V86.6A1.07,1.07,0,0,0,101.65,85.53Z"/></svg>