<svg id="Layer_1" data-name="Layer 1" xmlns="http://www.w3.org/2000/svg" viewBox="0 0 126.49 128.15"><defs><style>.cls-1{fill:#fff;}</style></defs><title>Artboard 17</title><path class="cls-1" d="M54.74,40.9a4.34,4.34,0,0,0-4.34,4.34V82.46a4.34,4.34,0,0,0,4.34,4.34H71.25a4.34,4.34,0,0,0,4.34-4.34V45.24a4.34,4.34,0,0,0-4.34-4.34Zm17.44,4.34V82.46a.93.93,0,0,1-.93.93H54.74a.93.93,0,0,1-.93-.93V45.24a.93.93,0,0,1,.93-.92H71.25A.93.93,0,0,1,72.18,45.24Z"/><rect class="cls-1" x="56.98" y="56.13" width="12.03" height="1.68"/><rect class="cls-1" x="56.98" y="62.92" width="12.03" height="1.68"/><rect class="cls-1" x="56.98" y="69.78" width="12.03" height="1.68"/><path class="cls-1" d="M47.88,32.11H78.23A1.81,1.81,0,0,0,79.48,29L64.39,14.59a1.81,1.81,0,0,0-2.49,0L46.64,29A1.81,1.81,0,0,0,47.88,32.11Zm15.25-14L74.22,28.69H51.92Z"/><path class="cls-1" d="M78.23,95.46H47.88a1.81,1.81,0,0,0-1.24,3.12L61.9,113a1.81,1.81,0,0,0,2.49,0L79.48,98.57A1.81,1.81,0,0,0,78.23,95.46Zm-15.1,14L51.92,98.87h22.3Z"/></svg>