<svg id="Layer_1" data-name="Layer 1" xmlns="http://www.w3.org/2000/svg" viewBox="0 0 126.49 128.15"><defs><style>.cls-1{fill:#fff;}</style></defs><title>Artboard 3</title><path class="cls-1" d="M113.67,27.73l-5.83,5.38-4.68,3.82,6-1.18,2.34-.46c-3.58,6.16-15.58,26.78-17.35,29.78A7.56,7.56,0,0,0,82.83,69L60.71,62.87l-.66,1.23c0-.31.05-.63.05-.95a10.25,10.25,0,1,0-18.39,6.19l-.23-.22-29.64,33L44.37,71.85l-.18-.17a10.22,10.22,0,0,0,15.06-4.45L82.5,72.81l0-.06a7.59,7.59,0,0,0,15.07-1.3A7.51,7.51,0,0,0,96.74,68l15-32.73.12,0,1.39,2.62L116,43l.11-5.86.16-8.29.07-3.57ZM49.85,70.94a7.79,7.79,0,1,1,7.79-7.79A7.79,7.79,0,0,1,49.85,70.94ZM90,76.59a5.14,5.14,0,1,1,5.14-5.14A5.15,5.15,0,0,1,90,76.59Zm24.55-39.46-1.92-3.61-3.8.74c.2-.17,5.88-5.42,5.88-5.42Z"/></svg>