<svg id="Layer_1" data-name="Layer 1" xmlns="http://www.w3.org/2000/svg" viewBox="0 0 126.49 128.15"><defs><style>.cls-1{fill:#fff;}</style></defs><title>Artboard 8</title><path class="cls-1" d="M53.21,59.22l.1,0C54.21,65.32,58.39,70,63.41,70s9.25-4.69,10.13-10.87a1,1,0,0,0,.34.06c.89,0,1.61-1.1,1.61-2.45s-.69-2.38-1.55-2.43A12.29,12.29,0,0,0,74,52.77c0-6.84-2.77-12.38-10.7-12.38-8.21,0-10.69,5.54-10.69,12.38a13.13,13.13,0,0,0,.11,1.67,2.51,2.51,0,0,0-1.16,2.33C51.59,58.12,52.32,59.22,53.21,59.22Zm3.43-9.72a4.29,4.29,0,0,1,3.61,1.22c1.68,1.69,2,1.21,2.06,1s-.14-3.09,1.06-3.19c1.38-.12,4.41,5,5.37,4.81s-2.48-4.57-1.28-5c.7-.23,2.65,2.66,4.2,4.85a15.6,15.6,0,0,1,.41,3.54c0,6.4-3.88,11.61-8.66,11.61-4.62,0-8.4-4.89-8.63-11a4.39,4.39,0,0,0,0-.53,3.1,3.1,0,0,0,0-.54A14.08,14.08,0,0,1,56.64,49.5Z"/><path class="cls-1" d="M63.36,77.7c-4.48,0-8.34-3-10.24-7.28A28.65,28.65,0,0,0,40.34,78v8H84.5V77a28.84,28.84,0,0,0-11-6.35C71.56,74.85,67.75,77.7,63.36,77.7Z"/><path class="cls-1" d="M63.72,13.3a50,50,0,1,0,50,50A50,50,0,0,0,63.72,13.3ZM65.31,110V94.49H62.1V110A46.77,46.77,0,0,1,17,65H32.58V61.75H17A46.75,46.75,0,0,1,62.1,16.62V32.15h3.21V16.62A46.76,46.76,0,0,1,110.4,61.75H94.76V65H110.4A46.77,46.77,0,0,1,65.31,110Z"/></svg>