<svg xmlns="http://www.w3.org/2000/svg" width="45" height="17.4" viewBox="0 0 45 17.4">
  <title>bed_single</title>
  <g id="Layer_2" data-name="Layer 2">
    <g id="pc">
      <g>
        <g>
          <path d="M20,14.3H0V10.4A1.9,1.9,0,0,1,1.8,8.5H18.2A1.9,1.9,0,0,1,20,10.4Z" fill="#939598"/>
          <path d="M18,4.4A4.4,4.4,0,0,0,13.6,0H6.4A4.4,4.4,0,0,0,2,4.4V7.5H4V4.4A2.4,2.4,0,0,1,6.4,2h7.2A2.4,2.4,0,0,1,16,4.4V7.5h2Z" fill="#939598"/>
          <path d="M13.9,7.5H6.1V5.1a.9.9,0,0,1,.6-1l2.4-.7a2.8,2.8,0,0,1,1.8,0l2.4.7a.9.9,0,0,1,.6,1Z" fill="#939598"/>
          <rect x="2" y="14.1" width="2" height="3.23" fill="#939598"/>
          <rect x="16" y="14.1" width="2" height="3.23" fill="#939598"/>
        </g>
        <g>
          <path d="M45,14.3H25V10.4a1.9,1.9,0,0,1,1.8-1.9H43.2A1.9,1.9,0,0,1,45,10.4Z" fill="#939598"/>
          <path d="M43,4.4A4.4,4.4,0,0,0,38.6,0H31.5A4.5,4.5,0,0,0,27,4.4V7.5h2V4.4A2.5,2.5,0,0,1,31.5,2h7.1A2.4,2.4,0,0,1,41,4.4V7.5h2Z" fill="#939598"/>
          <path d="M39,7.5H31.1V5.1a1.1,1.1,0,0,1,.6-1l2.4-.7a2.8,2.8,0,0,1,1.8,0l2.4.7a1,1,0,0,1,.7,1Z" fill="#939598"/>
          <rect x="27" y="14.1" width="2" height="3.23" fill="#939598"/>
          <rect x="41" y="14.1" width="2" height="3.23" fill="#939598"/>
        </g>
      </g>
    </g>
  </g>
</svg>
