<svg xmlns="http://www.w3.org/2000/svg" width="20.5" height="21.9" viewBox="0 0 20.5 21.9">
  <title>ico_mart</title>
  <g id="Layer_2" data-name="Layer 2">
    <g id="pc">
      <path d="M17.6,21.8a2.3,2.3,0,0,1-2.3-2.3,2.3,2.3,0,0,1,.3-1.2l.2-.3H9.5l.2.3a2.3,2.3,0,0,1,.3,1.2,2.3,2.3,0,1,1-4.3-1.2v-.2H5.6a2.4,2.4,0,0,1-2.1-2.3V2.1L.3.8A.4.4,0,0,1,.4,0H.6L4,1.4h.3V4.2l15.8,2h.4v5.2a2.3,2.3,0,0,1-2.3,2.4H5.9A2.4,2.4,0,0,1,4.7,14l-.3-.2v2a1.5,1.5,0,0,0,1.5,1.5H17.6a2.3,2.3,0,1,1,0,4.6Zm0-3.8a1.5,1.5,0,1,0,1.5,1.4A1.5,1.5,0,0,0,17.6,18.1Zm-9.9.1a1.5,1.5,0,1,0,1.5,1.4A1.5,1.5,0,0,0,7.7,18.1ZM4.3,12a1.5,1.5,0,0,0,1.5,1.5H18.2a1.5,1.5,0,0,0,1.5-1.5V7L4.3,5Z" fill="#939598"/>
    </g>
  </g>
</svg>
