<svg xmlns="http://www.w3.org/2000/svg" width="20.1" height="20.1" viewBox="0 0 20.1 20.1">
  <title>ico_tennis</title>
  <g id="Layer_2" data-name="Layer 2">
    <g id="pc">
      <path d="M15.5,1.8a9.9,9.9,0,1,0,2.8,13.8A9.9,9.9,0,0,0,15.5,1.8ZM2.3,4.9a9.3,9.3,0,0,1,6-4C8.4,6.7,6,10.3,1,12A9.3,9.3,0,0,1,2.3,4.9ZM1.1,12.6h0C6.4,10.8,9,6.9,8.9.8h0A9.3,9.3,0,0,1,19,7.7c-5.5,2.2-8,6.1-7.7,11.6A9.3,9.3,0,0,1,1.1,12.6ZM12,19.1C11.6,14,14,10.4,19.2,8.3A9.3,9.3,0,0,1,12,19.1Zm0,0" fill="#939598" stroke="#939598" stroke-miterlimit="10" stroke-width="0.25"/>
    </g>
  </g>
</svg>
