<svg xmlns="http://www.w3.org/2000/svg" width="15.7" height="21.7" viewBox="0 0 15.7 21.7">
  <title>ico_bus</title>
  <g id="Layer_2" data-name="Layer 2">
    <g id="pc">
      <g>
        <path d="M13.8,18.8H1.9A1.7,1.7,0,0,1,.3,17.2V1.9A1.7,1.7,0,0,1,1.9.3H13.8a1.7,1.7,0,0,1,1.7,1.7V17.2A1.7,1.7,0,0,1,13.8,18.8ZM1.9.5A1.4,1.4,0,0,0,.5,1.9V17.2a1.4,1.4,0,0,0,1.4,1.4H13.8a1.4,1.4,0,0,0,1.4-1.4V1.9A1.4,1.4,0,0,0,13.8.5Z" fill="#939598" stroke="#939598" stroke-miterlimit="10" stroke-width="0.5"/>
        <rect x="0.4" y="3.5" width="15" height="0.29" fill="#939598" stroke="#939598" stroke-miterlimit="10" stroke-width="0.5"/>
        <rect x="0.4" y="12.6" width="15" height="0.29" fill="#939598" stroke="#939598" stroke-miterlimit="10" stroke-width="0.5"/>
        <rect x="4.5" y="1.9" width="2.9" height="0.29" fill="#939598" stroke="#939598" stroke-miterlimit="10" stroke-width="0.5"/>
        <rect x="8.8" y="1.9" width="1.2" height="0.29" fill="#939598" stroke="#939598" stroke-miterlimit="10" stroke-width="0.5"/>
        <g>
          <path d="M3,17a1.4,1.4,0,1,1,1.4-1.4A1.4,1.4,0,0,1,3,17Zm0-2.3a.9.9,0,1,0,.9.9A.9.9,0,0,0,3,14.7Z" fill="#939598" stroke="#939598" stroke-miterlimit="10" stroke-width="0.5"/>
          <path d="M12.8,17a1.4,1.4,0,1,1,1.4-1.4A1.4,1.4,0,0,1,12.8,17Zm0-2.3a.9.9,0,1,0,.9.9A.9.9,0,0,0,12.8,14.7Z" fill="#939598" stroke="#939598" stroke-miterlimit="10" stroke-width="0.5"/>
        </g>
        <path d="M2.5,21.5H2.1A1.3,1.3,0,0,1,.8,20.2V18.3h.3v1.8a1,1,0,0,0,1,1h.4a1,1,0,0,0,1-1V18.7h.3v1.5A1.3,1.3,0,0,1,2.5,21.5Z" fill="#939598" stroke="#939598" stroke-miterlimit="10" stroke-width="0.5"/>
        <path d="M13.6,21.5h-.4a1.3,1.3,0,0,1-1.3-1.3V18.7h.3v1.5a1,1,0,0,0,1,1h.4a1,1,0,0,0,1-1V18.3h.3v1.8A1.3,1.3,0,0,1,13.6,21.5Z" fill="#939598" stroke="#939598" stroke-miterlimit="10" stroke-width="0.5"/>
      </g>
    </g>
  </g>
</svg>
