<svg xmlns="http://www.w3.org/2000/svg" width="16.7" height="23.2" viewBox="0 0 16.7 23.2">
  <title>ico_tree</title>
  <g id="Layer_2" data-name="Layer 2">
    <g id="pc">
      <path d="M15.6,8.7a4.5,4.5,0,0,0-3.8-6.9,4.3,4.3,0,0,0-7.4.7,6.1,6.1,0,0,0-2.9,9.9c0,.1,0,.3,0,.4A5.4,5.4,0,0,0,7,18.2h.6l-.2,4.5H7a.3.3,0,0,0,0,.7h3.6a.3.3,0,0,0,0-.7h-.4l-.3-5.3,1.4.2a5.4,5.4,0,0,0,4.3-8.7ZM8.1,22.6l.3-6.3.8-.2.4,6.5Zm3.2-5.9-1.4-.2v-.9l.3-.2a.3.3,0,0,0-.5-.5,2.2,2.2,0,0,1-1.6.7l-.9-.2a.3.3,0,0,0-.3.6l.9.2v1.2H7a4.8,4.8,0,0,1-4.8-4.7c0-.1,0-.3,0-.5a.3.3,0,0,0-.1-.3,5.5,5.5,0,0,1,2-8.7A4.3,4.3,0,0,0,4,4a.3.3,0,0,0,.3.4h0A.3.3,0,0,0,4.7,4a3.7,3.7,0,0,1,.3-1.1H5a3.7,3.7,0,0,1,6.4-.6l.3.2h.1a3.8,3.8,0,0,1,3.9,3.8,3.8,3.8,0,0,1-.5,1.9h-.1a.3.3,0,0,0-.5.5,4.8,4.8,0,0,1-3.3,8.2Z" fill="#939598"/>
    </g>
  </g>
</svg>
