<svg xmlns="http://www.w3.org/2000/svg" width="24.6" height="14.7" viewBox="0 0 24.6 14.7">
  <title>ico_swim</title>
  <g id="Layer_2" data-name="Layer 2">
    <g id="pc">
      <g>
        <path d="M21.2,2.1a2.3,2.3,0,0,1-1.7-.8,1.6,1.6,0,0,0-2.5,0,2.3,2.3,0,0,1-1.7.8,2.3,2.3,0,0,1-1.7-.8,1.6,1.6,0,0,0-2.5,0,2.3,2.3,0,0,1-1.7.8,2.3,2.3,0,0,1-1.7-.8,1.6,1.6,0,0,0-2.5,0,2.3,2.3,0,0,1-1.7.8,2.3,2.3,0,0,1-1.7-.8A1.6,1.6,0,0,0,.4.9.4.4,0,0,1,.4.2,2.3,2.3,0,0,1,2.1,1a1.6,1.6,0,0,0,1.3.6A1.6,1.6,0,0,0,4.6,1,2.3,2.3,0,0,1,8,.9a1.6,1.6,0,0,0,1.3.6A1.6,1.6,0,0,0,10.5.9,2.3,2.3,0,0,1,14,.9a1.6,1.6,0,0,0,1.3.6A1.6,1.6,0,0,0,16.5.8,2.3,2.3,0,0,1,20,.8a1.6,1.6,0,0,0,1.3.6A1.6,1.6,0,0,0,22.5.8,2.3,2.3,0,0,1,24.2,0a.4.4,0,1,1,0,.7,1.6,1.6,0,0,0-1.2.6,2.3,2.3,0,0,1-1.7.8Zm0,0" fill="#939598"/>
        <path d="M21.2,5.2a2.3,2.3,0,0,1-1.7-.8,1.6,1.6,0,0,0-2.5,0,2.3,2.3,0,0,1-3.5,0,1.6,1.6,0,0,0-2.5,0,2.3,2.3,0,0,1-3.5,0,1.6,1.6,0,0,0-2.5,0,2.3,2.3,0,0,1-3.5,0A1.6,1.6,0,0,0,.4,4a.4.4,0,1,1,0-.7,2.3,2.3,0,0,1,1.7.8,1.6,1.6,0,0,0,2.5,0A2.3,2.3,0,0,1,8.1,4a1.6,1.6,0,0,0,2.5,0A2.3,2.3,0,0,1,14,4a1.6,1.6,0,0,0,2.5,0,2.3,2.3,0,0,1,3.5,0,1.6,1.6,0,0,0,2.5,0,2.3,2.3,0,0,1,1.7-.8.4.4,0,1,1,0,.7,1.6,1.6,0,0,0-1.2.6,2.3,2.3,0,0,1-1.7.8Zm0,0" fill="#939598"/>
        <path d="M21.3,8.3a2.3,2.3,0,0,1-1.7-.8,1.6,1.6,0,0,0-2.5,0,2.3,2.3,0,0,1-3.5,0,1.6,1.6,0,0,0-2.5,0,2.3,2.3,0,0,1-3.5,0,1.6,1.6,0,0,0-2.5,0,2.3,2.3,0,0,1-3.5,0A1.6,1.6,0,0,0,.4,7.1a.4.4,0,0,1,0-.7,2.3,2.3,0,0,1,1.7.8,1.6,1.6,0,0,0,2.5,0,2.3,2.3,0,0,1,3.5,0,1.6,1.6,0,0,0,2.5,0,2.3,2.3,0,0,1,3.5,0,1.6,1.6,0,0,0,2.5,0A2.3,2.3,0,0,1,20,7a1.6,1.6,0,0,0,2.5,0,2.3,2.3,0,0,1,1.7-.8.4.4,0,1,1,0,.7,1.6,1.6,0,0,0-1.2.6,2.3,2.3,0,0,1-1.7.8Zm0,0" fill="#939598"/>
        <path d="M21.3,11.4a2.3,2.3,0,0,1-1.7-.8,1.6,1.6,0,0,0-2.5,0,2.3,2.3,0,0,1-3.5,0,1.6,1.6,0,0,0-2.5,0,2.3,2.3,0,0,1-3.5,0,1.6,1.6,0,0,0-2.5,0,2.3,2.3,0,0,1-3.5,0,1.6,1.6,0,0,0-1.3-.6.4.4,0,0,1,0-.7,2.3,2.3,0,0,1,1.7.8,1.6,1.6,0,0,0,2.5,0,2.3,2.3,0,0,1,3.5,0,1.6,1.6,0,0,0,2.5,0,2.3,2.3,0,0,1,3.5,0,1.6,1.6,0,0,0,2.5,0,2.3,2.3,0,0,1,3.5,0,1.6,1.6,0,0,0,2.5,0,2.3,2.3,0,0,1,1.7-.8.4.4,0,1,1,0,.7,1.6,1.6,0,0,0-1.2.6,2.3,2.3,0,0,1-1.7.8Zm0,0" fill="#939598"/>
        <path d="M21.3,14.5a2.3,2.3,0,0,1-1.7-.8,1.6,1.6,0,0,0-2.5,0,2.3,2.3,0,0,1-3.5,0,1.6,1.6,0,0,0-2.5,0,2.3,2.3,0,0,1-3.5,0,1.6,1.6,0,0,0-2.5,0,2.3,2.3,0,0,1-3.5,0,1.6,1.6,0,0,0-1.3-.6.4.4,0,1,1,0-.7,2.3,2.3,0,0,1,1.7.8,1.6,1.6,0,0,0,2.5,0,2.3,2.3,0,0,1,3.5,0,1.6,1.6,0,0,0,2.5,0,2.3,2.3,0,0,1,3.5,0,1.6,1.6,0,0,0,2.5,0,2.3,2.3,0,0,1,3.5,0,1.6,1.6,0,0,0,2.5,0,2.3,2.3,0,0,1,1.7-.8.4.4,0,1,1,0,.7,1.6,1.6,0,0,0-1.2.6,2.3,2.3,0,0,1-1.7.8Zm0,0" fill="#939598"/>
      </g>
    </g>
  </g>
</svg>
