<svg xmlns="http://www.w3.org/2000/svg" width="25.8" height="14.5" viewBox="0 0 25.8 14.5">
  <title>ico_gym</title>
  <g id="Layer_2" data-name="Layer 2">
    <g id="pc">
      <path d="M25.4,4.9a1.4,1.4,0,0,0-1-.5h-.6V3.9a1.6,1.6,0,0,0-1.6-1.5h-.8V1.5A1.5,1.5,0,0,0,20.9.4a1.7,1.7,0,0,0-2.3,0,1.5,1.5,0,0,0-.5,1.1V5.6H7.7V1.5A1.5,1.5,0,0,0,7.2.4,1.7,1.7,0,0,0,4.9.4a1.5,1.5,0,0,0-.5,1.1v.9H3.6a1.6,1.6,0,0,0-1.1.4,1.4,1.4,0,0,0-.5,1v.6H1.4a1.4,1.4,0,0,0-1,.5A1.8,1.8,0,0,0,0,6.1V8.4A1.8,1.8,0,0,0,.4,9.6a1.4,1.4,0,0,0,1,.5H2v.6a1.4,1.4,0,0,0,.5,1,1.6,1.6,0,0,0,1.1.4h.9V13a1.5,1.5,0,0,0,.5,1.1,1.7,1.7,0,0,0,2.3,0A1.5,1.5,0,0,0,7.7,13V8.9H18.1V13a1.5,1.5,0,0,0,.5,1.1,1.7,1.7,0,0,0,2.3,0,1.5,1.5,0,0,0,.5-1.1v-.9h.8a1.6,1.6,0,0,0,1.6-1.5v-.5h.6a1.4,1.4,0,0,0,1-.5,1.8,1.8,0,0,0,.4-1.1V6.1a1.8,1.8,0,0,0-.4-1.1ZM1.4,9.3,1,9a1,1,0,0,1-.2-.6V6.1A1,1,0,0,1,1,5.4l.4-.2H2v4Zm2.1,2L3,11.1a.6.6,0,0,1-.2-.4V3.9A.6.6,0,0,1,3,3.4l.5-.2h.9v8.1ZM6.9,13a.7.7,0,0,1-.2.5.9.9,0,0,1-1.2,0,.7.7,0,0,1-.2-.5V1.5A.7.7,0,0,1,5.5,1L6,.8l.6.2a.7.7,0,0,1,.2.5Zm.8-4.9V6.4H18.1V8.1ZM20.6,13a.7.7,0,0,1-.2.5.9.9,0,0,1-1.2,0A.7.7,0,0,1,19,13V1.5a.7.7,0,0,1,.2-.5l.6-.2.6.2a.7.7,0,0,1,.2.5ZM23,10.5a.8.8,0,0,1-.8.7h-.8V3.2h.8a.8.8,0,0,1,.8.7Zm2-2.1a1,1,0,0,1-.2.6l-.4.2h-.6v-4h.6l.4.2a1,1,0,0,1,.2.6Zm0,0" fill="#939598"/>
    </g>
  </g>
</svg>
