<?xml version="1.0" encoding="utf-8"?>
<!-- Generator: Adobe Illustrator 20.0.0, SVG Export Plug-In . SVG Version: 6.00 Build 0)  -->
<svg version="1.1" id="Layer_1" xmlns="http://www.w3.org/2000/svg" xmlns:xlink="http://www.w3.org/1999/xlink" x="0px" y="0px"
	 width="12px" height="12.8px" viewBox="0 0 12 12.8" style="enable-background:new 0 0 12 12.8;" xml:space="preserve">
<style type="text/css">
	.st0{fill:#939598;}
</style>
<g>
	<path class="st0" d="M12,3.6c-1.6,0.6-2.9,1-4,2.4C7,7.2,5.6,7.6,4,6.8v4.4H3.2V0.4C3.2,0.2,3.4,0,3.6,0S4,0.2,4,0.4
		C4.9,1.7,6.4,2,8,2C10.4,2,12,3.6,12,3.6L12,3.6z M4.8,8.9v0.8c0.9,0.2,1.6,0.6,1.6,1.1c0,0.7-1.3,1.2-2.8,1.2
		c-1.5,0-2.8-0.5-2.8-1.2c0-0.5,0.7-0.9,1.6-1.1V8.9C0.9,9.2,0,9.9,0,10.8c0,1.2,1.5,2,3.6,2s3.6-0.8,3.6-2C7.2,9.9,6.3,9.2,4.8,8.9
		L4.8,8.9z M4.8,8.9"/>
</g>
</svg>
