<?xml version="1.0" encoding="utf-8"?>
<!-- Generator: Adobe Illustrator 20.0.0, SVG Export Plug-In . SVG Version: 6.00 Build 0)  -->
<svg version="1.1" id="Layer_1" xmlns="http://www.w3.org/2000/svg" xmlns:xlink="http://www.w3.org/1999/xlink" x="0px" y="0px"
	 width="15.4px" height="10.2px" viewBox="0 0 15.4 10.2" style="enable-background:new 0 0 15.4 10.2;" xml:space="preserve">
<style type="text/css">
	.st0{fill:#939598;}
	.st1{fill:none;stroke:#939598;stroke-miterlimit:10;}
</style>
<path class="st0" d="M0,4.8C0,5,0,5.1,0.1,5.2l0,0l2.7,2.1c0,0,0.2,0.1,0.4,0.1v0h0.3c0.4,0,0.7,0,1.1-0.1c0.2,0,0.4-0.1,0.4-0.1
	l8.4-4.3c2.3-1.3,1.9-2.5,1.9-2.5C15.2,0.2,14.4,0,13.7,0c-0.4,0-0.7,0.1-1,0.2c-0.4,0.2-1.3,0.6-2.4,1.2L4.8,0.2
	c-0.1,0-0.3,0-0.4,0L3.2,0.8C3.1,0.9,3,0.9,3,1c0,0.1,0.1,0.2,0.2,0.3l3.6,1.9C5.2,3.9,4,4.6,3.6,4.8L1.9,4.2
	c-0.1,0-0.2-0.1-0.3-0.1C1.1,4.2,0.3,4.5,0.2,4.5l0,0C0.1,4.6,0,4.7,0,4.8L0,4.8z M3.3,7.2L3.3,7.2L3.3,7.2z M3.3,7.2"/>
<line class="st1" x1="0" y1="9.7" x2="15.4" y2="9.7"/>
</svg>
