<?xml version="1.0" encoding="utf-8"?>
<!-- Generator: Adobe Illustrator 20.0.0, SVG Export Plug-In . SVG Version: 6.00 Build 0)  -->
<svg version="1.1" id="Layer_1" xmlns="http://www.w3.org/2000/svg" xmlns:xlink="http://www.w3.org/1999/xlink" x="0px" y="0px"
	 width="14px" height="15.2px" viewBox="0 0 14 15.2" style="enable-background:new 0 0 14 15.2;" xml:space="preserve">
<style type="text/css">
	.st0{fill:#F49A1F;}
</style>
<g>
	<path class="st0" d="M13.6,3H13V2c0-1.1-0.9-2-2-2H3C1.9,0,1,0.9,1,2v1H0.4C0.2,3,0,3.2,0,3.4v2.3c0,0.2,0.2,0.4,0.4,0.4H1v5
		c-0.2,0.2-0.4,0.5-0.4,0.8v0.8c0,0.6,0.5,1.1,1.1,1.1h0.1v1.1c0,0.2,0.1,0.3,0.3,0.3h1.5C3.8,15.2,4,15,4,14.8v-1.1H10v1.1
		c0,0.2,0.1,0.3,0.3,0.3h1.5c0.2,0,0.3-0.1,0.3-0.3v-1.1h0.1c0.6,0,1.1-0.5,1.1-1.1v-0.8c0-0.3-0.1-0.6-0.4-0.8v-5h0.6
		c0.2,0,0.4-0.2,0.4-0.4V3.4C14,3.2,13.8,3,13.6,3L13.6,3z M11.8,3.2v4.9H7.5V3.2H11.8z M4.9,1h4.2c0.3,0,0.5,0.2,0.5,0.5
		c0,0.3-0.2,0.5-0.5,0.5H4.9c-0.3,0-0.5-0.2-0.5-0.5C4.4,1.3,4.6,1,4.9,1L4.9,1z M2.2,3.2h4.2v4.9H2.2V3.2z M4.1,10.3
		c0,0.3-0.2,0.5-0.5,0.5H2.7c-0.3,0-0.5-0.2-0.5-0.5V9.7c0-0.3,0.2-0.5,0.5-0.5h0.9c0.3,0,0.5,0.2,0.5,0.5V10.3z M9.9,10.3V9.7
		c0-0.3,0.2-0.5,0.5-0.5h0.9c0.3,0,0.5,0.2,0.5,0.5v0.6c0,0.3-0.2,0.5-0.5,0.5h-0.9C10.1,10.8,9.9,10.5,9.9,10.3L9.9,10.3z
		 M9.9,10.3"/>
</g>
</svg>
