<svg xmlns="http://www.w3.org/2000/svg" xmlns:xlink="http://www.w3.org/1999/xlink" width="60" height="60" viewBox="0 0 60 60">
  <defs>
    <clipPath id="clip-path">
      <rect width="60" height="60" fill="none"/>
    </clipPath>
    <filter id="Union_63" x="7" y="10" width="46" height="46" filterUnits="userSpaceOnUse">
      <feOffset dy="3" input="SourceAlpha"/>
      <feGaussianBlur stdDeviation="3" result="blur"/>
      <feFlood flood-color="#2873eb" flood-opacity="0.302"/>
      <feComposite operator="in" in2="blur"/>
      <feComposite in="SourceGraphic"/>
    </filter>
  </defs>
  <g id="add_1" data-name="add – 1" clip-path="url(#clip-path)">
    <g id="Group_235" data-name="Group 235" transform="translate(-1027 -368)">
      <rect id="Rectangle_418" data-name="Rectangle 418" width="60" height="60" rx="30" transform="translate(1027 368)" fill="#b5caec"/>
      <g transform="matrix(1, 0, 0, 1, 1027, 368)" filter="url(#Union_63)">
        <path id="Union_63-2" data-name="Union 63" d="M-1979.276,24.724V17.276h-7.447A3.277,3.277,0,0,1-1990,14a3.277,3.277,0,0,1,3.277-3.277h7.447V3.277A3.277,3.277,0,0,1-1976,0a3.277,3.277,0,0,1,3.276,3.277v7.447h7.448A3.277,3.277,0,0,1-1962,14a3.276,3.276,0,0,1-3.276,3.276h-7.448v7.448A3.276,3.276,0,0,1-1976,28,3.277,3.277,0,0,1-1979.276,24.724Z" transform="translate(44 2006) rotate(90)" fill="#2873eb"/>
      </g>
    </g>
  </g>
</svg>
