<svg xmlns="http://www.w3.org/2000/svg" width="32" height="30" viewBox="0 0 32 30">
  <g id="Group_285" data-name="Group 285" transform="translate(-814 -701)">
    <rect id="Rectangle_489" data-name="Rectangle 489" width="3" height="24" transform="translate(828 704)" fill="#2873eb"/>
    <rect id="Rectangle_490" data-name="Rectangle 490" width="3" height="24" transform="translate(842 715) rotate(90)" fill="#2873eb"/>
    <path id="Polygon_43" data-name="Polygon 43" d="M4.676,1.2a1,1,0,0,1,1.648,0l3.6,5.235A1,1,0,0,1,9.1,8H1.9a1,1,0,0,1-.824-1.567Z" transform="translate(824 701)" fill="#2873eb"/>
    <path id="Polygon_45" data-name="Polygon 45" d="M4.676,1.2a1,1,0,0,1,1.648,0l3.6,5.235A1,1,0,0,1,9.1,8H1.9a1,1,0,0,1-.824-1.567Z" transform="translate(846 711) rotate(90)" fill="#2873eb"/>
    <path id="Polygon_46" data-name="Polygon 46" d="M4.676,1.2a1,1,0,0,1,1.648,0l3.6,5.235A1,1,0,0,1,9.1,8H1.9a1,1,0,0,1-.824-1.567Z" transform="translate(814 722) rotate(-90)" fill="#2873eb"/>
    <path id="Polygon_44" data-name="Polygon 44" d="M4.676,1.2a1,1,0,0,1,1.648,0l3.6,5.235A1,1,0,0,1,9.1,8H1.9a1,1,0,0,1-.824-1.567Z" transform="translate(835 731) rotate(180)" fill="#2873eb"/>
  </g>
</svg>
