<svg xmlns="http://www.w3.org/2000/svg" xmlns:xlink="http://www.w3.org/1999/xlink" width="60" height="62" viewBox="0 0 60 62">
  <defs>
    <clipPath id="clip-path">
      <rect width="60" height="62" fill="none"/>
    </clipPath>
    <filter id="Path_65" x="1" y="4" width="58" height="58" filterUnits="userSpaceOnUse">
      <feOffset dy="3" input="SourceAlpha"/>
      <feGaussianBlur stdDeviation="5" result="blur"/>
      <feFlood flood-opacity="0.302"/>
      <feComposite operator="in" in2="blur"/>
      <feComposite in="SourceGraphic"/>
    </filter>
  </defs>
  <g id="settings_1" data-name="settings – 1" clip-path="url(#clip-path)">
    <g id="Group_283" data-name="Group 283" transform="translate(-15 -15)">
      <rect id="Rectangle_417" data-name="Rectangle 417" width="60" height="60" rx="30" transform="translate(15 15)" fill="#c7c7c7"/>
      <g id="iconfinder_settings_115801" transform="translate(31 31)">
        <path id="Path_64" data-name="Path 64" d="M14.606,10.7a3.906,3.906,0,1,0,3.906,3.906A3.932,3.932,0,0,0,14.606,10.7Zm0,6.781a2.878,2.878,0,0,1-2.874-2.874,2.874,2.874,0,1,1,5.749,0A2.878,2.878,0,0,1,14.606,17.481Z" transform="translate(-0.7 -0.7)" fill="#333"/>
        <g transform="matrix(1, 0, 0, 1, -16, -16)" filter="url(#Path_65)">
          <path id="Path_65-2" data-name="Path 65" d="M26.517,11.078l-2.7-.523c-.174-.349-.262-.785-.436-1.134L24.86,7.153A1.728,1.728,0,0,0,24.6,4.972L22.941,3.315a1.722,1.722,0,0,0-1.221-.523,1.758,1.758,0,0,0-.959.262L18.492,4.536A4.382,4.382,0,0,0,17.358,4.1l-.523-2.7A1.782,1.782,0,0,0,15.09,0H12.735a1.782,1.782,0,0,0-1.745,1.4l-.523,2.7c-.349.174-.785.262-1.134.436L7.153,3.053a2.588,2.588,0,0,0-.96-.349,1.722,1.722,0,0,0-1.221.523L3.227,4.885a1.839,1.839,0,0,0-.174,2.268L4.536,9.421A4.382,4.382,0,0,0,4.1,10.555l-2.7.523A1.782,1.782,0,0,0,0,12.822v2.355a1.782,1.782,0,0,0,1.4,1.745l2.7.523c.174.349.262.785.436,1.134L3.053,20.847a1.715,1.715,0,0,0,.262,2.181l1.657,1.657a1.722,1.722,0,0,0,1.221.523,1.758,1.758,0,0,0,.96-.262l2.268-1.483a4.382,4.382,0,0,0,1.134.436l.523,2.7A1.782,1.782,0,0,0,12.822,28h2.355a1.782,1.782,0,0,0,1.745-1.4l.523-2.7c.349-.174.785-.262,1.134-.436l2.268,1.483a1.758,1.758,0,0,0,.96.262,1.722,1.722,0,0,0,1.221-.523l1.657-1.657a1.728,1.728,0,0,0,.262-2.181l-1.483-2.268a4.382,4.382,0,0,0,.436-1.134l2.7-.523A1.782,1.782,0,0,0,28,15.178V12.822A1.96,1.96,0,0,0,26.517,11.078ZM13.956,20.15a6.28,6.28,0,1,1,6.28-6.28A6.254,6.254,0,0,1,13.956,20.15Z" transform="translate(16 16)" fill="#333"/>
        </g>
      </g>
    </g>
  </g>
</svg>
