<svg xmlns="http://www.w3.org/2000/svg" viewBox="0 0 12 11.99"><defs><style>.cls-1{fill:#6d6e71;}</style></defs><title>ico_tel</title><g id="Layer_2" data-name="Layer 2"><g id="design"><path class="cls-1" d="M12,9.46a.58.58,0,0,1-.18.51l-1.69,1.68a1,1,0,0,1-.3.22,1.24,1.24,0,0,1-.36.11H9.22a5.86,5.86,0,0,1-.78-.08,5.93,5.93,0,0,1-1.32-.41,11.1,11.1,0,0,1-1.77-1A13.22,13.22,0,0,1,3.24,8.75,13.93,13.93,0,0,1,1.77,7.08,11.94,11.94,0,0,1,.83,5.6,8,8,0,0,1,.29,4.36a6.53,6.53,0,0,1-.24-1A3.14,3.14,0,0,1,0,2.78q0-.23,0-.25a1.23,1.23,0,0,1,.11-.36,1,1,0,0,1,.22-.3L2,.18A.56.56,0,0,1,2.44,0a.47.47,0,0,1,.29.1.88.88,0,0,1,.22.24L4.31,2.91a.62.62,0,0,1,.06.44.79.79,0,0,1-.22.41l-.62.62a.21.21,0,0,0,0,.08.31.31,0,0,0,0,.1,2.29,2.29,0,0,0,.23.61,5.6,5.6,0,0,0,.47.74,8.25,8.25,0,0,0,.9,1,8.41,8.41,0,0,0,1,.91,5.87,5.87,0,0,0,.74.48,2,2,0,0,0,.46.18l.16,0,.08,0,.08,0,.72-.74a.78.78,0,0,1,.53-.2.66.66,0,0,1,.34.08h0L11.68,9a.64.64,0,0,1,.32.42Zm0,0"/></g></g></svg>