<svg xmlns="http://www.w3.org/2000/svg" viewBox="0 0 13 13"><defs><style>.cls-1{fill:#6d6e71;}</style></defs><title>ico_clock</title><g id="Layer_2" data-name="Layer 2"><g id="design"><path class="cls-1" d="M12.13,3.24A6.47,6.47,0,0,0,9.76.87,6.36,6.36,0,0,0,6.5,0,6.36,6.36,0,0,0,3.24.87,6.47,6.47,0,0,0,.87,3.24,6.36,6.36,0,0,0,0,6.5,6.36,6.36,0,0,0,.87,9.76a6.47,6.47,0,0,0,2.37,2.37A6.36,6.36,0,0,0,6.5,13a6.36,6.36,0,0,0,3.26-.87,6.47,6.47,0,0,0,2.37-2.37A6.36,6.36,0,0,0,13,6.5a6.36,6.36,0,0,0-.87-3.26ZM10.49,8.81a4.59,4.59,0,0,1-1.68,1.68,4.5,4.5,0,0,1-2.31.62,4.5,4.5,0,0,1-2.31-.62A4.59,4.59,0,0,1,2.51,8.81,4.5,4.5,0,0,1,1.9,6.5a4.5,4.5,0,0,1,.62-2.31A4.59,4.59,0,0,1,4.19,2.51,4.5,4.5,0,0,1,6.5,1.9a4.5,4.5,0,0,1,2.31.62,4.59,4.59,0,0,1,1.68,1.68A4.5,4.5,0,0,1,11.1,6.5a4.5,4.5,0,0,1-.62,2.31Zm0,0"/><path class="cls-1" d="M7.31,3.25H6.77a.26.26,0,0,0-.27.27v3H4.6a.26.26,0,0,0-.27.27v.54a.26.26,0,0,0,.27.27H7.31a.26.26,0,0,0,.19-.08.26.26,0,0,0,.08-.19V3.52a.26.26,0,0,0-.27-.27Zm0,0"/></g></g></svg>