<svg xmlns="http://www.w3.org/2000/svg" viewBox="0 0 24.99 25"><defs><style>.cls-1{fill:#6d6e71;}.cls-2{fill:#fff;fill-rule:evenodd;}</style></defs><title>ico_tw_1</title><g id="Layer_2" data-name="Layer 2"><g id="design"><path class="cls-1" d="M12.5,0A12.5,12.5,0,1,1,3.66,3.66,12.48,12.48,0,0,1,12.5,0Z"/><path class="cls-2" d="M18.88,8.61a5.58,5.58,0,0,1-1.5.41,2.58,2.58,0,0,0,1.16-1.43,5.33,5.33,0,0,1-1.67.63A2.63,2.63,0,0,0,12.33,10a2.69,2.69,0,0,0,.08.59A7.43,7.43,0,0,1,7,7.87a2.54,2.54,0,0,0,.8,3.44A2.54,2.54,0,0,1,6.63,11v0a2.44,2.44,0,0,0,.18.93,2.61,2.61,0,0,0,1.92,1.59,2.57,2.57,0,0,1-.69.1,2.34,2.34,0,0,1-.49-.06A2.64,2.64,0,0,0,10,15.38a5.29,5.29,0,0,1-3.25,1.1c-.21,0-.42,0-.63,0a7.56,7.56,0,0,0,4,1.16,7.28,7.28,0,0,0,7.27-5.77,7.08,7.08,0,0,0,.17-1.56V9.94a5.41,5.41,0,0,0,1.3-1.34Z"/></g></g></svg>