<svg xmlns="http://www.w3.org/2000/svg" width="15.5" height="16.2" viewBox="0 0 15.5 16.2"><title>icon_cal</title><g id="Layer_2" data-name="Layer 2"><g id="pc"><path d="M3.1,4.3a.5.5,0,0,1-.5-.5V.5a.5.5,0,0,1,1,0V3.8A.5.5,0,0,1,3.1,4.3Z" fill="#939598"/><path d="M7.8,4.3a.5.5,0,0,1-.5-.5V.5a.5.5,0,0,1,1,0V3.8A.5.5,0,0,1,7.8,4.3Z" fill="#939598"/><path d="M13.9,2V3.8a1.5,1.5,0,1,1-3,0V2H9.3V3.8a1.5,1.5,0,1,1-3,0V2H4.6V3.8a1.5,1.5,0,0,1-3,0V2H0V16.2H15.5V2Z" fill="#939598"/><path d="M12.4,4.3a.5.5,0,0,1-.5-.5V.5a.5.5,0,0,1,1,0V3.8A.5.5,0,0,1,12.4,4.3Z" fill="#939598"/><rect x="2.6" y="7.2" width="2.2" height="1.53" fill="#fff"/><rect x="6.7" y="7.2" width="2.2" height="1.53" fill="#fff"/><rect x="10.7" y="7.2" width="2.2" height="1.53" fill="#fff"/><rect x="2.6" y="10.1" width="2.2" height="1.53" fill="#fff"/><rect x="6.7" y="10.1" width="2.2" height="1.53" fill="#fff"/><rect x="10.7" y="10.1" width="2.2" height="1.53" fill="#fff"/><rect x="2.6" y="12.9" width="2.2" height="1.53" fill="#fff"/><rect x="6.7" y="12.9" width="2.2" height="1.53" fill="#fff"/><rect x="10.7" y="12.9" width="2.2" height="1.53" fill="#fff"/></g></g></svg>