<svg xmlns="http://www.w3.org/2000/svg" width="30.5" height="30.5" viewBox="0 0 30.5 30.5"><title>icon_question</title><g id="Layer_2" data-name="Layer 2"><g id="pc"><path d="M15.9,23h0a.7.7,0,0,1-.7.7h0a.7.7,0,0,1-.7-.7h0a.7.7,0,0,1,.7-.7h0A.7.7,0,0,1,15.9,23Zm0-2.6V18.8a2.3,2.3,0,0,1,1.4-2.1A5.1,5.1,0,0,0,20.4,12h0a5.1,5.1,0,0,0-10.2,0,.7.7,0,1,0,1.3,0,3.8,3.8,0,1,1,7.6,0h0a3.8,3.8,0,0,1-2.3,3.5,3.6,3.6,0,0,0-2.2,3.3v1.5a.7.7,0,1,0,1.3,0Z" fill="#d1d3d4"/><circle cx="15.3" cy="15.3" r="14.5" fill="none" stroke="#d1d3d4" stroke-miterlimit="10" stroke-width="1.5"/></g></g></svg>