<svg xmlns="http://www.w3.org/2000/svg" viewBox="0 0 49.06 49.03"><defs><style>.cls-1{fill:#fff;}</style></defs><title>ico_tel</title><g id="Layer_2" data-name="Layer 2"><g id="design"><path class="cls-1" d="M49,38.69a2.37,2.37,0,0,1-.73,2.08L41.4,47.63a3.89,3.89,0,0,1-1.22.88A5,5,0,0,1,38.7,49l-.31,0q-.26,0-.68,0a24,24,0,0,1-3.19-.34A24.23,24.23,0,0,1,29.12,47a45.38,45.38,0,0,1-7.25-4,54,54,0,0,1-8.62-7.27,56.94,56.94,0,0,1-6-6.86,48.83,48.83,0,0,1-3.84-6.05,32.54,32.54,0,0,1-2.18-5,26.72,26.72,0,0,1-1-3.9A12.84,12.84,0,0,1,0,11.37q.05-.93.05-1A5,5,0,0,1,.53,8.86a3.89,3.89,0,0,1,.88-1.22L8.32.73A2.29,2.29,0,0,1,10,0a1.94,1.94,0,0,1,1.19.39,3.61,3.61,0,0,1,.88,1l5.56,10.54a2.53,2.53,0,0,1,.26,1.82A3.23,3.23,0,0,1,17,15.37l-2.54,2.54a.87.87,0,0,0-.18.34,1.29,1.29,0,0,0-.08.39,9.37,9.37,0,0,0,.93,2.49,22.9,22.9,0,0,0,1.92,3,33.74,33.74,0,0,0,3.69,4.13A34.38,34.38,0,0,0,24.89,32a24,24,0,0,0,3,1.95,8.1,8.1,0,0,0,1.87.75l.65.13a1.24,1.24,0,0,0,.34-.08.86.86,0,0,0,.34-.18l3-3a3.18,3.18,0,0,1,2.18-.83,2.72,2.72,0,0,1,1.4.31h.05l10,5.92A2.61,2.61,0,0,1,49,38.69Zm0,0"/></g></g></svg>