<svg xmlns="http://www.w3.org/2000/svg" viewBox="0 0 45 45"><defs><style>.cls-1{opacity:0.6;}.cls-2,.cls-3{fill:#808083;}.cls-3{font-size:12px;font-family:HelveticaNeue, Helvetica Neue;}</style></defs><title>ico_like</title><g id="Layer_2" data-name="Layer 2"><g id="design"><g class="cls-1"><path class="cls-2" d="M44,1V44H1V1H44m1-1H0V45H45V0Z"/><path class="cls-2" d="M31,18.59a2.3,2.3,0,0,0,.54-1.54,2.36,2.36,0,0,0-.5-1.33,2.07,2.07,0,0,0-.49-2.38,4.28,4.28,0,0,0-3.11-.74,12.15,12.15,0,0,0-1.91.24h0l-.61.12a6.76,6.76,0,0,1,.48-2.25c.54-1.65.51-2.91-.1-3.76a2.46,2.46,0,0,0-2-1,1,1,0,0,0-.75.34,2.6,2.6,0,0,0-.33,1.85c-.51,1.37-1.94,4.73-3.16,5.67l-.06.05A4.16,4.16,0,0,0,18.24,15a1.6,1.6,0,0,0-.77-.19H15.11a1.61,1.61,0,0,0-1.61,1.61v6.29a1.61,1.61,0,0,0,1.61,1.61h2.36a1.61,1.61,0,0,0,.93-.29l.91.11a39,39,0,0,0,5.16.28c.46,0,.89.05,1.3.05a8.69,8.69,0,0,0,1.8-.16A3.37,3.37,0,0,0,30,22.86a2.37,2.37,0,0,0,.26-1.48,2.47,2.47,0,0,0,.88-2A2.62,2.62,0,0,0,31,18.59ZM15.11,23.32a.57.57,0,0,1-.57-.57v-6.3a.57.57,0,0,1,.57-.57h2.36a.57.57,0,0,1,.57.57v6.29a.57.57,0,0,1-.57.57H15.11ZM30,18.14a.52.52,0,0,0-.07.63,1.61,1.61,0,0,1,.18.65,1.55,1.55,0,0,1-.73,1.34.53.53,0,0,0-.18.6,1.37,1.37,0,0,1-.1,1,2.42,2.42,0,0,1-1.71,1,10.2,10.2,0,0,1-2.82.09h-.05a38.22,38.22,0,0,1-5-.27h0l-.39,0a1.64,1.64,0,0,0,0-.34v-6.3A1.64,1.64,0,0,0,19,16a3.24,3.24,0,0,1,.72-1.33c1.74-1.38,3.44-6,3.51-6.23a.49.49,0,0,0,0-.26A2.42,2.42,0,0,1,23.32,7a1.39,1.39,0,0,1,1.09.52c.39.55.38,1.52,0,2.82-.65,2-.7,3-.19,3.47A.84.84,0,0,0,25,14l.67-.14h.05c1.19-.26,3.32-.42,4.06.26a1.11,1.11,0,0,1,.13,1.41.52.52,0,0,0,.09.67,1.47,1.47,0,0,1,.43.9A1.44,1.44,0,0,1,30,18.14Z"/><text class="cls-3" transform="translate(15.83 39)">10</text></g></g></g></svg>