<svg xmlns="http://www.w3.org/2000/svg" viewBox="0 0 15.55 16"><defs><style>.cls-1{fill:#808083;}</style></defs><title>ico_fblike</title><g id="Layer_2" data-name="Layer 2"><g id="design"><path class="cls-1" d="M15.09,10.88a2,2,0,0,0,.47-1.33,2,2,0,0,0-.43-1.15,1.79,1.79,0,0,0-.42-2.06A3.69,3.69,0,0,0,12,5.7a10.5,10.5,0,0,0-1.65.21h0L9.83,6a5.84,5.84,0,0,1,.42-1.94c.47-1.43.44-2.52-.09-3.25A2.13,2.13,0,0,0,8.46,0a.84.84,0,0,0-.65.29,2.25,2.25,0,0,0-.28,1.6C7.09,3.07,5.85,6,4.8,6.79l-.05,0a3.59,3.59,0,0,0-.66,1,1.38,1.38,0,0,0-.66-.17h-2A1.39,1.39,0,0,0,0,9v5.44a1.39,1.39,0,0,0,1.39,1.39h2a1.39,1.39,0,0,0,.8-.25l.79.09A33.69,33.69,0,0,0,9.48,16c.4,0,.77,0,1.12,0a7.51,7.51,0,0,0,1.56-.14,2.91,2.91,0,0,0,2.08-1.29,2,2,0,0,0,.23-1.28,2.13,2.13,0,0,0,.76-1.74A2.26,2.26,0,0,0,15.09,10.88ZM1.39,15a.49.49,0,0,1-.49-.49V9a.49.49,0,0,1,.49-.49h2A.49.49,0,0,1,3.92,9v5.44a.49.49,0,0,1-.49.49h-2Zm12.84-4.48a.45.45,0,0,0-.06.55,1.39,1.39,0,0,1,.15.56,1.34,1.34,0,0,1-.63,1.16.46.46,0,0,0-.15.52,1.18,1.18,0,0,1-.09.86A2.09,2.09,0,0,1,12,15,8.81,8.81,0,0,1,9.53,15h0a33,33,0,0,1-4.35-.24h0l-.34,0a1.42,1.42,0,0,0,0-.29V9a1.42,1.42,0,0,0-.06-.41,2.8,2.8,0,0,1,.62-1.15c1.5-1.19,3-5.21,3-5.38a.42.42,0,0,0,0-.22,2.09,2.09,0,0,1,0-1,1.2,1.2,0,0,1,.94.45,2.85,2.85,0,0,1,0,2.43c-.56,1.7-.61,2.6-.16,3a.73.73,0,0,0,.73.13l.58-.12h0c1-.22,2.87-.36,3.51.22a1,1,0,0,1,.11,1.22.45.45,0,0,0,.08.58,1.27,1.27,0,0,1,.37.78A1.24,1.24,0,0,1,14.23,10.49Z"/></g></g></svg>