<svg xmlns="http://www.w3.org/2000/svg" viewBox="0 0 14 14.6"><defs><style>.cls-1{fill:#a5a7aa;}.cls-2{fill:#fff;}</style></defs><title>ico_date</title><g id="Layer_2" data-name="Layer 2"><g id="design"><path class="cls-1" d="M2.79,3.92a.45.45,0,0,1-.45-.45v-3a.45.45,0,0,1,.9,0v3A.45.45,0,0,1,2.79,3.92Z"/><path class="cls-1" d="M7,3.92a.45.45,0,0,1-.45-.45v-3a.45.45,0,0,1,.9,0v3A.45.45,0,0,1,7,3.92Z"/><path class="cls-1" d="M12.56,1.81V3.47a1.35,1.35,0,0,1-2.71,0V1.81H8.35V3.47a1.35,1.35,0,0,1-2.71,0V1.81H4.14V3.47a1.35,1.35,0,0,1-2.71,0V1.81H0V14.6H14V1.81Z"/><path class="cls-1" d="M11.21,3.92a.45.45,0,0,1-.45-.45v-3a.45.45,0,1,1,.9,0v3A.45.45,0,0,1,11.21,3.92Z"/><rect class="cls-2" x="2.34" y="6.52" width="1.96" height="1.38"/><rect class="cls-2" x="6.02" y="6.52" width="1.96" height="1.38"/><rect class="cls-2" x="9.7" y="6.52" width="1.96" height="1.38"/><rect class="cls-2" x="2.34" y="9.07" width="1.96" height="1.38"/><rect class="cls-2" x="6.02" y="9.07" width="1.96" height="1.38"/><rect class="cls-2" x="9.7" y="9.07" width="1.96" height="1.38"/><rect class="cls-2" x="2.34" y="11.62" width="1.96" height="1.38"/><rect class="cls-2" x="6.02" y="11.62" width="1.96" height="1.38"/><rect class="cls-2" x="9.7" y="11.62" width="1.96" height="1.38"/></g></g></svg>