<svg xmlns="http://www.w3.org/2000/svg" width="15.083" height="11.021" viewBox="0 0 15.083 11.021"><defs><style>.a{fill:#2873eb;}</style></defs><g transform="translate(-2.696 -34.461)"><path class="a" d="M.159,6.08A.92.92,0,0,1,.15,5.06C.832,4.025,3.74,0,7.746,0c4.033,0,6.636,4.075,7.214,5.077a.912.912,0,0,1,.122.456v.045a.919.919,0,0,1-.145.5c-.646,1.013-3.408,4.946-7.4,4.946C3.783,11.021.86,7.1.159,6.08Zm3.36-.57A4.025,4.025,0,1,0,7.544,1.486,4.025,4.025,0,0,0,3.519,5.511ZM6.125,7.123A2.144,2.144,0,0,1,5.6,4.605l1.948.874L6.809,3.5a2.143,2.143,0,1,1-.684,3.626Z" transform="translate(2.696 34.461)"/></g></svg>