<svg xmlns="http://www.w3.org/2000/svg" width="24.367" height="26.237" viewBox="0 0 24.367 26.237"><g transform="translate(-28.889 -26.079)"><g transform="translate(28.89 26.08)"><path d="M-18950.693-408.52a1.943,1.943,0,0,1-1.941-1.941v-20.486a1.947,1.947,0,0,1,1.941-1.945h2.5v-.8a1.061,1.061,0,0,1,1.061-1.061,1.057,1.057,0,0,1,1.055,1.061v.8h4.539v-.8a1.056,1.056,0,0,1,1.055-1.056,1.054,1.054,0,0,1,1.057,1.056v.8h4.537v-.8a1.058,1.058,0,0,1,1.057-1.061,1.062,1.062,0,0,1,1.061,1.061v.8h2.568a1.923,1.923,0,0,1,1.369.571,1.9,1.9,0,0,1,.566,1.375v20.486a1.912,1.912,0,0,1-.566,1.375,1.939,1.939,0,0,1-1.369.566Zm-.762-18.4a.633.633,0,0,0-.186.447v16.234a.632.632,0,0,0,.633.633h21.123a.632.632,0,0,0,.633-.633l0-16.234a.633.633,0,0,0-.633-.633h-21.119A.625.625,0,0,0-18951.455-426.918Zm2.74-2.611a1.68,1.68,0,0,0,1.588,1.127,1.689,1.689,0,0,0,1.59-1.127,1.684,1.684,0,0,0-.533-1.874v.1a1.058,1.058,0,0,1-1.057,1.061,1.062,1.062,0,0,1-1.061-1.061v-.1A1.685,1.685,0,0,0-18948.715-429.53Zm6.549-.086a1.691,1.691,0,0,0,1.527,1.208,1.693,1.693,0,0,0,1.646-1.037,1.7,1.7,0,0,0-.43-1.9v.043a1.056,1.056,0,0,1-1.055,1.056,1.061,1.061,0,0,1-.752-.309,1.061,1.061,0,0,1-.309-.747v-.152A1.685,1.685,0,0,0-18942.166-429.615Zm6.744.086a1.679,1.679,0,0,0,1.584,1.118,1.681,1.681,0,0,0,1.59-1.118,1.688,1.688,0,0,0-.527-1.874v.1a1.063,1.063,0,0,1-1.062,1.061,1.057,1.057,0,0,1-1.055-1.061v-.1A1.689,1.689,0,0,0-18935.422-429.53Zm-6.174,16.358a1,1,0,0,1-1-1v-2.083a1,1,0,0,1,1-1h2.084a1,1,0,0,1,1,1v2.083a1,1,0,0,1-1,1Zm-6.93,0a1,1,0,0,1-1-1v-2.083a1,1,0,0,1,1-1h2.078a1,1,0,0,1,1,1v2.083a1,1,0,0,1-1,1Zm13.879-6.26a1,1,0,0,1-1-1v-2.083a1,1,0,0,1,1-1h2.084a1,1,0,0,1,1,1v2.083a1,1,0,0,1-1,1Zm-6.949,0a1,1,0,0,1-1-1v-2.083a1,1,0,0,1,1-1h2.084a1,1,0,0,1,1,1v2.083a1,1,0,0,1-1,1Zm-6.93,0a1,1,0,0,1-1-1v-2.083a1,1,0,0,1,1-1h2.078a1,1,0,0,1,1,1v2.083a1,1,0,0,1-1,1Z" transform="translate(18952.633 434.756)"/></g></g></svg>