<svg xmlns="http://www.w3.org/2000/svg" xmlns:xlink="http://www.w3.org/1999/xlink" width="67.518" height="53.146" viewBox="0 0 67.518 53.146"><defs><style>.a{fill:#2873eb;}.b{fill:#fff;}.c{filter:url(#a);}</style><filter id="a" x="0" y="0" width="67.518" height="53.146" filterUnits="userSpaceOnUse"><feOffset input="SourceAlpha"/><feGaussianBlur stdDeviation="5" result="b"/><feFlood flood-color="#2873eb" flood-opacity="0.298"/><feComposite operator="in" in2="b"/><feComposite in="SourceGraphic"/></filter></defs><g transform="translate(-20.03 -47.35)"><g class="c" transform="matrix(1, 0, 0, 1, 20.03, 47.35)"><path class="a" d="M69.143,70.877a9.943,9.943,0,0,0-9.567-8.527,9.819,9.819,0,0,0-9.221,7.089,6.627,6.627,0,0,0-2.5-.489,7.273,7.273,0,0,0-7.032,6.908A4.776,4.776,0,0,0,37.1,80.639,4.7,4.7,0,0,0,41.631,85.5H67.723a7.152,7.152,0,0,0,6.892-7.387A7.288,7.288,0,0,0,69.143,70.877Z" transform="translate(-22.1 -47.35)"/></g><path class="b" d="M105.487,113.357l4.127,3.771.722-.658-4.849-4.43-4.847,4.431.72.658Z" transform="translate(-51.316 -37.995)"/></g></svg>