<svg xmlns="http://www.w3.org/2000/svg" xmlns:xlink="http://www.w3.org/1999/xlink" width="55.712" height="45.554" viewBox="0 0 55.712 45.554"><defs><style>.a{fill:#2873eb;}.b{filter:url(#a);}</style><filter id="a" x="0" y="0" width="55.712" height="45.554" filterUnits="userSpaceOnUse"><feOffset input="SourceAlpha"/><feGaussianBlur stdDeviation="3" result="b"/><feFlood flood-color="#2873eb" flood-opacity="0.502"/><feComposite operator="in" in2="b"/><feComposite in="SourceGraphic"/></filter></defs><g transform="translate(6.304 -25.46)"><g class="b" transform="matrix(1, 0, 0, 1, -6.3, 25.46)"><path class="a" d="M.4,15.2a2.3,2.3,0,0,1-.022-2.552C2.079,10.062,9.349,0,19.369,0,29.451,0,35.96,10.19,37.4,12.693a2.291,2.291,0,0,1,.307,1.142v.113a2.3,2.3,0,0,1-.363,1.238c-1.614,2.531-8.52,12.367-18.5,12.367C9.459,27.554,2.149,17.755.4,15.2Zm8.4-1.424A10.063,10.063,0,1,0,18.86,3.715,10.063,10.063,0,0,0,8.8,13.779Zm6.515,4.029a5.362,5.362,0,0,1-1.324-6.294L18.86,13.7,17.023,8.743a5.359,5.359,0,1,1-1.71,9.066Z" transform="translate(9 9)"/></g></g></svg>