<svg xmlns="http://www.w3.org/2000/svg" width="18.861" height="13.781" viewBox="0 0 18.861 13.781"><g transform="translate(-2.696 -34.461)"><path d="M.2,7.6A1.149,1.149,0,0,1,.188,6.328C1.04,5.033,4.676,0,9.688,0c5.042,0,8.3,5.1,9.021,6.349a1.144,1.144,0,0,1,.153.571v.057a1.156,1.156,0,0,1-.181.62c-.807,1.265-4.262,6.185-9.251,6.185C4.73,13.781,1.075,8.88.2,7.6Zm4.2-.713A5.033,5.033,0,1,0,9.433,1.859,5.033,5.033,0,0,0,4.4,6.891ZM7.658,8.906A2.68,2.68,0,0,1,7,5.759L9.433,6.852l-.919-2.48a2.68,2.68,0,1,1-.856,4.534Z" transform="translate(2.696 34.461)"/></g></svg>