<svg xmlns="http://www.w3.org/2000/svg" width="17.003" height="17.345" viewBox="0 0 17.003 17.345"><defs><style>.a{fill:#fff;}</style></defs><g transform="translate(-3.884 -12.262)"><path class="a" d="M12.556,19.694c0,.985,0,1.971,0,2.956,1.652.054,3.308.029,4.96.054-.729,3.664-5.714,4.853-8.352,2.46a5.552,5.552,0,0,1,.236-8.654c1.971-1.573,4.774-1.184,6.745.178a30.862,30.862,0,0,0,2.2-2.277,8.788,8.788,0,0,0-5.793-2.141A8.676,8.676,0,0,0,9.414,29.027c3.379,1.3,7.71.414,9.867-2.621a9.941,9.941,0,0,0,1.565-6.7C18.08,19.681,15.318,19.685,12.556,19.694Z" transform="translate(0 0)"/></g></svg>