<svg xmlns="http://www.w3.org/2000/svg" width="15.344" height="15.653" viewBox="0 0 15.344 15.653"><defs><style>.a{fill:#757575;}</style></defs><g transform="translate(0)"><path class="a" d="M11.71,18.969c0,.889,0,1.779,0,2.668,1.491.049,2.986.026,4.477.049-.658,3.307-5.157,4.379-7.537,2.22a5.01,5.01,0,0,1,.213-7.81,5.163,5.163,0,0,1,6.087.161A27.851,27.851,0,0,0,16.938,14.2a7.931,7.931,0,0,0-5.228-1.932A7.83,7.83,0,0,0,8.874,27.391a7.724,7.724,0,0,0,8.9-2.365,8.971,8.971,0,0,0,1.412-6.05C16.695,18.958,14.2,18.961,11.71,18.969Z" transform="translate(-3.884 -12.262)"/></g></svg>