<svg xmlns="http://www.w3.org/2000/svg" width="19.39" height="19.781" viewBox="0 0 19.39 19.781"><defs><style>.a{fill:#dd4b39;}</style></defs><g transform="translate(0)"><path class="a" d="M13.774,20.737c0,1.124,0,2.248,0,3.372,1.884.061,3.773.033,5.657.061-.831,4.179-6.516,5.534-9.524,2.8a6.331,6.331,0,0,1,.269-9.869c2.248-1.794,5.444-1.351,7.692.2a35.2,35.2,0,0,0,2.507-2.6,10.022,10.022,0,0,0-6.606-2.441,9.894,9.894,0,0,0-3.584,19.11c3.853,1.483,8.792.472,11.253-2.989a11.337,11.337,0,0,0,1.785-7.645C20.073,20.723,16.924,20.728,13.774,20.737Z" transform="translate(-3.884 -12.262)"/></g></svg>