<svg id="Layer_1" data-name="Layer 1" xmlns="http://www.w3.org/2000/svg" viewBox="0 0 126.49 128.15"><title>Artboard 21</title><path class="mouse__icon_blue" d="M46.11,53.57a5.16,5.16,0,0,1,1.52-2.63c1.62-1.17,4.47-1.4,7-1.6s4.78-.39,6.1-1.4a5.9,5.9,0,0,0,2-5.81l-1.47.35a4.44,4.44,0,0,1-1.4,4.27c-1,.74-3.07.91-5.3,1.09-2.85.23-5.79.47-7.75,1.88a7,7,0,0,0-2.2,3.83A21.74,21.74,0,0,0,23.14,75.29V91.41a21.75,21.75,0,0,0,21.75,21.76h0A21.76,21.76,0,0,0,66.65,91.41V75.29A21.77,21.77,0,0,0,46.11,53.57ZM63.63,91.41a18.74,18.74,0,0,1-37.48,0V75.29A18.75,18.75,0,0,1,43.94,56.6a38.66,38.66,0,0,0-.31,5.14h-.46a2.43,2.43,0,0,0-2.43,2.42V76.35a2.43,2.43,0,0,0,2.43,2.42h2.89a2.42,2.42,0,0,0,2.42-2.42V64.16a2.42,2.42,0,0,0-2.42-2.42h-.93a39.38,39.38,0,0,1,.34-5.16A18.75,18.75,0,0,1,63.63,75.29Z"/><polygon class="z__icon_blue" points="84.08 16.75 84.08 14.35 68.08 14.35 68.08 17.84 78 17.84 67.31 30.89 67.31 33.35 84.11 33.35 84.11 29.88 73.63 29.88 84.08 16.75"/><polygon class="z__icon_blue" points="93.37 44.01 102.06 33.09 102.06 31.1 88.76 31.1 88.76 33.99 97.01 33.99 88.12 44.85 88.12 46.9 102.09 46.9 102.09 44.01 93.37 44.01"/><polygon class="z__icon_blue" points="83.78 41.94 83.78 40.47 73.99 40.47 73.99 42.6 80.06 42.6 73.52 50.59 73.52 52.1 83.8 52.1 83.8 49.98 77.38 49.98 83.78 41.94"/><style>.mouse__icon_blue{fill: #304F9E;}.z__icon_blue{fill:#32A7E1;}</style></svg>