<svg xmlns="http://www.w3.org/2000/svg" xmlns:xlink="http://www.w3.org/1999/xlink" width="56.208" height="58" viewBox="0 0 56.208 58"><defs><style>.a{fill:#c12121;}.b{filter:url(#a);}</style><filter id="a" x="0" y="0" width="56.208" height="58" filterUnits="userSpaceOnUse"><feOffset input="SourceAlpha"/><feGaussianBlur stdDeviation="5" result="b"/><feFlood flood-color="#c12121" flood-opacity="0.502"/><feComposite operator="in" in2="b"/><feComposite in="SourceGraphic"/></filter></defs><g transform="translate(15 15)"><g class="b" transform="matrix(1, 0, 0, 1, -15, -15)"><path class="a" d="M7.976,28A2.26,2.26,0,0,1,5.7,26.076L2.375,5.965h1.9L7.6,25.788a.408.408,0,0,0,.38.382H18.414a.411.411,0,0,0,.38-.382L22.023,5.965h1.991l-3.323,20.11A2.35,2.35,0,0,1,18.414,28Zm8.637-5.387a1.047,1.047,0,0,1-.854-1.058l.948-10.682a.954.954,0,1,1,1.9.193l-.948,10.679a.983.983,0,0,1-.9.883A.734.734,0,0,1,16.612,22.613Zm-7.879-.869L7.782,11.065a.955.955,0,0,1,.858-1.059.944.944,0,0,1,1.043.866l.947,10.682a1.046,1.046,0,0,1-.854,1.058.734.734,0,0,1-.145.014A.984.984,0,0,1,8.733,21.744Zm3.7-.288V11.16a.949.949,0,1,1,1.9,0V21.554a.941.941,0,0,1-.947.866A.958.958,0,0,1,12.436,21.456ZM1.141,5.1A1.087,1.087,0,0,1,0,4.041,1.062,1.062,0,0,1,1.045,2.983h24.11A1.059,1.059,0,0,1,26.2,4.041,1,1,0,0,1,25.155,5.1Zm9.777-2.793A2.244,2.244,0,0,1,13.1,0a2.162,2.162,0,0,1,2.185,2.212h-.854A1.613,1.613,0,0,0,13.1,1.346a1.529,1.529,0,0,0-1.234.961Z" transform="translate(15 15)"/></g></g></svg>