<svg xmlns="http://www.w3.org/2000/svg" xmlns:xlink="http://www.w3.org/1999/xlink" width="56.266" height="58" viewBox="0 0 56.266 58"><defs><style>.a{fill:#2873eb;}.b{filter:url(#a);}</style><filter id="a" x="0" y="0" width="56.266" height="58" filterUnits="userSpaceOnUse"><feOffset input="SourceAlpha"/><feGaussianBlur stdDeviation="5" result="b"/><feFlood flood-color="#2873eb" flood-opacity="0.502"/><feComposite operator="in" in2="b"/><feComposite in="SourceGraphic"/></filter></defs><g transform="translate(10.225 15.451)"><g class="b" transform="matrix(1, 0, 0, 1, -10.22, -15.45)"><path class="a" d="M18.282,27.643,9.29,19.394V8.939L18.352.374a1.3,1.3,0,0,1,2.205.951V26.64A1.36,1.36,0,0,1,19.186,28,1.321,1.321,0,0,1,18.282,27.643ZM21.808,8.571a5.535,5.535,0,0,1,0,10.858ZM3.351,19.394A3.348,3.348,0,0,1,0,16.042V12.287A3.347,3.347,0,0,1,3.351,8.939H7.88V19.394Z" transform="translate(15 15)"/></g></g></svg>