<svg xmlns="http://www.w3.org/2000/svg" viewBox="0 0 35 34.98"><defs><style>.cls-1{fill:#d60516;}</style></defs><title>ico_tel</title><g id="Layer_2" data-name="Layer 2"><g id="dropdown"><path class="cls-1" d="M25.87,21.93a1.94,1.94,0,0,1,1,.22h0l7.15,4.22A1.86,1.86,0,0,1,35,27.6h0a1.69,1.69,0,0,1-.52,1.48L29.54,34a2.78,2.78,0,0,1-.87.63,3.6,3.6,0,0,1-1.06.33l-.22,0-.48,0a17.1,17.1,0,0,1-2.28-.24,17.29,17.29,0,0,1-3.85-1.19,32.38,32.38,0,0,1-5.17-2.83,38.56,38.56,0,0,1-6.15-5.19,40.62,40.62,0,0,1-4.3-4.89,34.84,34.84,0,0,1-2.74-4.32A23.21,23.21,0,0,1,.86,12.73a19.06,19.06,0,0,1-.7-2.78A9.16,9.16,0,0,1,0,8.11q0-.67,0-.74A3.6,3.6,0,0,1,.38,6.32,2.77,2.77,0,0,1,1,5.45L5.93.52A1.63,1.63,0,0,1,7.12,0,1.38,1.38,0,0,1,8,.28,2.58,2.58,0,0,1,8.6,1l4,7.52a1.8,1.8,0,0,1,.19,1.3A2.31,2.31,0,0,1,12.12,11l-1.82,1.82a.62.62,0,0,0-.13.24.92.92,0,0,0-.06.28,6.68,6.68,0,0,0,.67,1.78,16.33,16.33,0,0,0,1.37,2.17,24.07,24.07,0,0,0,2.63,2.95,24.53,24.53,0,0,0,3,2.65,17.11,17.11,0,0,0,2.17,1.39,5.78,5.78,0,0,0,1.33.54l.46.09a.89.89,0,0,0,.24-.06.61.61,0,0,0,.24-.13l2.11-2.15a2.27,2.27,0,0,1,1.56-.59M35,27.6"/></g></g></svg>