<svg xmlns="http://www.w3.org/2000/svg" viewBox="0 0 21.61 20"><title>ico_cart</title><g id="Layer_2" data-name="Layer 2"><g id="design"><path d="M16.2,6.19H8.59a.53.53,0,0,0,0,1.06h7.6a.53.53,0,1,0,0-1.06Z"/><path d="M15.78,8.95H9A.53.53,0,1,0,9,10h6.78a.53.53,0,0,0,0-1.06Z"/><path d="M9.06,16.2A1.9,1.9,0,1,0,11,18.1,1.9,1.9,0,0,0,9.06,16.2Zm0,2.74a.84.84,0,1,1,.84-.84A.84.84,0,0,1,9.06,18.94Z"/><path d="M15.73,16.2a1.9,1.9,0,1,0,1.9,1.9A1.9,1.9,0,0,0,15.73,16.2Zm0,2.74a.84.84,0,1,1,.84-.84A.84.84,0,0,1,15.73,18.94Z"/><path d="M21.37,3.83a1.06,1.06,0,0,0-.82-.39H4L3.69,1.81a1.06,1.06,0,0,0-.62-.76L.74,0A.53.53,0,0,0,.32,1L2.65,2,5.22,14.49a1.07,1.07,0,0,0,1,.85H19a.53.53,0,0,0,0-1.06H6.26l-.31-1.52H19.07a1.07,1.07,0,0,0,1-.85l1.48-7.2A1.06,1.06,0,0,0,21.37,3.83ZM19.07,11.7H5.73L4.24,4.5H20.55Z"/></g></g></svg>