<svg xmlns="http://www.w3.org/2000/svg" viewBox="0 0 21.99 22"><defs><style>.cls-1,.cls-2{fill:#fff;}.cls-2{fill-rule:evenodd;}</style></defs><title>ico_tw</title><g id="Layer_2" data-name="Layer 2"><g id="design"><path class="cls-1" d="M11,0A11,11,0,1,1,3.22,3.22,11,11,0,0,1,11,0Zm7.17,3.83a10.14,10.14,0,1,0,3,7.17,10.1,10.1,0,0,0-3-7.17Z"/><path class="cls-2" d="M16.61,7.57a4.91,4.91,0,0,1-1.32.36,2.27,2.27,0,0,0,1-1.26,4.69,4.69,0,0,1-1.47.55,2.31,2.31,0,0,0-4,1.55,2.37,2.37,0,0,0,.07.52A6.54,6.54,0,0,1,6.17,6.92a2.24,2.24,0,0,0,.71,3,2.23,2.23,0,0,1-1-.28v0a2.15,2.15,0,0,0,.16.82,2.3,2.3,0,0,0,1.69,1.4,2.26,2.26,0,0,1-.61.09,2.06,2.06,0,0,1-.43,0,2.32,2.32,0,0,0,2.15,1.58,4.66,4.66,0,0,1-2.86,1c-.19,0-.37,0-.55,0a6.65,6.65,0,0,0,3.53,1,6.41,6.41,0,0,0,6.4-5.08A6.23,6.23,0,0,0,15.47,9V8.75a4.76,4.76,0,0,0,1.14-1.18Z"/></g></g></svg>