<svg xmlns="http://www.w3.org/2000/svg" viewBox="0 0 46.29 42.83"><defs><style>.cls-1{fill:#d60516;}</style></defs><title>ico_cart02</title><g id="Layer_2" data-name="Layer 2"><g id="menu"><path class="cls-1" d="M34.69,13.26H18.4a1.14,1.14,0,1,0,0,2.27H34.69a1.14,1.14,0,1,0,0-2.27Z"/><path class="cls-1" d="M33.8,19.16H19.29a1.14,1.14,0,0,0,0,2.27H33.8a1.14,1.14,0,0,0,0-2.27Z"/><path class="cls-1" d="M19.41,34.69a4.07,4.07,0,1,0,4.07,4.07A4.08,4.08,0,0,0,19.41,34.69Zm0,5.87a1.8,1.8,0,1,1,1.8-1.8A1.8,1.8,0,0,1,19.41,40.56Z"/><path class="cls-1" d="M33.69,34.69a4.07,4.07,0,1,0,4.07,4.07A4.08,4.08,0,0,0,33.69,34.69Zm0,5.87a1.8,1.8,0,1,1,1.8-1.8A1.8,1.8,0,0,1,33.69,40.56Z"/><path class="cls-1" d="M45.77,8.19A2.26,2.26,0,0,0,44,7.36H8.61L7.9,3.89A2.28,2.28,0,0,0,6.58,2.26L1.59.09A1.14,1.14,0,0,0,.68,2.18l5,2.17L11.17,31a2.28,2.28,0,0,0,2.23,1.81H40.62a1.14,1.14,0,1,0,0-2.27H13.4l-.67-3.25h28.1a2.28,2.28,0,0,0,2.23-1.81l3.18-15.43A2.26,2.26,0,0,0,45.77,8.19ZM40.83,25.06H12.26L9.08,9.63H44Z"/></g></g></svg>