<svg xmlns="http://www.w3.org/2000/svg" viewBox="0 0 21.99 21.99"><defs><style>.cls-1,.cls-2{fill:#fff;}.cls-2{fill-rule:evenodd;}</style></defs><title>ico_fb</title><g id="Layer_2" data-name="Layer 2"><g id="design"><path class="cls-1" d="M11,0A11,11,0,1,1,3.22,3.22,11,11,0,0,1,11,0Zm7.17,3.83a10.15,10.15,0,1,0,3,7.17,10.13,10.13,0,0,0-3-7.17Z"/><path class="cls-2" d="M11.84,8.75v-.9a.47.47,0,0,1,.49-.54h1.26V5.39H11.86A2.18,2.18,0,0,0,9.49,7.74v1H8.37V11H9.51v5.61h2.25V11h1.66l.07-.88.13-1.36Z"/></g></g></svg>