<svg id="Layer_1" data-name="Layer 1" xmlns="http://www.w3.org/2000/svg" viewBox="0 0 126.49 128.15"><title>Artboard 6</title><polygon points="93.33 40.08 83.61 50.45 74.04 40.23 72.29 41.86 81.98 52.2 72.59 62.21 74.34 63.84 83.61 53.94 93.03 63.99 94.78 62.36 85.25 52.2 95.07 41.71 93.33 40.08"/><path d="M83.68,20.61A31.43,31.43,0,1,0,115.11,52,31.43,31.43,0,0,0,83.68,20.61Zm0,59.85A28.43,28.43,0,1,1,112.11,52,28.45,28.45,0,0,1,83.68,80.46Z"/><path d="M77.44,85.86l.9.9h0l5.08,5.08-9.79,9.79-4.77-4.77h0l-2.19-2.19a27.35,27.35,0,0,1-7.83,3.38v3.1h0v7.24l-13.84,0V101h0V98a27.42,27.42,0,0,1-6.65-2.75l-2.19,2.19h0l-4.79,4.79-9.79-9.79,4.74-4.74h0l2.19-2.19a27.33,27.33,0,0,1-3-7.24H13.82V64.4H25.59a27.37,27.37,0,0,1,3.1-7.23L26.5,55h0l-4.75-4.75,9.79-9.79,4.91,4.92h0l2.19,2.19a27.11,27.11,0,0,1,7.86-3v-3h0V34.87h7.92a32.59,32.59,0,0,1,2.07-3h-13V42.29a31.16,31.16,0,0,0-4.26,1.62l-7.7-7.7-14,14L25,57.71a31.89,31.89,0,0,0-1.58,3.7H10.84l0,19.85H23.28A29.84,29.84,0,0,0,24.81,85l-7.48,7.47,14,14,7.55-7.56A29.78,29.78,0,0,0,42,100.18l0,11.19,19.85,0v-11.1a30.47,30.47,0,0,0,4.34-1.86l7.45,7.44,14-14-5.48-5.48A35.07,35.07,0,0,1,77.44,85.86Z"/><path d="M49.89,57.76c-.15-1-.26-2-.32-3A18.2,18.2,0,1,0,68,82.71c-.9-.46-1.78-1-2.63-1.49A15.2,15.2,0,1,1,49.89,57.76Z"/></svg>