<svg id="Layer_1" data-name="Layer 1" xmlns="http://www.w3.org/2000/svg" viewBox="0 0 126.49 128.15"><title>Artboard 25</title><path d="M110.44,45.2H69.12a3.89,3.89,0,0,0-3.88,3.89V78a3.89,3.89,0,0,0,3.88,3.89h41.32A3.89,3.89,0,0,0,114.33,78V49.09A3.89,3.89,0,0,0,110.44,45.2Zm2,32.8a2.05,2.05,0,0,1-2,2H69.12a2,2,0,0,1-2-2V49.09a2,2,0,0,1,2-2.05h41.32a2.05,2.05,0,0,1,2,2.05Z"/><path d="M57.54,45.2H16.22a3.89,3.89,0,0,0-3.89,3.89V78a3.89,3.89,0,0,0,3.89,3.89H57.54A3.89,3.89,0,0,0,61.43,78V49.09A3.89,3.89,0,0,0,57.54,45.2ZM28.85,65.44v4.33H25.1V65.49l-3.84-8.17h4.31l1.34,3.91a4.57,4.57,0,0,1,.2.7c0,.19.08.39.13.6h0a7.66,7.66,0,0,1,.25-1.23l1.33-4h4Zm13.23,4.33H34V57.32h7.75v2.93h-4v1.82h3.76V65H37.79v1.83h4.29Zm9.75-1.61A3.92,3.92,0,0,1,50,69.53a8.22,8.22,0,0,1-2.88.45,9.46,9.46,0,0,1-3.58-.66V65.91a7.36,7.36,0,0,0,1.73.93,5.18,5.18,0,0,0,1.76.35A1.84,1.84,0,0,0,48,67a.75.75,0,0,0,.34-.65.88.88,0,0,0-.17-.53,1.71,1.71,0,0,0-.51-.43,8.68,8.68,0,0,0-1.28-.55c-2-.77-3-2-3-3.73a3.5,3.5,0,0,1,1.37-2.89,5.8,5.8,0,0,1,3.68-1.08c.44,0,.84,0,1.2,0s.7.08,1,.13.72.15,1.26.3v3.16a6.44,6.44,0,0,0-3.09-.85,1.89,1.89,0,0,0-1,.23.73.73,0,0,0-.38.64.8.8,0,0,0,.31.65,5.51,5.51,0,0,0,1.29.66,7.18,7.18,0,0,1,2.74,1.71A3.3,3.3,0,0,1,52.5,66,3.53,3.53,0,0,1,51.83,68.16Z"/><path d="M86.54,67.05c0,.29,0,.64,0,1h0c-.19-.31-.37-.58-.53-.8l-7.36-10H78V69.77h.86V59.47c0-.21,0-.4,0-.55h0l.12.18a5.21,5.21,0,0,0,.4.6l7.41,10.07h.61V57.32h-.86Z"/><path d="M96,57.11a5.64,5.64,0,0,0-4.4,1.79,6.9,6.9,0,0,0-1.61,4.77,6.57,6.57,0,0,0,1.57,4.56A5.33,5.33,0,0,0,95.71,70,5.49,5.49,0,0,0,100,68.21a7,7,0,0,0,1.59-4.86A6.49,6.49,0,0,0,100,58.83,5.2,5.2,0,0,0,96,57.11Zm3.4,10.58a4.66,4.66,0,0,1-3.65,1.5,4.5,4.5,0,0,1-3.55-1.52,6,6,0,0,1-1.32-4.09,5.93,5.93,0,0,1,1.4-4.12,5,5,0,0,1,7.15-.09,6,6,0,0,1,1.32,4.12A6.09,6.09,0,0,1,99.35,67.69Z"/></svg>