<svg id="Layer_1" data-name="Layer 1" xmlns="http://www.w3.org/2000/svg" viewBox="0 0 126.49 128.15"><title>Artboard 12</title><path d="M54.67,83.26V45.21h-5A33.92,33.92,0,0,1,44.6,48.4a33.56,33.56,0,0,1-6,2.39v6.9a14.84,14.84,0,0,0,2.21-.43,18.7,18.7,0,0,0,2.15-.72,17.84,17.84,0,0,0,2-1,10.24,10.24,0,0,0,1.6-1.13V83.26Z"/><path d="M62.23,67.57a8.87,8.87,0,0,0-1.36,2.67,9.7,9.7,0,0,0-.46,3,9.46,9.46,0,0,0,1,4.32,10,10,0,0,0,2.74,3.36,12.74,12.74,0,0,0,4.18,2.17,18.83,18.83,0,0,0,10.66,0,12.69,12.69,0,0,0,4.18-2.19,9.88,9.88,0,0,0,2.71-3.37,9.78,9.78,0,0,0,1-4.35,10,10,0,0,0-.46-3A9.1,9.1,0,0,0,85,67.4a10.19,10.19,0,0,0-2.31-2.22,12.53,12.53,0,0,0-3.19-1.6A12.28,12.28,0,0,0,84.06,60a7.76,7.76,0,0,0,1.66-4.81,8.65,8.65,0,0,0-.89-3.89,9.12,9.12,0,0,0-2.47-3.1,11.8,11.8,0,0,0-3.81-2.05,15,15,0,0,0-4.85-.74,14.71,14.71,0,0,0-4.79.74,11.51,11.51,0,0,0-3.77,2.06,9.41,9.41,0,0,0-2.48,3.14,8.77,8.77,0,0,0-.9,3.94,8.19,8.19,0,0,0,1.56,4.87,11.46,11.46,0,0,0,4.39,3.59,12.35,12.35,0,0,0-3.21,1.6A10,10,0,0,0,62.23,67.57ZM69.64,54.2a4.37,4.37,0,0,1,.91-1.5,4.4,4.4,0,0,1,5-1,4.39,4.39,0,0,1,1.43,1,4.57,4.57,0,0,1,.95,1.5,5.29,5.29,0,0,1,.34,1.89,4.9,4.9,0,0,1-.35,1.84,5.07,5.07,0,0,1-1,1.5,4.47,4.47,0,0,1-1.42,1,4.34,4.34,0,0,1-3.46,0,4.5,4.5,0,0,1-1.42-1,5.05,5.05,0,0,1-1.3-3.36A5.2,5.2,0,0,1,69.64,54.2Zm-1,16.13a5.2,5.2,0,0,1,1.14-1.75,5,5,0,0,1,1.74-1.14A5.79,5.79,0,0,1,73.65,67a5.51,5.51,0,0,1,4,1.63,5.05,5.05,0,0,1,1.12,1.75,6.13,6.13,0,0,1,0,4.38,5.07,5.07,0,0,1-1.14,1.72,5.3,5.3,0,0,1-1.73,1.09,6,6,0,0,1-2.19.39,6.4,6.4,0,0,1-2.25-.38,4.93,4.93,0,0,1-1.72-1.08,4.51,4.51,0,0,1-1.12-1.71,6.26,6.26,0,0,1-.39-2.28A5.72,5.72,0,0,1,68.59,70.33Z"/><path d="M108.19,46.4a16.13,16.13,0,0,1-2.66,1.8A45.88,45.88,0,1,1,84.78,24.37,16.3,16.3,0,0,1,86.93,22,49,49,0,1,0,108.19,46.4Z"/><polygon points="96.04 42.79 98.86 42.79 98.86 35.23 106.43 35.23 106.43 32.4 98.86 32.4 98.86 24.84 96.04 24.84 96.04 32.4 88.47 32.4 88.47 35.23 96.04 35.23 96.04 42.79"/></svg>