<svg id="Layer_1" data-name="Layer 1" xmlns="http://www.w3.org/2000/svg" viewBox="0 0 126.49 128.15"><title>Artboard 5</title><rect x="46.22" y="31.85" width="55.23" height="4.39"/><polygon points="66.16 48.8 73.93 44.41 52.4 44.41 52.4 48.8 66.16 48.8"/><polygon points="93.67 48.6 93.67 44.41 85 44.41 83.81 48.6 93.67 48.6"/><path d="M11,81.34,28.58,92.06,45.33,81.34,37.59,96.1l1.21.66V110l9.83-7.89,11.8,6.41L78.14,47.63Zm30.83,22.28v-5.2l3.86,2.1Zm16.69.4L41.7,94.85,48,82.76l5.35-10.21-9.7,6.22L28.54,88.45,17.32,81.6,73.24,53.51Z"/><path d="M104.94,17.47H41.4A10.45,10.45,0,0,0,31,27.9V61.54a10.39,10.39,0,0,0,1.24,4.93L34.94,65a7.27,7.27,0,0,1-.92-3.5V27.9a7.39,7.39,0,0,1,7.38-7.38h63.54a7.39,7.39,0,0,1,7.38,7.38V61.54a7.4,7.4,0,0,1-7.38,7.39H77.85L77,72h5.19l14.51,15.2V72h8.28a10.45,10.45,0,0,0,10.43-10.44V27.9A10.44,10.44,0,0,0,104.94,17.47Z"/></svg>