<svg id="Layer_1" data-name="Layer 1" xmlns="http://www.w3.org/2000/svg" viewBox="0 0 126.49 128.15"><title>Artboard 16</title><path d="M10.42,36.37V84.48H114V36.37ZM111.18,81.63H13.28V39.22h97.9Z"/><rect x="60.34" y="40.78" width="2.7" height="39.28"/><path d="M28.28,70.17a6.36,6.36,0,0,0,5.54-2.75c1.28-1.83,1.93-4.45,1.93-7.89q0-10.33-7.07-10.33A6.54,6.54,0,0,0,23,52c-1.3,1.85-2,4.52-2,8Q21,70.17,28.28,70.17Zm.2-17.56q2.72,0,2.72,7.06t-2.78,7.08q-2.84,0-2.84-6.86C25.58,55,26.55,52.61,28.48,52.61Z"/><path d="M45,57c-.69,1.3-1.32,2.64-1.89,4a41.87,41.87,0,0,0-1.51,4.25,40.27,40.27,0,0,0-1,4.55h4.67a39.13,39.13,0,0,1,1-4.64,37.56,37.56,0,0,1,1.4-4.24c.54-1.39,1.18-2.8,1.89-4.23s1.53-3,2.43-4.59V49.54H37.79v3.64h9.42C46.44,54.43,45.7,55.7,45,57Z"/><path d="M81.24,59.43a6.34,6.34,0,0,0,5.53-2.74q1.94-2.74,1.93-7.89c0-3.69-.69-6.35-2-8.07H76.35c-.14.16-.27.32-.4.5q-2,2.76-2,8Q74,59.43,81.24,59.43Zm.19-17.56q2.71,0,2.72,7.07c0,4.71-.93,7.07-2.77,7.07s-2.84-2.29-2.84-6.86Q78.54,41.88,81.43,41.87Z"/><path d="M104.05,55.37h-8.6a1.54,1.54,0,0,1,.29-.83,4.91,4.91,0,0,1,.76-.9,10.88,10.88,0,0,1,1.11-.93c.42-.32.86-.64,1.31-1,.67-.46,1.31-.94,1.93-1.43a9.85,9.85,0,0,0,1.65-1.64,7.49,7.49,0,0,0,1.15-2,6.61,6.61,0,0,0,.43-2.48,6.13,6.13,0,0,0-.45-2.39,5,5,0,0,0-.53-1H91.54V44.1a7.57,7.57,0,0,1,5-2.08,3.29,3.29,0,0,1,2.25.67,2.51,2.51,0,0,1,.74,2,3.52,3.52,0,0,1-.23,1.26,4.23,4.23,0,0,1-.69,1.15,8.14,8.14,0,0,1-1.13,1.16c-.45.38-1,.79-1.56,1.21s-1.16.86-1.79,1.37a11,11,0,0,0-1.73,1.74,9.06,9.06,0,0,0-1.32,2.22,7.23,7.23,0,0,0-.52,2.79v1.53h13.49Z"/><path d="M78.71,80.56a21.49,21.49,0,0,1-.17-3q0-7.27,2.89-7.28,2.71,0,2.72,7.07A22.58,22.58,0,0,1,84,80.56h4.47a20.92,20.92,0,0,0,.27-3.31q0-10.34-7.07-10.34A6.55,6.55,0,0,0,76,69.68q-2,2.76-2,8a22.62,22.62,0,0,0,.18,2.84Z"/><path d="M95.67,68.54a18.83,18.83,0,0,1-3.28,1.3V73.6a9,9,0,0,0,1.2-.23,9.49,9.49,0,0,0,1.17-.4,8.83,8.83,0,0,0,1.07-.52,5.38,5.38,0,0,0,.87-.62v8.73h4.45V66.8h-2.7A19.34,19.34,0,0,1,95.67,68.54Z"/></svg>