<svg id="Layer_1" data-name="Layer 1" xmlns="http://www.w3.org/2000/svg" viewBox="0 0 126.49 128.15"><title>Artboard 22</title><path d="M64.19,36.43a1.38,1.38,0,0,0,.56-.12,1.35,1.35,0,0,0,.77-1L66,31.62l3.75,3a1.33,1.33,0,0,0,2.16-1.22c-.2-1.45-.4-3-.55-4.37,1.21,1,2.74,2.33,4.19,3.57a1.33,1.33,0,1,0,1.74-2c-6.45-5.56-6.71-5.64-7-5.75a1.37,1.37,0,0,0-1.29.25c-.54.45-.75.63-.16,5.35l-3-2.41a1.32,1.32,0,0,0-1.33-.21,1.35,1.35,0,0,0-.84,1.06l-.55,3.92c-3.55-2.32-7-4.62-7.62-5.16a1.32,1.32,0,0,0-1-.51,1.34,1.34,0,0,0-1.34,1.33c0,.91,0,1.05,10.32,7.73A1.34,1.34,0,0,0,64.19,36.43Z"/><path d="M96,65.69c-6-3.64-13.94-6.13-22.51-7.2A30.05,30.05,0,0,0,82.3,46a1.26,1.26,0,0,0,.27,0c1.55,0,2.82-1.82,2.82-4.06a4.39,4.39,0,0,0-1.71-3.74c0-13.48-4.56-24.14-19.87-24.14S44,24.75,44,38.25A4.17,4.17,0,0,0,42,42.08c0,2.25,1.26,4.07,2.82,4.07a2,2,0,0,0,.49-.07,29.63,29.63,0,0,0,8.72,12.45c-8.73,1.13-16.72,3.73-22.76,7.52a10.17,10.17,0,0,0-4.82,8.66V92.39h18a16.15,16.15,0,0,1,.81-2.67H29.15v-15a7.53,7.53,0,0,1,3.57-6.4,51.51,51.51,0,0,1,17.79-6.52,14.13,14.13,0,0,0-.1,1.47,13,13,0,1,0,25.94,0,13,13,0,0,0-.12-1.66A53.08,53.08,0,0,1,94.62,68a7.56,7.56,0,0,1,3.66,6.45V89.72H81.39a16.15,16.15,0,0,1,.81,2.67H101v-18A10.25,10.25,0,0,0,96,65.69ZM47.86,45.19a2.7,2.7,0,0,0-2.54-1.78H45a2.4,2.4,0,0,1-.34-1.34,2.17,2.17,0,0,1,.42-1.43,2.67,2.67,0,0,0,1.5-2.4c0-14.66,5.48-21.49,17.19-21.49S81,23.58,81,38.23a2.67,2.67,0,0,0,1.25,2.27A2.09,2.09,0,0,1,82.72,42a2.41,2.41,0,0,1-.36,1.35H82.3a2.66,2.66,0,0,0-2.51,1.77c-3.17,8.87-11.74,15.3-16,15.3S51.09,54.32,47.86,45.19ZM63.38,74a10.53,10.53,0,0,1-10.3-10.73,11.06,11.06,0,0,1,.19-1.92c1.33-.19,2.67-.35,4-.48a13.32,13.32,0,0,0,6.51,2.2,13.19,13.19,0,0,0,6.44-2.23c1.08.09,2.14.21,3.2.34a11.05,11.05,0,0,1,.22,2.09A10.52,10.52,0,0,1,63.38,74Z"/><path d="M63.25,78.13A17.55,17.55,0,1,0,80.79,95.68,17.56,17.56,0,0,0,63.25,78.13Zm0,32.42A14.87,14.87,0,1,1,78.12,95.68,14.89,14.89,0,0,1,63.25,110.55Z"/><rect x="54.85" y="93.91" width="14.87" height="5.27" transform="translate(-51.7 82.17) rotate(-49.99)"/><polygon points="55.33 104.84 58.96 104.56 54.92 101.17 55.33 104.84"/><path d="M68.89,86.78a1.42,1.42,0,0,0-2,.18l-1.31,1.56,4,3.38,1.31-1.56a1.41,1.41,0,0,0-.18-2Z"/></svg>