<svg id="Layer_1" data-name="Layer 1" xmlns="http://www.w3.org/2000/svg" viewBox="0 0 126.49 128.15"><title>Artboard 23</title><path d="M63.15,36a1.38,1.38,0,0,0,.56-.12,1.32,1.32,0,0,0,.77-1L65,31.19l3.77,3.06A1.34,1.34,0,0,0,70.94,33c-.2-1.46-.41-3.07-.56-4.39,1.22,1,2.76,2.34,4.21,3.59a1.35,1.35,0,1,0,1.76-2c-6.49-5.58-6.75-5.67-7.06-5.77a1.39,1.39,0,0,0-1.3.24c-.54.46-.76.64-.16,5.38l-3-2.42a1.31,1.31,0,0,0-1.33-.21,1.35,1.35,0,0,0-.84,1.06l-.56,3.95c-3.56-2.33-7-4.65-7.66-5.19a1.33,1.33,0,0,0-1.05-.52,1.35,1.35,0,0,0-1.35,1.35c0,.91,0,1.05,10.37,7.76A1.3,1.3,0,0,0,63.15,36Z"/><path d="M95.12,65.44c-6.06-3.66-14-6.16-22.62-7.24a30.18,30.18,0,0,0,8.85-12.56,2.51,2.51,0,0,0,.27,0c1.57,0,2.84-1.83,2.84-4.09a4.42,4.42,0,0,0-1.72-3.76c0-13.55-4.59-24.26-20-24.26s-20,10.72-20,24.28a4.23,4.23,0,0,0-1.93,3.86c0,2.26,1.27,4.09,2.83,4.09a2.09,2.09,0,0,0,.5-.08A29.81,29.81,0,0,0,53,58.24C44.19,59.38,36.16,62,30.08,65.8a10.24,10.24,0,0,0-4.84,8.7V92.28h18a16,16,0,0,1,.81-2.68H27.93V74.5a7.58,7.58,0,0,1,3.58-6.43A51.8,51.8,0,0,1,49.4,61.52,14.1,14.1,0,0,0,49.29,63a13,13,0,1,0,26.08,0,13,13,0,0,0-.12-1.67,53.58,53.58,0,0,1,18.49,6.41,7.59,7.59,0,0,1,3.67,6.48V89.6h-17a16,16,0,0,1,.81,2.68H100.1V74.22A10.3,10.3,0,0,0,95.12,65.44ZM46.73,44.83A2.7,2.7,0,0,0,44.18,43l-.28,0a2.45,2.45,0,0,1-.35-1.35A2.11,2.11,0,0,1,44,40.27a2.69,2.69,0,0,0,1.5-2.42c0-14.73,5.51-21.6,17.29-21.6S80,23.11,80.05,37.84a2.66,2.66,0,0,0,1.27,2.27,2.14,2.14,0,0,1,.45,1.48A2.52,2.52,0,0,1,81.42,43h-.07a2.7,2.7,0,0,0-2.53,1.79c-3.18,8.91-11.8,15.37-16,15.37S50,54,46.73,44.83Zm15.6,29A10.58,10.58,0,0,1,52,63a11.17,11.17,0,0,1,.19-1.93c1.34-.19,2.68-.36,4-.48a13.45,13.45,0,0,0,6.55,2.2,13.24,13.24,0,0,0,6.47-2.24c1.08.1,2.15.21,3.21.35a10.39,10.39,0,0,1,.23,2.1A10.58,10.58,0,0,1,62.33,73.78Z"/><path d="M62.2,78A17.64,17.64,0,1,0,79.83,95.58,17.65,17.65,0,0,0,62.2,78Zm0,32.58a14.95,14.95,0,1,1,15-15A15,15,0,0,1,62.2,110.53Z"/><path d="M69.09,91.36H60.68V89.09a1.88,1.88,0,0,1,3.76,0v.26h1.75v-.26a3.64,3.64,0,0,0-7.27,0v2.27H55.6a1.92,1.92,0,0,0-1.92,1.92v9.33a1.92,1.92,0,0,0,1.92,1.91H69.09A1.91,1.91,0,0,0,71,102.61V93.28A1.91,1.91,0,0,0,69.09,91.36Zm-6.23,6.88v3a.52.52,0,0,1-1,0v-3a2.09,2.09,0,1,1,1,0Z"/></svg>