<svg id="Layer_1" data-name="Layer 1" xmlns="http://www.w3.org/2000/svg" viewBox="0 0 126.49 128.15"><title>Artboard 11</title><path d="M90.83,14.1H49.58s-6.17,17.07-6.17,49.44,6.17,49.85,6.17,49.85H90.83A21.59,21.59,0,0,0,112.41,91.8V35.69A21.59,21.59,0,0,0,90.83,14.1Zm18.29,77.7a18.31,18.31,0,0,1-18.29,18.3h-38S46.7,93.41,46.7,63.54,52.87,17.4,52.87,17.4h38a18.3,18.3,0,0,1,18.29,18.29Z"/><path d="M35.37,14.1A21.59,21.59,0,0,0,13.78,35.69V91.8a21.59,21.59,0,0,0,21.59,21.59h6.27s-6.42-17.47-6.42-49.85S41.7,14.1,41.7,14.1Zm1.83,96H35.37A18.31,18.31,0,0,1,17.08,91.8V35.69A18.3,18.3,0,0,1,35.37,17.4h1.82s-5.32,16.51-5.32,46.38S37.2,110.1,37.2,110.1Z"/><path d="M65.82,24.33h-.07A6.8,6.8,0,0,0,59,29.17s-5.45,14.6-5.45,35.27C53.58,84.66,59,99.18,59,99.18A6.81,6.81,0,0,0,65.71,104c4.49,0,7.79-3.82,6.71-7.78a124.27,124.27,0,0,1-4.64-32c0-15,4.77-32.11,4.77-32.11C73.56,28.1,70.27,24.33,65.82,24.33ZM69,31.23c-.2.72-4.88,17.66-4.88,32.92A125.84,125.84,0,0,0,68.92,97a2.78,2.78,0,0,1-.62,2.52,3.4,3.4,0,0,1-2.59,1.15,3.23,3.23,0,0,1-3.19-2.28l0-.14,0-.14A107.32,107.32,0,0,1,57.2,64.44a109,109,0,0,1,5.26-34.22l0-.14,0-.16a3.22,3.22,0,0,1,3.2-2.29h.07a3.39,3.39,0,0,1,2.57,1.13A2.7,2.7,0,0,1,69,31.23Z"/><path d="M83.58,35.6h0c-2.66,0-5,1.43-5.58,3.46A69.52,69.52,0,0,0,73.43,64.3a68.62,68.62,0,0,0,4.49,24.86c.63,2,2.93,3.43,5.57,3.43h0c3.73,0,6.46-2.73,5.57-5.56A77.89,77.89,0,0,1,85.21,64.1c0-10.76,4-23,4-23C90,38.3,87.27,35.6,83.58,35.6Zm2.67,4.94c-.17.51-4,12.63-4,23.56a78.81,78.81,0,0,0,4,23.51,1.8,1.8,0,0,1-.51,1.81,3,3,0,0,1-2.15.82,2.68,2.68,0,0,1-2.65-1.63l0-.1,0-.1A67.48,67.48,0,0,1,76.43,64.3a68.48,68.48,0,0,1,4.36-24.48l0-.11,0-.11A2.67,2.67,0,0,1,83.53,38h0a3,3,0,0,1,2.14.81A1.76,1.76,0,0,1,86.25,40.54Z"/></svg>