<svg id="Layer_1" data-name="Layer 1" xmlns="http://www.w3.org/2000/svg" viewBox="0 0 126.49 128.15"><title>Artboard 2</title><path d="M108.34,51.51A46.52,46.52,0,1,1,83.08,21.58a22.25,22.25,0,0,1,2.26-3.34A50.55,50.55,0,1,0,112,49.85,21.34,21.34,0,0,1,108.34,51.51Z"/><polygon points="80.93 35.46 98.93 35.46 98.93 45.5 114.77 33.95 98.93 21.35 98.93 31.43 80.93 31.43 80.93 35.46"/><polygon points="79.49 42.4 62.59 60.43 45.95 42.66 42.91 45.5 59.75 63.47 43.43 80.88 46.46 83.72 62.59 66.5 78.97 83.98 82 81.14 65.44 63.47 82.52 45.24 79.49 42.4"/></svg>