<svg id="Layer_1" data-name="Layer 1" xmlns="http://www.w3.org/2000/svg" viewBox="0 0 126.49 128.15"><title>Artboard 10</title><path d="M83.11,14.3H41.56L14,43.05v42.8l27.53,28H83.11l28.59-28V43.05Zm25.48,70.25L81.84,110.76h-39L17.14,84.58V44.3L42.89,17.41H81.82l26.77,26.92Z"/><path d="M76.44,54.47l-1,2.69V39.38a5.65,5.65,0,0,0-5.52-5.74h-.44a5.28,5.28,0,0,0-2.61.71,6.3,6.3,0,0,0-12.22,0,5.53,5.53,0,0,0-2.84-.81,5.86,5.86,0,0,0-5.74,6v2.63a5,5,0,0,0-2.35-.62c-3,0-5.42,2.71-5.42,6V77h0a21.65,21.65,0,0,0,5.68,15.18,20.76,20.76,0,0,0,15.21,6.41h.08a22.54,22.54,0,0,0,16-6.57,21.15,21.15,0,0,0,6.2-13c.08-.63,1.41-10,2.07-12.46A54.35,54.35,0,0,1,87,59a5.65,5.65,0,0,0-2.82-7.45l-.4-.17A5.64,5.64,0,0,0,76.44,54.47ZM83,54.39a2.53,2.53,0,0,1,1.18,3.38,53.92,53.92,0,0,0-3.07,7.16c-.8,2.77-2.7,13.92-2.7,13.92h0l0,0a18.18,18.18,0,0,1-5.29,10.94,19.5,19.5,0,0,1-13.86,5.66h-.07a17.69,17.69,0,0,1-13-5.44,18.65,18.65,0,0,1-4.83-13V47.53c0-1.62,1-2.94,2.32-2.94S46,45.91,46,47.53V61.18h3.13V39.48a2.65,2.65,0,1,1,5.28,0V59.72h3.1V35.82a3.21,3.21,0,0,1,6.41,0v3.47s0,.06,0,.09V61.23H67V39.29a2.54,2.54,0,0,1,2.42-2.55h.44a2.54,2.54,0,0,1,2.41,2.64V65.16H75.4l3.89-9.47a2.54,2.54,0,0,1,3.27-1.47Z"/></svg>