<svg id="Layer_1" data-name="Layer 1" xmlns="http://www.w3.org/2000/svg" viewBox="0 0 126.49 128.15"><title>Artboard 15</title><path d="M89.4,38.52A6.11,6.11,0,0,0,85,37.13a5.64,5.64,0,0,0-4.76,3.13C77.42,45.38,75.34,52.87,73.91,63A111.47,111.47,0,0,1,71.2,51.7c-1-5.26-4.16-5.85-6-5.71-2.16.14-3.93,1.49-5.25,4L50.38,68.25c-1.55-6.88-3-14.85-4.32-23.75-.48-3.55-2.79-5.44-6.27-5.16a5.79,5.79,0,0,0-4.47,2.26,6,6,0,0,0-1.14,4.73c3.11,19.8,6.07,33.37,8.8,40.39,1.34,3.21,3.09,4.76,5.26,4.61,2.89-.21,5.74-3.3,9.27-10.07,1.33-2.73,3.28-6.65,5.82-11.68C66.12,77.91,69.77,84.42,74.2,89a6.94,6.94,0,0,0,5,2.44h.41a5,5,0,0,0,4.06-2.74,7.86,7.86,0,0,0,.81-4.32c-.31-4.75.18-11.39,1.46-19.75,1.35-8.73,3-15,5-18.53a6.25,6.25,0,0,0,.71-3.41A5.7,5.7,0,0,0,89.4,38.52Zm-1.26,6C86,48.47,84.28,54.87,82.85,64.09,81.53,72.68,81,79.55,81.36,84.55a4.68,4.68,0,0,1-.45,2.6,1.81,1.81,0,0,1-1.53,1.08,4,4,0,0,1-2.91-1.48C71.75,81.93,68,74.59,65.2,65l-1.1-3.86-1.82,3.58c-3.42,6.74-6,11.86-7.59,15.17-3.84,7.37-5.95,8.28-6.68,8.34h0c-.6,0-1.37-1-2.06-2.64-2.64-6.77-5.53-20.13-8.61-39.7a2.91,2.91,0,0,1,.53-2.32l0,0a2.66,2.66,0,0,1,2.18-1c1.86-.15,2.64.52,2.9,2.46,1.61,10.84,3.41,20.31,5.35,28.15l1,4L62.76,51.46c1.17-2.22,2.3-2.3,2.67-2.32.66,0,2-.14,2.66,3.14a100.66,100.66,0,0,0,5.1,18.33l2.38,6,.66-6.43c1.34-13.1,3.61-22.66,6.78-28.42a2.5,2.5,0,0,1,2.22-1.5,3,3,0,0,1,2.21.73,2.56,2.56,0,0,1,1,1.85A3.1,3.1,0,0,1,88.14,44.54Z"/><path d="M63.05,13.75a49.83,49.83,0,1,0,49.83,49.83A49.83,49.83,0,0,0,63.05,13.75Zm0,96.5a46.67,46.67,0,1,1,46.67-46.67A46.72,46.72,0,0,1,63.05,110.25Z"/></svg>