<svg id="Layer_1" data-name="Layer 1" xmlns="http://www.w3.org/2000/svg" viewBox="0 0 126.49 128.15"><title>Artboard 18</title><polygon points="62.49 63.72 33.67 63.72 33.67 67.64 62.49 67.64 62.49 67.66 66.41 67.66 66.41 26.72 62.49 26.72 62.49 63.72"/><path d="M62.33,14.09a49.43,49.43,0,0,0-5.73,98.57c-.07-1-.12-2-.12-3,0-.12,0-.24,0-.36a46.14,46.14,0,1,1,52.34-45.74,44.3,44.3,0,0,1-.24,4.63c1.1.25,2.19.54,3.25.87A49.34,49.34,0,0,0,62.33,14.09Z"/><path d="M91.38,91.26V83.12a16.38,16.38,0,0,1,6.77,2.23v-5.8a16,16,0,0,0-6.77-1.46V74.18H88.24v4a10.06,10.06,0,0,0-6.32,2.76,7.81,7.81,0,0,0-2.38,5.75A8,8,0,0,0,81.38,92q1.83,2.17,6.86,4v7.82a16.82,16.82,0,0,1-4.4-1A12.76,12.76,0,0,1,80.12,101v6a17.65,17.65,0,0,0,8.12,2v4.53h3.14v-4.66a10.88,10.88,0,0,0,6.51-2.66,7.57,7.57,0,0,0,2.27-5.74,7.44,7.44,0,0,0-2-5.28A17.29,17.29,0,0,0,91.38,91.26ZM88.24,90q-3-1.48-3-3.7,0-2.58,3-3.11Zm3.14,13.77V97.28c2.05.89,3.07,2,3.07,3.44Q94.45,103.32,91.38,103.79Z"/></svg>