<svg id="Layer_1" data-name="Layer 1" xmlns="http://www.w3.org/2000/svg" viewBox="0 0 126.49 128.15"><title>Artboard 20</title><path d="M9.94,91.16l49,22.06V56.06L9.94,34Zm3.19-52.23,42.63,19.2v50.15L13.13,89.09Z"/><path d="M65.54,55.92v57.15l49-22.06V33.85Zm45.83,33L68.73,108.14V58l42.64-19.19Z"/><path d="M63.76,13.57,11.83,29.64l50.34,21,50.05-20.83ZM21.19,30.08,63.73,16.92l39.41,13.19-41,17.06Z"/><ellipse cx="63.97" cy="29.89" rx="6.86" ry="2.81"/><path d="M24.94,56.37a5.64,5.64,0,0,0,0,11.23,5.64,5.64,0,0,0,0-11.23Z"/><ellipse cx="39.29" cy="84.76" rx="5.15" ry="5.61"/><ellipse cx="86.67" cy="86.98" rx="4.59" ry="5.61"/><ellipse cx="86.67" cy="66.08" rx="4.59" ry="5.61"/><path d="M100.88,85c2.36,0,4.28-2.27,4.28-5.07s-1.92-5.07-4.28-5.07S96.59,77.17,96.59,80,98.51,85,100.88,85Z"/><path d="M100.88,65.77c2.36,0,4.28-2.27,4.28-5.07s-1.92-5.07-4.28-5.07-4.29,2.27-4.29,5.07S98.51,65.77,100.88,65.77Z"/></svg>