<svg id="Layer_1" data-name="Layer 1" xmlns="http://www.w3.org/2000/svg" viewBox="0 0 126.49 128.15"><title>Artboard 19</title><path d="M96.15,14.09a14,14,0,0,0-13.3,18.63L47,51.27l.12.22a18.29,18.29,0,1,0,1.56,24.45L71.41,94.65a12.24,12.24,0,1,0,2.07-2.33l-23.05-19a18.22,18.22,0,0,0-1.37-19.61L84.19,35.54a14.07,14.07,0,1,0,12-21.45ZM81.44,92.43a9,9,0,1,1-9,9A9,9,0,0,1,81.44,92.43ZM34.37,79.75A15.17,15.17,0,1,1,49.54,64.58,15.19,15.19,0,0,1,34.37,79.75ZM96.15,39.12a11,11,0,1,1,11-11A11,11,0,0,1,96.15,39.12Z"/></svg>