<svg id="Layer_1" data-name="Layer 1" xmlns="http://www.w3.org/2000/svg" viewBox="0 0 126.49 128.15"><title>Artboard 27 copy 2</title><path d="M74.54,79.64h-1a3.7,3.7,0,0,0-1.39.27,3.52,3.52,0,0,0-2.91-2.15H68.13a4.34,4.34,0,0,0-1,.14,3.29,3.29,0,0,0-3.36-2.79H62.63a3.62,3.62,0,0,0-.94.14v-6c0-2.41-1.52-4.3-3.45-4.3H57.11c-1.93,0-3.45,1.89-3.45,4.3V86.68l-1.53-2.53a5,5,0,0,0-2.21-2.06,3.21,3.21,0,0,0-2.93.06l-1,.56c-1.67,1-2,3.36-.84,5.45L56.63,108H76v-.12l.52,0L77.76,83.6C77.76,82.24,76.51,79.64,74.54,79.64Zm-.32,25.8H58L47.34,86.91c-.55-1-.41-1.85-.07-2l1-.56a.82.82,0,0,1,.66,0A2.44,2.44,0,0,1,50,85.42l3.68,6.75h2.49V69.23c0-1.1.57-1.8,1-1.8h1.13c.39,0,.95.7.95,1.8v23h2.53v-14c0-.3.38-.63.91-.63h1.11c.53,0,.91.33.91.63V92.59l2.69,0V82c0-.1.21-1.72,1.08-1.72h.46a1.84,1.84,0,0,1,1.49,1.6,2.24,2.24,0,0,0-.06.52v11h2.39V83.24c0-.07.06-1.11.83-1.11h1a1.49,1.49,0,0,1,.86,1.41Z"/><path d="M100.93,21.94H22.74A12.43,12.43,0,0,0,10.32,34.37V78.65A12.43,12.43,0,0,0,22.74,91.08H44.52L42.6,87.72H22.74a9.05,9.05,0,0,1-7.23-3.62l33.2-23.21a15.22,15.22,0,0,1-1.22-3.24L14,81.06a8.77,8.77,0,0,1-.34-2.41V34.37a9.16,9.16,0,0,1,.21-1.91L53.45,60.12a14.16,14.16,0,0,0,16,.19L110,33.43a7.3,7.3,0,0,1,0,.94V78.65a9.36,9.36,0,0,1-.1,1.3L77,58.11a15.17,15.17,0,0,1-1.29,3.17l33,21.94a9.07,9.07,0,0,1-7.83,4.5H79.26L79,91.08h21.91a12.44,12.44,0,0,0,12.43-12.43V34.37A12.44,12.44,0,0,0,100.93,21.94ZM67.64,57.52a10.81,10.81,0,0,1-12.27-.15L15.22,29.3a9.08,9.08,0,0,1,7.52-4h78.19a9.09,9.09,0,0,1,8,4.79Z"/></svg>