<svg id="Layer_1" data-name="Layer 1" xmlns="http://www.w3.org/2000/svg" viewBox="0 0 126.49 128.15"><title>Artboard 9</title><path d="M78.83,72.19H77.46a4.85,4.85,0,0,0-1.86.36c-.78-1.49-2.13-2.87-3.88-2.87H70.27a5.45,5.45,0,0,0-1.36.19,4.4,4.4,0,0,0-4.49-3.73H63a4.88,4.88,0,0,0-1.27.19v-8c0-3.22-2-5.74-4.6-5.74h-1.5c-2.57,0-4.6,2.52-4.6,5.74V81.58l-2-3.38A6.64,6.64,0,0,0,46,75.45a4.27,4.27,0,0,0-3.91.08l-1.3.75c-2.23,1.29-2.72,4.48-1.12,7.26L54.94,110H80.72v-.15l.69,0,1.7-32.46C83.11,75.66,81.45,72.19,78.83,72.19Zm-.44,34.4H56.79L42.55,81.88c-.74-1.27-.55-2.46-.1-2.72l1.3-.75a1,1,0,0,1,.88.07,3.32,3.32,0,0,1,1.45,1.41l4.9,9h3.33V58.31c0-1.48.75-2.42,1.27-2.42h1.5c.52,0,1.28.94,1.28,2.42V89h3.37V70.3c0-.4.5-.84,1.22-.84h1.47c.71,0,1.21.44,1.21.84V89.45l3.59,0V75.28c0-.12.27-2.28,1.44-2.28l.61,0a2.44,2.44,0,0,1,2,2.14,3.1,3.1,0,0,0-.08.69v14.7h3.19l0-13.38V77c0-.1.08-1.48,1.12-1.48h1.32a2,2,0,0,1,1.15,1.87Z"/><path d="M64.09,30.64a20.66,20.66,0,0,0-15,34.86V60a17.35,17.35,0,1,1,23.1,6.71l3.46,1.81A20.68,20.68,0,0,0,64.09,30.64Z"/><path d="M62.79,41.49V50H54.26V51.2a6.48,6.48,0,0,1,2.12-.39,6.61,6.61,0,0,1,5,2.3h1.45v8h3.09v-8h8V50h-8V41.49Z"/><path d="M102.86,16.31H24A11.18,11.18,0,0,0,12.83,27.49V72.9A11.17,11.17,0,0,0,24,84.07H38.65l-1.76-3.32H24a7.57,7.57,0,0,1-2.35-.4l19.79-18a25.58,25.58,0,0,1-1.33-3L18.83,78.76a7.8,7.8,0,0,1-2.68-5.86v-45L39.33,43.77a24.71,24.71,0,0,1,1-3.05L16.74,24.52A7.86,7.86,0,0,1,24,19.63h78.85a7.84,7.84,0,0,1,7.31,5.06L87.44,40.29a27.76,27.76,0,0,1,1,3l22.22-15.26V72.9a7.82,7.82,0,0,1-1.29,4.29L88.31,58A25.42,25.42,0,0,1,87.1,61L107.25,79.4a7.8,7.8,0,0,1-4.39,1.35h-18v3.32h18A11.17,11.17,0,0,0,114,72.9V27.49A11.18,11.18,0,0,0,102.86,16.31Z"/></svg>