<svg id="Capa_1" enable-background="new 0 0 512 512" height="512" viewBox="0 0 512 512" width="512" xmlns="http://www.w3.org/2000/svg"><path d="m482.338 468.111h-452.676c-12.245 0-22.171-9.926-22.171-22.171v-379.88c0-12.245 9.926-22.171 22.171-22.171h452.676c12.245 0 22.171 9.926 22.171 22.171v379.88c0 12.245-9.926 22.171-22.171 22.171z" fill="#e2dee2"/><path d="m504.506 66.058v379.884c0 12.239-9.928 22.168-22.168 22.168h-26.584c12.25 0 22.178-9.928 22.178-22.168v-379.884c0-12.239-9.928-22.168-22.178-22.168h26.584c12.24.001 22.168 9.929 22.168 22.168z" fill="#cbc4cc"/><path d="m482.338 43.889h-452.676c-12.245 0-22.171 9.926-22.171 22.171v57.296h497.018v-57.296c0-12.245-9.926-22.171-22.171-22.171z" fill="#7a6d79"/><path d="m504.506 66.058v57.298h-26.574v-57.298c0-12.239-9.918-22.168-22.168-22.168h26.574c12.24.001 22.168 9.929 22.168 22.168z" fill="#685e68"/><path d="m360.296 248.818c-.644-14.4-2.315-29.093-5.572-43.226-.756-3.281-3.41-5.781-6.72-6.393-41.974-7.765-76.186-25.898-87.775-32.574-2.621-1.51-5.838-1.51-8.458 0-11.588 6.676-45.801 24.81-87.775 32.574-3.31.612-5.964 3.113-6.72 6.393-3.257 14.133-4.928 28.827-5.572 43.226-.624 13.946-.128 28.08 2.577 41.81 7.431 37.72 26.658 79.114 59.188 101.579 13.573 9.373 29.888 15.278 37.786 17.803 3.088.987 6.405.987 9.493 0 9.443-3.02 18.718-6.795 27.441-11.517 23.472-12.703 40.025-33.656 52.181-57.257 8.197-15.915 13.893-33.06 17.35-50.609 2.704-13.729 3.201-27.863 2.576-41.809z" fill="#91deb6"/><path d="m357.72 290.626c-3.456 17.548-9.158 34.696-17.348 50.616-12.154 23.6-28.713 44.553-52.184 57.257-8.729 4.714-17.997 8.489-27.445 11.515-3.086.989-6.402.989-9.488 0-5.343-1.708-14.532-4.964-24.129-9.788 2.577.489 5.243.33 7.77-.479 9.598-3.066 19.026-6.901 27.894-11.705 23.859-12.913 40.678-34.216 53.042-58.206 8.329-16.169 14.122-33.597 17.638-51.444 2.746-13.952 3.246-28.324 2.617-42.496-.609-13.453-2.087-27.145-4.894-40.428 5.433 1.408 11.046 2.667 16.809 3.735 3.316.609 5.962 3.106 6.721 6.392 3.256 14.132 4.924 28.823 5.573 43.225.62 13.941.131 28.073-2.576 41.806z" fill="#6ed5a1"/><path d="m318.417 247.727c-5.813-5.813-15.237-5.813-21.05 0l-51.131 50.167c-1.696 1.696-4.445 1.696-6.141 0l-17.86-17.86c-5.813-5.813-15.237-5.813-21.05 0l-.024.024c-5.803 5.803-5.814 15.209-.024 21.026l32.993 32.955c4.999 4.994 13.092 5.014 18.116.046l12.087-11.952-.118-.119 54.201-53.237c5.813-5.813 5.813-15.237.001-21.05z" fill="#fdb441"/><path d="m482.338 36.398h-452.676c-16.356 0-29.662 13.307-29.662 29.662v57.297 322.583c0 16.355 13.306 29.661 29.662 29.661h452.675c16.356 0 29.662-13.306 29.662-29.661v-51.783c0-4.137-3.353-7.49-7.49-7.49s-7.49 3.354-7.49 7.49v51.783c0 8.095-6.586 14.68-14.681 14.68h-452.676c-8.095 0-14.681-6.586-14.681-14.68v-315.093h482.038v229.353c0 4.137 3.353 7.49 7.49 7.49s7.49-3.354 7.49-7.49v-236.844-57.296c.001-16.355-13.305-29.662-29.661-29.662zm14.681 79.468h-482.038v-49.806c0-8.095 6.586-14.68 14.681-14.68h452.675c8.095 0 14.681 6.586 14.681 14.68v49.806z"/><ellipse cx="57.508" cy="83.623" rx="10.522" ry="10.522" transform="matrix(.973 -.23 .23 .973 -17.674 15.45)"/><circle cx="101.249" cy="83.623" r="10.522"/><path d="m144.99 73.1c-5.811 0-10.522 4.711-10.522 10.522s4.711 10.522 10.522 10.522 10.522-4.711 10.522-10.522-4.711-10.522-10.522-10.522z"/><path d="m209.213 398.371c14.218 9.82 31.013 15.977 39.76 18.774 2.299.735 4.664 1.103 7.028 1.103s4.729-.368 7.027-1.103c10.439-3.338 20.103-7.397 28.725-12.063 22.539-12.198 40.619-31.96 55.275-60.415 8.252-16.021 14.322-33.716 18.041-52.591 2.556-12.976 3.443-27.235 2.71-43.593-.722-16.137-2.659-31.134-5.756-44.575-1.425-6.176-6.392-10.916-12.657-12.075-40.379-7.469-73.174-24.657-85.398-31.699-4.916-2.832-11.022-2.831-15.936 0-6.771 3.9-20.942 11.516-39.786 18.704-3.865 1.474-5.803 5.803-4.329 9.668 1.474 3.866 5.807 5.802 9.668 4.329 19.81-7.556 34.77-15.598 41.925-19.72.305-.176.672-.177.979 0 12.895 7.429 47.492 25.558 90.152 33.45.394.073.701.352.784.71 2.894 12.557 4.706 26.647 5.389 41.879.678 15.147-.122 28.24-2.443 40.027-3.447 17.495-9.053 33.855-16.662 48.627-13.23 25.687-29.286 43.383-49.087 54.099-7.805 4.224-16.605 7.915-26.158 10.969-1.611.516-3.316.516-4.929 0-7.955-2.544-23.184-8.113-35.81-16.832-26.826-18.525-47.797-54.735-56.096-96.864-2.322-11.786-3.122-24.879-2.444-40.027.683-15.233 2.495-29.323 5.388-41.877.084-.36.391-.639.785-.712 4.591-.849 9.284-1.856 13.948-2.995 4.019-.98 6.482-5.033 5.502-9.052-.98-4.018-5.036-6.484-9.052-5.501-4.392 1.071-8.807 2.019-13.123 2.817-6.264 1.159-11.232 5.899-12.658 12.077-3.096 13.439-5.033 28.436-5.755 44.573-.732 16.359.154 30.618 2.711 43.593 4.111 20.869 11.361 41.156 20.964 58.664 11.188 20.398 25.089 36.424 41.318 47.631z"/><path d="m300.553 275.823c-2.951 2.899-2.993 7.641-.095 10.592 2.901 2.953 7.644 2.993 10.593.095l12.662-12.438c4.226-4.226 6.553-9.845 6.553-15.822 0-5.976-2.327-11.595-6.554-15.822-8.721-8.722-22.917-8.724-31.592-.05l-48.934 48.012-15.656-15.655c-8.725-8.723-22.919-8.724-31.666.023-8.705 8.704-8.721 22.883-.021 31.622l32.992 32.955c3.956 3.953 9.165 5.93 14.376 5.93 5.174 0 10.351-1.952 14.301-5.857l12.087-11.952c.374-.37.705-.775.99-1.207l15.771-15.49c2.951-2.899 2.993-7.641.094-10.592-2.901-2.952-7.641-2.992-10.593-.095l-16.897 16.597c-.387.38-.729.799-1.021 1.246l-10.964 10.842c-2.089 2.065-5.478 2.058-7.558-.019l-32.978-32.94c-2.869-2.883-2.864-7.569.036-10.469 2.881-2.883 7.573-2.882 10.457 0l17.859 17.859c2.234 2.236 5.206 3.468 8.368 3.468 3.16 0 6.132-1.231 8.317-3.416l51.181-50.217c2.883-2.883 7.575-2.883 10.457 0 2.883 2.883 2.883 7.574.048 10.41z"/><path d="m435.37 244.901h-39.693c-4.137 0-7.49 3.354-7.49 7.49 0 4.137 3.353 7.49 7.49 7.49h39.693c4.137 0 7.49-3.354 7.49-7.49.001-4.136-3.353-7.49-7.49-7.49z"/><path d="m76.63 259.882h35.142c4.137 0 7.49-3.354 7.49-7.49 0-4.137-3.353-7.49-7.49-7.49h-35.142c-4.137 0-7.49 3.354-7.49 7.49-.001 4.136 3.353 7.49 7.49 7.49z"/><path d="m435.37 281.799h-49.741c-4.137 0-7.491 3.354-7.491 7.49 0 4.137 3.353 7.49 7.491 7.49h49.741c4.137 0 7.49-3.354 7.49-7.49.001-4.136-3.353-7.49-7.49-7.49z"/><path d="m76.63 296.78h44.717c4.137 0 7.49-3.354 7.49-7.49 0-4.137-3.353-7.49-7.49-7.49h-44.717c-4.137 0-7.49 3.354-7.49 7.49-.001 4.137 3.353 7.49 7.49 7.49z"/><path d="m76.63 220.648h49.741c4.137 0 7.491-3.354 7.491-7.49s-3.353-7.49-7.491-7.49h-49.741c-4.137 0-7.49 3.354-7.49 7.49s3.353 7.49 7.49 7.49z"/><path d="m435.37 205.667h-49.741c-4.137 0-7.491 3.354-7.491 7.49s3.353 7.49 7.491 7.49h49.741c4.137 0 7.49-3.354 7.49-7.49s-3.353-7.49-7.49-7.49z"/><path d="m435.37 318.698h-60.795c-4.137 0-7.49 3.354-7.49 7.49 0 4.137 3.353 7.49 7.49 7.49h60.795c4.137 0 7.49-3.354 7.49-7.49.001-4.137-3.353-7.49-7.49-7.49z"/><path d="m76.63 333.678h49.741c4.137 0 7.491-3.354 7.491-7.49 0-4.137-3.353-7.49-7.491-7.49h-49.741c-4.137 0-7.49 3.354-7.49 7.49-.001 4.137 3.353 7.49 7.49 7.49z"/><path d="m76.63 370.576h74.833c4.137 0 7.49-3.354 7.49-7.49 0-4.137-3.353-7.49-7.49-7.49h-74.833c-4.137 0-7.49 3.354-7.49 7.49-.001 4.137 3.353 7.49 7.49 7.49z"/><path d="m360.538 370.576h74.833c4.137 0 7.49-3.354 7.49-7.49 0-4.137-3.353-7.49-7.49-7.49h-74.833c-4.137 0-7.49 3.354-7.49 7.49-.001 4.137 3.352 7.49 7.49 7.49z"/></svg>