<svg height="512pt" viewBox="-17 0 512 512" width="512pt" xmlns="http://www.w3.org/2000/svg"><path d="m7.5 504.5v-173.679688l91.875-91.875c3.902344-3.902343 10.234375-3.902343 14.140625 0l81.179687 81.179688c3.902344 3.90625 10.234376 3.90625 14.140626 0l142.335937-142.335938c3.964844-3.964843 10.410156-3.894531 14.289063.152344l65.070312 67.886719c1.785156 1.863281 2.78125 4.34375 2.78125 6.921875v251.75zm0 0" fill="#00d2b4"/><path d="m7.5 286.121094 93.226562-93.226563c3.902344-3.90625 10.234376-3.90625 14.140626 0l81.34375 81.34375c3.902343 3.90625 10.234374 3.90625 14.140624 0l141.800782-141.800781c3.929687-3.929688 10.304687-3.902344 14.199218.054688l56.269532 57.1875c3.136718 3.1875 8.5625.96875 8.5625-3.507813v-132.347656c0-5.523438-4.476563-10-10-10h-413.683594zm0 0" fill="#00d2f9"/><path d="m431.1875 53.820312v132.351563c0 4.476563-5.429688 6.699219-8.570312 3.507813l-16.296876-16.570313v-119.289063c0-5.519531-4.472656-10-10-10h24.867188c5.523438 0 10 4.480469 10 10zm0 0" fill="#00abef"/><path d="m433.320312 252.75v251.75h-24.871093v-242.75c0-2.578125-.988281-5.058594-2.78125-6.921875l-64.367188-67.15625 9.867188-9.882813c3.972656-3.960937 10.410156-3.898437 14.292969.152344l65.066406 67.886719c1.792968 1.863281 2.792968 4.34375 2.792968 6.921875zm0 0" fill="#00b7a0"/><path d="m0 384c0 4.140625 3.355469 7.5 7.5 7.5s7.5-3.359375 7.5-7.5v-50.070312l89.679688-89.679688c.972656-.976562 2.558593-.976562 3.535156 0l81.175781 81.179688c6.824219 6.820312 17.925781 6.820312 24.75 0l42.09375-42.097657c2.929687-2.929687 2.929687-7.675781 0-10.605469-2.929687-2.929687-7.675781-2.929687-10.605469 0l-42.09375 42.09375c-.976562.976563-2.5625.976563-3.535156 0l-81.179688-81.175781c-6.824218-6.824219-17.925781-6.824219-24.75 0l-79.070312 79.070313v-23.488282l91.027344-91.027343c.636718-.636719 1.382812-.730469 1.769531-.730469s1.132813.09375 1.769531.730469l81.339844 81.34375c3.308594 3.304687 7.703125 5.125 12.375 5.125 4.675781 0 9.070312-1.820313 12.375-5.125l141.800781-141.800781c.636719-.636719 1.378907-.730469 1.769531-.730469h.007813c.390625 0 1.136719.097656 1.773437.746093l56.269532 57.183594c3.574218 3.632813 8.929687 4.734375 13.648437 2.800782 4.714844-1.929688 7.761719-6.46875 7.761719-11.566407v-67.910156c0-4.144531-3.359375-7.5-7.5-7.5-4.144531 0-7.5 3.355469-7.5 7.5v61.804687l-51.988281-52.832031c-3.296875-3.351562-7.703125-5.207031-12.402344-5.226562-4.671875-.023438-9.121094 1.800781-12.445313 5.125l-141.800781 141.800781c-.976562.972656-2.5625.972656-3.535156 0l-81.339844-81.34375c-3.308593-3.304688-7.703125-5.125-12.375-5.125-4.675781 0-9.070312 1.820312-12.375 5.125l-80.421875 80.421875v-216.691406h406.183594c1.378906 0 2.5 1.121093 2.5 2.5v29.914062c0 4.144531 3.359375 7.5 7.5 7.5 4.144531 0 7.5-3.355469 7.5-7.5v-29.914062c0-9.648438-7.851562-17.5-17.5-17.5h-406.1875v-21.324219h11c4.144531 0 7.5-3.359375 7.5-7.5s-3.355469-7.5-7.5-7.5h-18.5c-4.144531 0-7.5 3.359375-7.5 7.5zm0 0"/><path d="m469.777344 478.5c-4.140625 0-7.5 3.359375-7.5 7.5v11h-21.460938v-244.25c0-4.535156-1.730468-8.835938-4.867187-12.109375l-65.070313-67.886719c-3.28125-3.425781-7.703125-5.339844-12.449218-5.390625-4.753907-.09375-9.203126 1.769531-12.5625 5.125l-75.828126 75.828125c-2.929687 2.929688-2.929687 7.675782 0 10.605469 2.929688 2.929687 7.679688 2.929687 10.605469 0l75.832031-75.828125c.644532-.648438 1.425782-.734375 1.792969-.734375.390625.003906 1.144531.113281 1.777344.773437l65.070313 67.886719c.449218.46875.695312 1.082031.695312 1.730469v244.25h-410.8125v-78c0-4.140625-3.355469-7.5-7.5-7.5s-7.5 3.359375-7.5 7.5v85.5c0 4.140625 3.355469 7.5 7.5 7.5h462.277344c4.144531 0 7.5-3.359375 7.5-7.5v-18.5c0-4.140625-3.355469-7.5-7.5-7.5zm0 0"/><path d="m58.285156 434.96875h39.898438c4.140625 0 7.5-3.359375 7.5-7.5 0-4.144531-3.359375-7.5-7.5-7.5h-39.898438c-4.144531 0-7.5 3.355469-7.5 7.5 0 4.140625 3.359375 7.5 7.5 7.5zm0 0"/><path d="m58.285156 409.292969c4.144532 0 7.5-3.355469 7.5-7.5v-.113281c0-4.144532-3.355468-7.5-7.5-7.5-4.144531 0-7.5 3.355468-7.5 7.5v.113281c0 4.144531 3.359375 7.5 7.5 7.5zm0 0"/><path d="m58.285156 462.640625h79.355469c4.140625 0 7.5-3.359375 7.5-7.5s-3.359375-7.5-7.5-7.5h-79.355469c-4.144531 0-7.5 3.359375-7.5 7.5s3.359375 7.5 7.5 7.5zm0 0"/></svg>