<svg enable-background="new 0 0 512 512" height="512" viewBox="0 0 512 512" width="512" xmlns="http://www.w3.org/2000/svg"><path d="m240.841 179.777c3.627-136.481-53.079-166.749-64.658-170.836-11.525-4.068-44.993 2.072-44.993 79.419 0 34.407 10.121 66.443 21.358 91.417z" fill="#e6e2e6"/><path d="m152.548 179.777h88.293c.165-6.22.202-12.213.127-18h-95.775c2.325 6.325 4.81 12.345 7.355 18z" fill="#d8d1d7"/><path d="m265.31 179.777c-3.627-136.481 53.079-166.75 64.658-170.836 11.525-4.068 44.993 2.072 44.993 79.419 0 34.407-10.121 66.443-21.358 91.417z" fill="#e6e2e6"/><path d="m265.183 161.777c-.075 5.786-.038 11.78.127 18h88.293c2.544-5.655 5.03-11.675 7.355-18z" fill="#d8d1d7"/><path d="m178.02 179.777h41.548c1.284-77.215-27.585-126.135-41.95-129.567-9.571-2.288-22.763 3.054-18.861 49.88 2.16 25.902 11.168 56.448 19.263 79.687z" fill="#ff656b"/><path d="m178.02 179.777h41.548c.103-6.185.01-12.187-.251-18h-47.226c1.957 6.313 3.97 12.374 5.929 18z" fill="#ff4351"/><path d="m328.13 179.777h-41.548c-1.284-77.215 27.585-126.135 41.95-129.567 9.571-2.288 22.763 3.054 18.861 49.88-2.159 25.902-11.168 56.448-19.263 79.687z" fill="#ff656b"/><path d="m286.833 161.777c-.261 5.813-.354 11.815-.251 18h41.548c1.96-5.626 3.972-11.687 5.929-18z" fill="#ff4351"/><path d="m401.123 214.341h-296.096c-9.544 0-17.282-7.737-17.282-17.282s7.737-17.282 17.282-17.282h296.096c9.544 0 17.282 7.737 17.282 17.282s-7.737 17.282-17.282 17.282z" fill="#8c808a"/><path d="m401.123 196.341h-296.095c-6.243 0-11.696-3.321-14.733-8.282-1.606 2.624-2.549 5.698-2.549 9 0 9.544 7.737 17.282 17.282 17.282h296.096c9.544 0 17.282-7.737 17.282-17.282 0-3.302-.943-6.376-2.549-9-3.038 4.961-8.491 8.282-14.734 8.282z" fill="#7b7179"/><path d="m364.54 504h-222.93c-13.795 0-24.645-11.787-23.505-25.535l21.905-264.124h226.128l21.905 264.124c1.142 13.748-9.708 25.535-23.503 25.535z" fill="#8c808a"/><path d="m387.244 468.812c-2.775 9.848-11.82 17.188-22.704 17.188h-222.929c-10.883 0-19.929-7.34-22.704-17.188l-.8 9.653c-1.14 13.747 9.71 25.535 23.505 25.535h222.928c13.795 0 24.645-11.787 23.505-25.535z" fill="#7b7179"/><g fill="#ffdc00"><path d="m42.982 73.359 1.874.84c8.562 3.838 15.415 10.69 19.252 19.252l.84 1.874c2.27 5.066 9.462 5.066 11.733 0l.84-1.874c3.838-8.563 10.69-15.415 19.252-19.252l1.874-.84c5.066-2.27 5.066-9.462 0-11.733l-1.874-.84c-8.562-3.837-15.415-10.69-19.252-19.252l-.84-1.874c-2.27-5.066-9.462-5.066-11.733 0l-.84 1.874c-3.838 8.563-10.69 15.415-19.252 19.252l-1.874.84c-5.066 2.27-5.066 9.462 0 11.733z"/><path d="m415.487 120.642 1.874.84c8.562 3.838 15.414 10.69 19.252 19.252l.84 1.874c2.27 5.066 9.462 5.066 11.733 0l.84-1.874c3.837-8.563 10.69-15.415 19.252-19.252l1.874-.84c5.066-2.27 5.066-9.463 0-11.733l-1.874-.84c-8.562-3.837-15.415-10.69-19.252-19.252l-.84-1.874c-2.27-5.066-9.462-5.066-11.733 0l-.84 1.874c-3.837 8.562-10.69 15.414-19.252 19.252l-1.874.84c-5.066 2.27-5.066 9.462 0 11.733z"/><path d="m409.637 291.647 1.874.84c8.562 3.838 15.414 10.69 19.252 19.252l.84 1.874c2.27 5.066 9.462 5.066 11.733 0l.84-1.874c3.837-8.563 10.69-15.415 19.252-19.252l1.874-.84c5.066-2.27 5.066-9.462 0-11.733l-1.874-.84c-8.562-3.837-15.415-10.69-19.252-19.252l-.84-1.874c-2.27-5.066-9.462-5.066-11.733 0l-.84 1.874c-3.837 8.562-10.69 15.415-19.252 19.252l-1.874.84c-5.065 2.271-5.065 9.463 0 11.733z"/><path d="m96.513 291.647-1.874.84c-8.562 3.838-15.414 10.69-19.252 19.252l-.84 1.874c-2.27 5.066-9.462 5.066-11.733 0l-.84-1.874c-3.838-8.563-10.69-15.415-19.252-19.252l-1.874-.84c-5.066-2.27-5.066-9.462 0-11.733l1.874-.84c8.562-3.837 15.415-10.69 19.252-19.252l.84-1.874c2.27-5.066 9.462-5.066 11.733 0l.84 1.874c3.838 8.562 10.69 15.415 19.252 19.252l1.874.84c5.066 2.271 5.066 9.463 0 11.733z"/><path d="m195.022 333.405 1.874.84c8.562 3.838 15.415 10.69 19.252 19.252l.84 1.874c2.27 5.066 9.462 5.066 11.733 0l.84-1.874c3.838-8.563 10.69-15.415 19.252-19.252l1.874-.84c5.066-2.27 5.066-9.462 0-11.733l-1.874-.84c-8.562-3.837-15.415-10.69-19.252-19.252l-.84-1.874c-2.27-5.066-9.462-5.066-11.733 0l-.84 1.874c-3.837 8.562-10.69 15.414-19.252 19.252l-1.874.84c-5.066 2.27-5.066 9.462 0 11.733z"/></g><path d="m369.698 257.248-3.559-42.907h-226.128l-3.558 42.907z" fill="#ff656b"/><path d="m367.632 232.341-1.493-18h-226.128l-1.492 18z" fill="#ff4351"/><path d="m374.518 221.774h26.889c13.691 0 24.83-11.139 24.83-24.83s-11.139-24.83-24.83-24.83h-36.253c11.643-28.852 17.554-57.089 17.554-84.082 0-51.573-14.691-72.793-27.016-81.512-10.471-7.409-21.369-7.519-28.081-5.149-7.425 2.62-71.411 29.379-69.934 170.742h-9.217c1.478-141.364-62.507-168.122-69.933-170.742-6.71-2.369-17.612-2.259-28.082 5.149-22.328 15.797-27.015 53.046-27.015 81.512 0 26.993 5.911 55.23 17.554 84.082h-36.253c-13.692 0-24.831 11.139-24.831 24.83s11.139 24.83 24.831 24.83h26.888l-21.273 256.506c-.717 8.653 2.245 17.28 8.125 23.668s14.232 10.052 22.915 10.052h34.68c4.151 0 7.515-3.365 7.515-7.515s-3.364-7.515-7.515-7.515h-34.68c-9.301 0-16.831-8.176-16.062-17.449l17.811-214.757h146.983c4.151 0 7.515-3.365 7.515-7.515s-3.364-7.515-7.515-7.515h-145.736l2.319-27.962h212.736l2.319 27.962h-41.579c-4.151 0-7.515 3.365-7.515 7.515s3.364 7.515 7.515 7.515h42.825l17.811 214.757c.771 9.273-6.76 17.449-16.061 17.449h-158.627c-4.151 0-7.515 3.365-7.515 7.515s3.364 7.515 7.515 7.515h158.627c8.683 0 17.035-3.664 22.916-10.052s8.841-15.015 8.123-23.668zm-76.078-173.594c15.336-25.411 32.291-31.972 34.173-32.637 2.433-.857 8.2-1.14 14.399 3.246 7.718 5.46 20.666 21.717 20.666 69.243 0 26.788-6.333 55.054-18.803 84.082h-10.134c6.947-21.211 14.362-48.236 16.318-71.705 2.358-28.289-1.027-45.933-10.35-53.941-4.827-4.147-11.142-5.557-17.783-3.97-10.777 2.575-22.789 18.174-32.134 41.726-7.114 17.931-15.374 47.385-15.695 87.89h-6.39c-.589-52.962 8.053-94.637 25.733-123.934zm-4.315 123.933c.612-73.425 28.721-113.188 36.294-114.998 2.495-.597 3.674.046 4.497.753 1.884 1.618 7.826 9.379 5.166 41.291-1.986 23.814-10.092 51.962-17.182 72.954zm-155.665-84.082c0-47.525 12.948-63.782 20.665-69.243 6.202-4.387 11.969-4.103 14.4-3.246 1.883.665 18.838 7.226 34.173 32.637 17.68 29.298 26.323 70.972 25.732 123.934h-6.39c-.322-40.505-8.582-69.959-15.696-87.89-9.345-23.552-21.357-39.15-32.134-41.726-6.475-1.548-12.674-.238-17.452 3.692-8.52 7.007-12.206 21.688-11.268 44.881.167 4.146 3.663 7.376 7.812 7.205 4.147-.167 7.373-3.665 7.205-7.812-1.013-25.054 4.181-31.338 5.798-32.667.489-.403 1.635-1.344 4.412-.682 7.574 1.81 35.682 41.573 36.295 114.998h-28.778c-6.696-19.8-11.569-37.796-14.492-53.55-.757-4.081-4.678-6.776-8.759-6.018-4.08.757-6.775 4.679-6.018 8.759 2.811 15.152 7.323 32.209 13.429 50.808h-10.133c-12.469-29.026-18.801-57.292-18.801-84.08zm-43.53 108.912c0-5.404 4.397-9.801 9.801-9.801h296.676c5.404 0 9.8 4.397 9.8 9.801s-4.396 9.801-9.8 9.801h-296.675c-5.404 0-9.802-4.396-9.802-9.801z"/><path d="m39.491 79.858 1.878.842c6.905 3.094 12.412 8.601 15.507 15.508l.84 1.874c2.28 5.088 7.158 8.248 12.734 8.249h.002c5.574 0 10.455-3.16 12.735-8.248l.841-1.878c3.095-6.905 8.602-12.411 15.506-15.505l1.878-.841c5.088-2.28 8.249-7.16 8.249-12.736 0-5.575-3.161-10.456-8.249-12.735l-1.878-.841c-6.904-3.094-12.411-8.601-15.506-15.506l-.841-1.878c-2.28-5.088-7.16-8.249-12.737-8.248-5.575 0-10.454 3.162-12.732 8.245l-.844 1.881c-3.093 6.905-8.6 12.411-15.505 15.505l-1.878.841c-5.087 2.28-8.247 7.16-8.247 12.735-.001 5.576 3.159 10.456 8.247 12.736zm30.961-35.367c4.583 10.031 12.601 18.049 22.63 22.632-10.029 4.583-18.047 12.6-22.63 22.631-4.582-10.03-12.601-18.048-22.631-22.632 10.031-4.583 18.05-12.602 22.631-22.631z"/><path d="m474.646 101.763-1.878-.841c-6.905-3.094-12.411-8.601-15.506-15.506l-.842-1.878c-2.28-5.088-7.159-8.248-12.736-8.248-5.575 0-10.455 3.16-12.736 8.249l-.841 1.878c-3.095 6.904-8.601 12.41-15.506 15.505l-1.878.841c-5.087 2.28-8.247 7.16-8.247 12.735s3.16 10.455 8.247 12.736l1.878.841c6.905 3.094 12.412 8.601 15.506 15.505l.841 1.878c2.28 5.087 7.16 8.248 12.735 8.248 5.576 0 10.456-3.161 12.736-8.248l.842-1.878c3.093-6.904 8.6-12.41 15.505-15.505l1.878-.841c5.088-2.28 8.249-7.16 8.249-12.736.002-5.575-3.16-10.455-8.247-12.735zm-30.961 35.367c-4.582-10.03-12.6-18.048-22.63-22.632 10.03-4.583 18.048-12.6 22.631-22.631 4.582 10.03 12.601 18.048 22.63 22.632-10.031 4.583-18.048 12.6-22.631 22.631z"/><path d="m468.785 273.103-1.878-.841c-6.904-3.094-12.411-8.601-15.506-15.506l-.841-1.877c-2.28-5.088-7.16-8.249-12.737-8.248-5.575.001-10.454 3.161-12.732 8.245l-.844 1.881c-3.093 6.904-8.6 12.411-15.505 15.505l-1.878.842c-5.087 2.28-8.248 7.16-8.248 12.735s3.16 10.454 8.248 12.735l1.878.842c6.905 3.094 12.412 8.601 15.507 15.507l.841 1.875c2.28 5.088 7.159 8.249 12.734 8.249h.002c5.574 0 10.455-3.16 12.735-8.248l.841-1.878c3.095-6.905 8.602-12.412 15.506-15.506l1.878-.842c5.088-2.28 8.249-7.16 8.249-12.735-.001-5.575-3.162-10.454-8.25-12.735zm-30.96 35.367c-4.582-10.03-12.601-18.048-22.631-22.632 10.032-4.584 18.05-12.602 22.631-22.631 4.583 10.031 12.601 18.048 22.63 22.632-10.029 4.583-18.047 12.6-22.63 22.631z"/><path d="m99.274 273.103-1.878-.841c-6.904-3.094-12.411-8.601-15.506-15.505l-.841-1.878c-2.28-5.088-7.16-8.249-12.737-8.248-5.575.001-10.454 3.161-12.732 8.245l-.844 1.881c-3.093 6.905-8.6 12.411-15.505 15.505l-1.878.842c-5.087 2.28-8.248 7.16-8.248 12.735s3.16 10.454 8.248 12.735l1.878.842c6.905 3.094 12.412 8.601 15.507 15.509l.84 1.874c2.28 5.088 7.159 8.249 12.734 8.249h.002c5.574 0 10.455-3.16 12.736-8.249l.84-1.877c3.095-6.905 8.602-12.411 15.506-15.505l1.878-.842c5.088-2.28 8.249-7.16 8.249-12.735-.001-5.577-3.161-10.456-8.249-12.737zm-30.961 35.367c-4.582-10.03-12.601-18.048-22.63-22.632 10.032-4.583 18.05-12.603 22.63-22.631 4.584 10.03 12.602 18.048 22.631 22.632-10.029 4.583-18.047 12.6-22.631 22.631z"/><path d="m209.213 356.763.841 1.876c2.28 5.087 7.16 8.248 12.735 8.248s10.455-3.161 12.735-8.248l.842-1.878c3.095-6.905 8.602-12.411 15.507-15.506l1.878-.842c5.087-2.28 8.248-7.16 8.248-12.735s-3.161-10.455-8.25-12.736l-1.877-.84c-6.904-3.095-12.411-8.602-15.506-15.506l-.842-1.878c-2.28-5.087-7.16-8.247-12.735-8.247s-10.455 3.16-12.734 8.246l-.844 1.881c-3.093 6.904-8.6 12.41-15.505 15.505l-1.878.842c-5.087 2.28-8.248 7.16-8.248 12.735s3.16 10.454 8.248 12.735l1.878.841c6.905 3.094 12.412 8.6 15.507 15.507zm13.577-51.716c4.583 10.03 12.6 18.048 22.631 22.632-10.03 4.583-18.048 12.6-22.631 22.631-4.582-10.03-12.601-18.048-22.631-22.632 10.032-4.584 18.049-12.602 22.631-22.631z"/></svg>