<svg enable-background="new 0 0 512 512" height="512" viewBox="0 0 512 512" width="512" xmlns="http://www.w3.org/2000/svg"><path d="m412.327 134.158v250.462c0 3.153-2.552 5.705-5.706 5.705h-301.242c-3.153 0-5.705-2.552-5.705-5.705v-250.462c0-6.896 5.588-12.483 12.473-12.483h287.698c6.884 0 12.482 5.587 12.482 12.483z" fill="#e2fffe"/><path d="m412.327 134.158v49.655h-312.654v-49.655c0-6.896 5.588-12.483 12.473-12.483h287.698c6.885 0 12.483 5.587 12.483 12.483z" fill="#b0d1cf"/><path d="m412.322 168.801h-312.649v-34.645c0-6.892 5.587-12.48 12.48-12.48h287.689c6.892 0 12.48 5.587 12.48 12.48z" fill="#5089dd"/><path d="m446.871 82.255h-29.85c-4.993 0-9.041-4.048-9.041-9.041v-29.85c0-4.993 4.048-9.041 9.041-9.041h29.85c4.993 0 9.041 4.048 9.041 9.041v29.85c0 4.993-4.048 9.041-9.041 9.041z" fill="#ff433e"/><path d="m65.129 82.255h29.85c4.993 0 9.041-4.048 9.041-9.041v-29.85c0-4.993-4.048-9.041-9.041-9.041h-29.85c-4.993 0-9.041 4.048-9.041 9.041v29.85c0 4.993 4.048 9.041 9.041 9.041z" fill="#ff433e"/><path d="m232.034 16.541v29.85c0 4.993 4.048 9.041 9.041 9.041h29.85c4.993 0 9.041-4.048 9.041-9.041v-29.85c0-4.993-4.048-9.041-9.041-9.041h-29.85c-4.993 0-9.041 4.048-9.041 9.041z" fill="#14c4bb"/><path d="m65.129 429.745h29.85c4.993 0 9.041 4.048 9.041 9.041v29.85c0 4.993-4.048 9.041-9.041 9.041h-29.85c-4.993 0-9.041-4.048-9.041-9.041v-29.85c0-4.993 4.048-9.041 9.041-9.041z" fill="#ff433e"/><path d="m446.871 429.745h-29.85c-4.993 0-9.041 4.048-9.041 9.041v29.85c0 4.993 4.048 9.041 9.041 9.041h29.85c4.993 0 9.041-4.048 9.041-9.041v-29.85c0-4.993-4.048-9.041-9.041-9.041z" fill="#ff433e"/><path d="m279.966 495.459v-29.85c0-4.993-4.048-9.041-9.041-9.041h-29.85c-4.993 0-9.041 4.048-9.041 9.041v29.85c0 4.993 4.048 9.041 9.041 9.041h29.85c4.993 0 9.041-4.048 9.041-9.041z" fill="#14c4bb"/><path d="m291.691 382.825h-184.518v-35.183c0-4.142-3.358-7.5-7.5-7.5s-7.5 3.358-7.5 7.5v36.979c0 7.281 5.923 13.204 13.205 13.204h44.787v47.127c0 .694-.565 1.259-1.259 1.259h-37.385v-7.425c0-9.121-7.42-16.542-16.541-16.542h-29.85c-9.121 0-16.542 7.42-16.542 16.542v29.85c0 9.121 7.42 16.542 16.542 16.542h29.85c9.121 0 16.541-7.42 16.541-16.542v-7.425h37.385c8.965 0 16.259-7.294 16.259-16.259v-47.127h83.335v51.242h-7.425c-9.121 0-16.542 7.42-16.542 16.542v29.85c0 9.121 7.42 16.542 16.542 16.542h29.85c9.121 0 16.542-7.42 16.542-16.542v-29.85c0-9.121-7.42-16.542-16.542-16.542h-7.425v-51.242h28.191c4.142 0 7.5-3.358 7.5-7.5s-3.358-7.5-7.5-7.5zm-195.17 85.811c0 .85-.691 1.542-1.541 1.542h-29.85c-.85 0-1.542-.691-1.542-1.542v-29.85c0-.85.691-1.542 1.542-1.542h29.85c.85 0 1.541.691 1.541 1.542zm175.945-3.027v29.85c0 .85-.691 1.542-1.542 1.542h-29.85c-.85 0-1.542-.691-1.542-1.542v-29.85c0-.85.691-1.542 1.542-1.542h29.85c.851 0 1.542.692 1.542 1.542z"/><path d="m141.607 153.61h151.014c4.142 0 7.5-3.358 7.5-7.5s-3.358-7.5-7.5-7.5h-151.014c-4.142 0-7.5 3.358-7.5 7.5s3.358 7.5 7.5 7.5z"/><path d="m324.352 153.148c4.142 0 7.5-3.358 7.5-7.5v-.819c0-4.142-3.358-7.5-7.5-7.5s-7.5 3.358-7.5 7.5v.819c0 4.143 3.358 7.5 7.5 7.5z"/><path d="m347.37 153.148c4.142 0 7.5-3.358 7.5-7.5v-.819c0-4.142-3.358-7.5-7.5-7.5s-7.5 3.358-7.5 7.5v.819c0 4.143 3.358 7.5 7.5 7.5z"/><path d="m370.388 153.148c4.142 0 7.5-3.358 7.5-7.5v-.819c0-4.142-3.358-7.5-7.5-7.5s-7.5 3.358-7.5 7.5v.819c0 4.143 3.358 7.5 7.5 7.5z"/><path d="m446.871 26.822h-29.85c-9.121 0-16.541 7.42-16.541 16.542v7.425h-37.385c-8.965 0-16.259 7.294-16.259 16.259v47.129h-83.336v-51.244h7.425c9.121 0 16.542-7.42 16.542-16.542v-29.85c-.001-9.121-7.421-16.541-16.542-16.541h-29.85c-9.121 0-16.542 7.42-16.542 16.542v29.85c0 9.121 7.42 16.542 16.542 16.542h7.425v51.244h-83.335v-47.13c0-8.965-7.294-16.259-16.259-16.259h-37.385v-7.425c0-9.121-7.42-16.542-16.541-16.542h-29.85c-9.121 0-16.542 7.42-16.542 16.542v29.85c0 9.121 7.42 16.542 16.542 16.542h29.85c9.121 0 16.541-7.42 16.541-16.542v-7.425h37.385c.694 0 1.259.565 1.259 1.259v47.129h-38.012c-11.017 0-19.98 8.963-19.98 19.979v182.868c0 4.142 3.358 7.5 7.5 7.5s7.5-3.358 7.5-7.5v-140.723h297.649v30.057c0 4.142 3.358 7.5 7.5 7.5s7.5-3.358 7.5-7.5v-72.202c0-11.017-8.963-19.979-19.98-19.979h-38.007v-47.129c0-.694.565-1.259 1.259-1.259h37.385v7.425c0 9.121 7.42 16.542 16.541 16.542h29.85c9.121 0 16.542-7.42 16.542-16.542v-29.85c0-9.121-7.42-16.542-16.541-16.542zm-207.337 19.569v-29.85c0-.85.691-1.542 1.542-1.542h29.85c.85 0 1.542.691 1.542 1.542v29.85c0 .85-.691 1.542-1.542 1.542h-29.85c-.851 0-1.542-.692-1.542-1.542zm-143.013 26.822c0 .85-.691 1.542-1.541 1.542h-29.85c-.85 0-1.542-.691-1.542-1.542v-29.85c0-.85.691-1.542 1.542-1.542h29.85c.85 0 1.541.691 1.541 1.542zm308.301 60.943v27.145h-297.649v-27.145c0-2.746 2.234-4.979 4.98-4.979h287.689c2.746 0 4.98 2.234 4.98 4.979zm43.59-60.943c0 .85-.691 1.542-1.542 1.542h-29.85c-.85 0-1.541-.691-1.541-1.542v-29.85c0-.85.691-1.542 1.541-1.542h29.85c.85 0 1.542.691 1.542 1.542z"/><path d="m446.871 422.245h-29.85c-9.121 0-16.541 7.42-16.541 16.542v7.425h-37.385c-.694 0-1.259-.565-1.259-1.259v-47.127h44.783c7.281 0 13.205-5.923 13.205-13.204v-147.646c0-4.142-3.358-7.5-7.5-7.5s-7.5 3.358-7.5 7.5v145.85h-82.514c-4.142 0-7.5 3.358-7.5 7.5s3.358 7.5 7.5 7.5h24.526v47.127c0 8.965 7.294 16.259 16.259 16.259h37.385v7.425c0 9.121 7.42 16.542 16.541 16.542h29.85c9.121 0 16.542-7.42 16.542-16.542v-29.85c-.001-9.121-7.421-16.542-16.542-16.542zm1.541 46.391c0 .85-.691 1.542-1.542 1.542h-29.85c-.85 0-1.541-.691-1.541-1.542v-29.85c0-.85.691-1.542 1.541-1.542h29.85c.85 0 1.542.691 1.542 1.542z"/><path d="m189.235 238.363c-2.929-2.929-7.678-2.929-10.606 0l-33.349 33.349c-2.929 2.929-2.929 7.678 0 10.606l33.349 33.349c1.464 1.464 3.384 2.197 5.303 2.197s3.839-.732 5.303-2.197c2.929-2.929 2.929-7.678 0-10.606l-28.045-28.045 28.045-28.045c2.929-2.93 2.929-7.679 0-10.608z"/><path d="m322.765 315.667c1.464 1.464 3.384 2.197 5.303 2.197s3.839-.732 5.303-2.197l33.349-33.349c2.929-2.929 2.929-7.678 0-10.606l-33.349-33.349c-2.929-2.929-7.678-2.929-10.606 0-2.929 2.929-2.929 7.678 0 10.606l28.045 28.045-28.045 28.045c-2.929 2.93-2.929 7.679 0 10.608z"/><path d="m249.011 241.481c-3.654-1.951-8.197-.572-10.149 3.083l-33.257 62.267c-1.951 3.653-.571 8.197 3.083 10.149 1.125.601 2.334.886 3.527.886 2.679 0 5.271-1.439 6.622-3.968l33.257-62.267c1.951-3.654.571-8.198-3.083-10.15z"/><path d="m246.38 308.782v.757c0 4.142 3.358 7.5 7.5 7.5s7.5-3.358 7.5-7.5v-.757c0-4.142-3.358-7.5-7.5-7.5s-7.5 3.358-7.5 7.5z"/><path d="m285.808 309.539v-.757c0-4.142-3.358-7.5-7.5-7.5s-7.5 3.358-7.5 7.5v.757c0 4.142 3.358 7.5 7.5 7.5s7.5-3.358 7.5-7.5z"/><path d="m302.735 301.282c-4.142 0-7.5 3.358-7.5 7.5v.757c0 4.142 3.358 7.5 7.5 7.5s7.5-3.358 7.5-7.5v-.757c0-4.142-3.358-7.5-7.5-7.5z"/></svg>