<svg enable-background="new 0 0 512 512" viewBox="0 0 512 512" xmlns="http://www.w3.org/2000/svg"><path d="m487.932 140.03c9.15 0 16.568 7.418 16.568 16.567v298.199c0 9.15-7.418 16.567-16.568 16.567h-86.975-289.915-86.975c-9.15 0-16.567-7.417-16.567-16.567v-298.198c0-9.15 7.417-16.567 16.567-16.567h463.865z" fill="#fcb043"/><path d="m484.5 156.598v298.199c0 9.15-7.418 16.567-16.568 16.567h20c9.15 0 16.568-7.418 16.568-16.567v-298.199c0-9.15-7.418-16.567-16.568-16.567h-20c9.15-.001 16.568 7.417 16.568 16.567z" fill="#ef9122"/><path d="m117.466 438.233h-70.833c-3.314 0-6-2.686-6-6v-70.833c0-3.314 2.686-6 6-6h70.833c3.314 0 6 2.686 6 6v70.833c0 3.314-2.686 6-6 6z" fill="#def2fc"/><path d="m92.617 413.384h-21.135c-3.314 0-6-2.686-6-6v-21.135c0-3.314 2.686-6 6-6h21.135c3.314 0 6 2.686 6 6v21.135c0 3.314-2.686 6-6 6z" fill="#04a1ee"/><path d="m503.106 149.958c-2.177-4.967-6.716-8.651-12.198-9.647h-469.817c-5.482.996-10.021 4.681-12.197 9.648.014.01.026.022.039.032l242.626 178.315c1.321.971 2.881 1.457 4.441 1.457s3.12-.485 4.441-1.457l242.624-178.315c.015-.01.027-.022.041-.033z" fill="#ffce94"/><circle cx="256" cy="140.03" fill="#54cc4e" r="99.4"/><path d="m256.001 40.636c-3.375 0-6.711.17-10 .499 50.2 5.015 89.398 47.379 89.398 98.9s-39.198 93.885-89.398 98.9c3.289.328 6.625.499 10 .499 54.896 0 99.398-44.502 99.398-99.398 0-54.898-44.502-99.4-99.398-99.4z" fill="#2c931d"/><path d="m315.691 106.506-14.943-14.943c-2.343-2.343-6.142-2.343-8.485 0l-50.093 50.093c-2.343 2.343-6.142 2.343-8.485 0l-13.946-13.946c-2.343-2.343-6.142-2.343-8.485 0l-14.943 14.944c-2.343 2.343-2.343 6.142 0 8.485l37.369 37.369c2.343 2.343 6.142 2.343 8.485 0l73.529-73.516c2.34-2.344 2.34-6.143-.003-8.486z" fill="#def2fc"/><path d="m503.066 149.991c.014-.01.026-.022.04-.033-.148-.339-.31-.67-.48-.997-.106-.204-.219-.404-.333-.603-.115-.2-.235-.395-.358-.59-.184-.292-.377-.577-.579-.855-.135-.187-.271-.372-.414-.553-.147-.187-.298-.371-.453-.552-.152-.177-.311-.347-.47-.517-.248-.265-.505-.522-.77-.771-.138-.129-.277-.256-.419-.381-.192-.168-.384-.335-.583-.494-.263-.21-.533-.411-.809-.605-.221-.155-.449-.302-.678-.446-.129-.082-.261-.16-.392-.238-.418-.248-.848-.477-1.289-.688-.105-.051-.209-.104-.316-.152-.266-.12-.535-.233-.808-.34-.105-.041-.212-.077-.318-.116-.484-.178-.978-.333-1.481-.466-.12-.032-.241-.064-.362-.093-.293-.07-.588-.136-.887-.19h-20c7.728 1.404 13.592 8.154 13.592 16.286v7.038z" fill="#fcb043"/><path d="m236.544 200.12c.458.086.923.129 1.388.129 1.923 0 3.843-.735 5.304-2.197l82.001-82c1.407-1.406 2.197-3.314 2.197-5.303s-.79-3.897-2.197-5.303l-23.429-23.429c-2.929-2.929-7.678-2.929-10.606 0l-53.275 53.275-17.128-17.128c-1.406-1.407-3.314-2.197-5.303-2.197s-3.897.79-5.303 2.197l-23.429 23.429c-1.407 1.406-2.197 3.314-2.197 5.303s.79 3.897 2.197 5.303l45.854 45.854c1.111 1.112 2.487 1.801 3.926 2.067zm-21.049-66.047 17.128 17.128c1.406 1.407 3.314 2.197 5.303 2.197s3.897-.79 5.303-2.197l53.275-53.275 12.823 12.823-71.401 71.4-35.254-35.253z"/><path d="m503.771 138.499c-.146-.139-.299-.268-.454-.393-.072-.06-.145-.119-.217-.178-.011-.008-.021-.017-.031-.025-4.138-3.357-9.405-5.373-15.136-5.373h-125.3c-3.865-55.456-50.21-99.395-106.631-99.395s-102.766 43.939-106.631 99.395h-125.304c-5.729 0-10.993 2.015-15.131 5.369-.023.017-.045.036-.068.053-.056.046-.112.091-.167.137-.166.132-.327.27-.483.418-5.031 4.415-8.218 10.886-8.218 18.091v298.199c0 13.271 10.796 24.067 24.067 24.067h367.235c4.142 0 7.5-3.358 7.5-7.5s-3.358-7.5-7.5-7.5h-367.235c-5 0-9.067-4.067-9.067-9.067v-298.199c0-.682.082-1.343.225-1.982l236.333 173.691c1.321.971 2.881 1.457 4.441 1.457s3.12-.485 4.441-1.457l236.333-173.692c.143.639.225 1.301.225 1.983v298.199c0 4.999-4.067 9.067-9.067 9.067h-66.681c-4.142 0-7.5 3.358-7.5 7.5s3.358 7.5 7.5 7.5h66.683c13.271 0 24.067-10.796 24.067-24.067v-298.199c0-7.21-3.19-13.684-8.229-18.099zm-247.77-90.363c50.667 0 91.888 41.216 91.898 91.88 0 .005-.001.01-.001.015s.001.011.001.016c-.007 50.667-41.229 91.886-91.898 91.886-50.673 0-91.899-41.226-91.899-91.898 0-50.674 41.226-91.899 91.899-91.899zm-.001 264.82-225.086-165.426h118.456c3.861 55.459 50.208 99.402 106.632 99.402s102.771-43.943 106.632-99.402h118.452z"/><path d="m40.633 347.9c-4.142 0-7.5 3.358-7.5 7.5v82.833c0 4.142 3.358 7.5 7.5 7.5h82.832c4.142 0 7.5-3.358 7.5-7.5v-82.833c0-4.142-3.358-7.5-7.5-7.5zm75.333 82.833h-67.833v-67.833h67.832v67.833z"/><path d="m65.482 420.884h33.135c4.142 0 7.5-3.358 7.5-7.5v-33.135c0-4.142-3.358-7.5-7.5-7.5h-33.135c-4.142 0-7.5 3.358-7.5 7.5v33.135c0 4.142 3.358 7.5 7.5 7.5zm7.5-33.135h18.135v18.135h-18.135z"/><path d="m206.299 364.466h-49.7c-4.142 0-7.5 3.358-7.5 7.5s3.358 7.5 7.5 7.5h49.7c4.142 0 7.5-3.358 7.5-7.5s-3.358-7.5-7.5-7.5z"/><path d="m206.299 397.602h-49.698c-4.142 0-7.5 3.358-7.5 7.5s3.358 7.5 7.5 7.5h49.698c4.142 0 7.5-3.358 7.5-7.5s-3.358-7.5-7.5-7.5z"/><path d="m231.15 397.602c-4.142 0-7.5 3.358-7.5 7.5s3.358 7.5 7.5 7.5h24.85c4.142 0 7.5-3.358 7.5-7.5s-3.358-7.5-7.5-7.5z"/></svg>