<?xml version="1.0" encoding="iso-8859-1"?>
<!-- Generator: Adobe Illustrator 19.0.0, SVG Export Plug-In . SVG Version: 6.00 Build 0)  -->
<svg version="1.1" id="Layer_1" xmlns="http://www.w3.org/2000/svg" xmlns:xlink="http://www.w3.org/1999/xlink" x="0px" y="0px"
	 viewBox="0 0 512 512" style="enable-background:new 0 0 512 512;" xml:space="preserve">
<circle style="fill:#2BA5F7;" cx="256.001" cy="256.001" r="184.123"/>
<path style="fill:#2197D8;" d="M306.718,389.399c-101.686,0-184.118-82.432-184.118-184.118c0-37.876,11.443-73.078,31.052-102.346
	C104.344,135.969,71.88,192.19,71.88,256c0,101.686,82.432,184.118,184.118,184.118c63.81,0,120.031-32.464,153.066-81.772
	C379.796,377.956,344.595,389.399,306.718,389.399z"/>
<g>
	<path style="fill:#333333;" d="M255.999,60.855C148.396,60.855,60.854,148.397,60.854,256s87.542,195.144,195.144,195.144
		S451.143,363.602,451.143,256S363.601,60.855,255.999,60.855z M371.497,244.974c-0.986-30.465-6.049-59.646-14.731-85.613
		c9.543-5.771,18.634-12.391,27.176-19.824c25.717,28.227,42.232,64.967,44.79,105.437L371.497,244.974L371.497,244.974z
		 M267.025,84.142c19.782,4.445,38.426,20.784,53.393,47.115c3.201,5.631,6.15,11.592,8.854,17.827
		c-19.41,9.077-40.46,14.475-62.246,15.84V84.142H267.025z M339.588,120.359c-5.065-8.912-10.562-16.879-16.408-23.881
		c16.381,6.924,31.476,16.31,44.834,27.675c-6.148,5.232-12.612,9.993-19.34,14.271
		C345.881,132.135,342.852,126.101,339.588,120.359z M163.324,138.426c-6.729-4.279-13.191-9.039-19.341-14.272
		c13.358-11.366,28.451-20.75,44.832-27.675c-5.846,7.003-11.339,14.97-16.404,23.88
		C169.147,126.101,166.116,132.135,163.324,138.426z M191.582,131.257c14.967-26.33,33.609-42.669,53.391-47.115v80.782
		c-21.786-1.366-42.835-6.763-62.245-15.84C185.431,142.849,188.381,136.888,191.582,131.257z M244.973,187.016v57.958h-82.407
		c0.921-26.753,5.182-52.316,12.433-75.164C196.854,179.787,220.512,185.656,244.973,187.016z M244.973,267.026v57.957
		c-24.46,1.359-48.116,7.231-69.973,17.21c-7.252-22.849-11.513-48.413-12.434-75.167L244.973,267.026L244.973,267.026z
		 M244.973,347.074v80.783c-19.781-4.445-38.424-20.784-53.391-47.115c-3.201-5.63-6.15-11.589-8.853-17.825
		C202.14,353.839,223.189,348.44,244.973,347.074z M172.411,391.64c5.062,8.906,10.551,16.875,16.392,23.876
		c-16.374-6.923-31.462-16.304-44.815-27.666c6.148-5.232,12.61-9.992,19.338-14.271C166.118,379.868,169.148,385.9,172.411,391.64z
		 M348.672,373.579c6.727,4.279,13.189,9.039,19.337,14.271c-13.351,11.359-28.436,20.739-44.806,27.662
		c5.839-6.998,11.325-14.97,16.385-23.871C342.85,385.9,345.88,379.868,348.672,373.579z M320.417,380.742
		c-14.968,26.331-33.612,42.671-53.393,47.115v-80.784c21.785,1.366,42.834,6.766,62.245,15.845
		C326.567,369.153,323.618,375.112,320.417,380.742z M267.025,324.983v-57.957h82.409c-0.921,26.755-5.182,52.319-12.434,75.168
		C315.142,332.213,291.485,326.342,267.025,324.983z M267.025,244.974v-57.958c24.462-1.36,48.12-7.229,69.975-17.207
		c7.252,22.848,11.512,48.412,12.433,75.165L267.025,244.974L267.025,244.974z M128.057,139.537
		c8.542,7.433,17.633,14.053,27.176,19.824c-8.682,25.968-13.745,55.149-14.731,85.613H83.268
		C85.825,204.504,102.34,167.763,128.057,139.537z M83.268,267.026h57.235c0.986,30.466,6.05,59.648,14.733,85.618
		c-9.542,5.771-18.633,12.391-27.174,19.824C102.342,344.24,85.825,307.498,83.268,267.026z M383.937,372.467
		c-8.541-7.431-17.631-14.051-27.172-19.822c8.683-25.97,13.747-55.152,14.733-85.619h57.234
		C426.173,307.498,409.656,344.24,383.937,372.467z"/>
	<path style="fill:#333333;" d="M229.688,48.364c2.822,0,5.644-1.076,7.796-3.23l18.515-18.515l18.515,18.515
		c4.307,4.306,11.286,4.306,15.594,0c4.306-4.306,4.306-11.287,0-15.593L263.795,3.229c-4.305-4.306-11.287-4.306-15.593,0
		l-26.311,26.311c-4.306,4.306-4.306,11.287,0,15.594C224.043,47.287,226.866,48.364,229.688,48.364z"/>
	<path style="fill:#333333;" d="M274.515,466.865L256,485.38l-18.515-18.515c-4.306-4.306-11.287-4.306-15.594,0
		c-4.307,4.306-4.306,11.287,0,15.594l26.311,26.311c2.153,2.153,4.975,3.229,7.796,3.229s5.644-1.077,7.796-3.229l26.312-26.311
		c4.306-4.306,4.306-11.287,0-15.593C285.803,462.56,278.824,462.559,274.515,466.865z"/>
	<path style="fill:#333333;" d="M508.77,248.203l-26.311-26.311c-4.307-4.306-11.286-4.306-15.594,0
		c-4.306,4.306-4.306,11.287,0,15.594l18.515,18.515l-18.515,18.515c-4.306,4.306-4.306,11.287,0,15.594
		c2.153,2.153,4.975,3.229,7.796,3.229s5.643-1.076,7.796-3.229l26.311-26.311C513.076,259.491,513.076,252.509,508.77,248.203z"/>
	<path style="fill:#333333;" d="M45.135,221.891c-4.306-4.306-11.287-4.306-15.594,0L3.229,248.203
		c-4.306,4.306-4.306,11.287,0,15.594l26.311,26.311c2.153,2.153,4.975,3.229,7.796,3.229s5.644-1.076,7.796-3.229
		c4.306-4.306,4.306-11.287,0-15.594L26.619,256l18.515-18.515C49.439,233.179,49.439,226.198,45.135,221.891z"/>
</g>
<ellipse transform="matrix(-0.7071 -0.7071 0.7071 -0.7071 439.2687 526.9594)" style="fill:#6EC6ED;" cx="328.771" cy="172.504" rx="63.024" ry="41.093"/>
<path style="fill:#4D4D4D;" d="M369.748,220.087c-5.877,4.146-13.319,5.943-21.501,5.579c-0.088-0.408-0.154-0.827-0.198-1.246
	c-1.974-19.34-5.723-37.621-11.103-54.59c-15.999,7.299-32.968,12.393-50.499,15.128c-4.322-6.935-7.409-14.08-9.163-20.982
	c18.127-2.216,35.636-7.244,51.976-14.885c-4.763-11.059-10.177-20.916-16.087-29.428c10.728,1.323,22.427,6.13,33.343,14.08
	c0.728,1.544,1.444,3.098,2.15,4.686c0.717-0.452,1.422-0.904,2.128-1.378c2.404,1.974,4.763,4.102,7.046,6.384
	c3.131,3.131,5.965,6.384,8.501,9.736c-3.142,2.172-6.329,4.234-9.582,6.197C363.067,178.221,367.444,198.586,369.748,220.087z"/>
<g>
</g>
<g>
</g>
<g>
</g>
<g>
</g>
<g>
</g>
<g>
</g>
<g>
</g>
<g>
</g>
<g>
</g>
<g>
</g>
<g>
</g>
<g>
</g>
<g>
</g>
<g>
</g>
<g>
</g>
</svg>
