<svg id="Capa_1" enable-background="new 0 0 512 512" height="512" viewBox="0 0 512 512" width="512" xmlns="http://www.w3.org/2000/svg"><path d="m198.017 375h115.966v93.329h-115.966z" fill="#b0bcd1"/><path d="m290.983 375h23v93.329h-23z" fill="#93a4c2"/><path d="m7.501 355.402c0 18.299 14.834 33.133 33.132 33.133h430.732c18.299 0 33.133-14.834 33.133-33.133v-298.203c0-18.299-14.834-33.132-33.133-33.132h-430.731c-18.298 0-33.132 14.834-33.132 33.132v298.203z" fill="#393e46"/><path d="m40.633 338.832v-275.631c0-3.314 2.686-6 6-6h418.734c3.314 0 6 2.686 6 6v275.631" fill="#5893d4"/><path d="m504.498 355.402v-16.57h-496.997v16.57c0 18.298 14.834 33.133 33.132 33.133h430.732c18.299-.001 33.133-14.835 33.133-33.133z" fill="#d3d6db"/><path d="m471.366 24.066h-23c18.298 0 33.132 14.834 33.132 33.133v298.203c0 18.298-14.834 33.133-33.132 33.133h23c18.298 0 33.132-14.834 33.132-33.133v-298.203c0-18.299-14.834-33.133-33.132-33.133z" fill="#222831"/><path d="m481.498 355.402c0 18.298-14.834 33.133-33.132 33.133h23c18.298 0 33.132-14.834 33.132-33.133v-16.57h-23z" fill="#b0bcd1"/><path d="m465.367 57.201h-23.001c3.314 0 6 2.686 6 6v275.631h23.001v-275.631c0-3.314-2.686-6-6-6z" fill="#4876c7"/><path d="m365.967 454.801h-219.933c-3.314 0-6 2.686-6 6v21.132c0 3.314 2.686 6 6 6h219.933c3.314 0 6-2.686 6-6v-21.132c0-3.313-2.687-6-6-6z" fill="#d3d6db"/><path d="m365.967 454.801h-23c3.314 0 6 2.686 6 6v21.132c0 3.314-2.686 6-6 6h23c3.314 0 6-2.686 6-6v-21.132c0-3.313-2.687-6-6-6z" fill="#b0bcd1"/><path d="m143.386 164.801-34.328 28.606c-2.879 2.399-2.879 6.82 0 9.219l34.328 28.606c3.908 3.257 9.841.478 9.841-4.609v-6.04c0-3.314 2.686-6 6-6h37.7c3.314 0 6-2.686 6-6v-21.133c0-3.314-2.686-6-6-6h-37.7c-3.314 0-6-2.686-6-6v-6.04c0-5.087-5.933-7.866-9.841-4.609z" fill="#ff5959"/><path d="m316.5 289.133h-71.067c-3.314 0-6-2.686-6-6v-170.233c0-3.314 2.686-6 6-6h71.067z" fill="#393e46"/><path d="m282.7 106.9h33.8v182.233h-33.8z" fill="#222831"/><path d="m400.086 289.968-87.4 14.567c-3.657.609-6.986-2.211-6.986-5.918v-201.201c0-3.708 3.329-6.528 6.986-5.918l87.4 14.567c2.893.482 5.014 2.985 5.014 5.918v172.067c-.001 2.933-2.121 5.436-5.014 5.918z" fill="#eef2f5"/><path d="m400.086 106.064-21.928-3.655c2.33.85 3.942 3.077 3.942 5.634v179.872c0 2.815-1.962 5.214-4.677 5.831l22.664-3.777c2.893-.482 5.014-2.985 5.014-5.919v-172.068c-.001-2.933-2.122-5.436-5.015-5.918z" fill="#d3e6f5"/><path d="m196.927 181.45h-23c3.314 0 6 2.686 6 6v21.133c0 3.314-2.686 6-6 6h23c3.314 0 6-2.686 6-6v-21.133c0-3.314-2.686-6-6-6z" fill="#e64040"/><path d="m512 338.831c0-.013-.002-.026-.002-.039v-281.593c0-22.405-18.228-40.633-40.632-40.633h-430.732c-22.405 0-40.632 18.227-40.632 40.633v34.704c0 4.143 3.358 7.5 7.5 7.5s7.5-3.357 7.5-7.5v-34.704c0-14.134 11.499-25.633 25.632-25.633h430.732c14.134 0 25.632 11.499 25.632 25.633v274.132h-18.131v-274.13c0-4.143-3.358-7.5-7.5-7.5h-430.734c-4.142 0-7.5 3.357-7.5 7.5v274.13h-18.132v-209.428c0-4.143-3.358-7.5-7.5-7.5s-7.5 3.357-7.5 7.5v216.899c0 .01-.001.019-.001.029s.001.019.001.029v16.541c0 22.405 18.228 40.633 40.632 40.633h149.883v51.268h-50.483c-4.142 0-7.5 3.357-7.5 7.5v33.132c0 4.143 3.358 7.5 7.5 7.5h231.933c4.142 0 7.5-3.357 7.5-7.5v-33.132c0-4.143-3.358-7.5-7.5-7.5h-50.483v-51.268h149.882c22.405 0 40.632-18.228 40.632-40.633v-16.531c.001-.013.003-.026.003-.039zm-463.867-274.13h415.734v266.63h-415.734zm316.334 415.733h-216.933v-18.132h216.933zm-99.4-33.132h-18.133v-18.138h18.133zm41.416 0h-26.417v-25.638c0-4.143-3.358-7.5-7.5-7.5h-33.133c-4.142 0-7.5 3.357-7.5 7.5v25.638h-26.416v-51.268h100.966zm164.883-66.268h-157.363c-.007 0-.013-.001-.019-.001s-.013.001-.019.001h-115.929c-.007 0-.013-.001-.019-.001s-.013.001-.019.001h-157.364c-14.134 0-25.632-11.499-25.632-25.633v-9.07h481.996v9.07c0 14.134-11.499 25.633-25.632 25.633z"/><path d="m406.332 99.501-99.4-16.566c-2.174-.361-4.398.251-6.081 1.676-1.682 1.425-2.652 3.518-2.652 5.723v9.066h-58.767c-4.142 0-7.5 3.357-7.5 7.5v182.233c0 4.143 3.358 7.5 7.5 7.5h58.768v9.066c0 2.205.97 4.298 2.652 5.723 1.364 1.156 3.085 1.777 4.848 1.777.41 0 .822-.033 1.233-.102l99.4-16.567c3.617-.603 6.267-3.732 6.267-7.397v-182.234c0-3.666-2.651-6.795-6.268-7.398zm-159.399 182.132v-167.234h51.267v167.233h-51.267zm150.667 1.146-84.4 14.066v-7.713-182.233-7.713l84.4 14.066z"/><path d="m206.3 173.95h-42.2v-17.35c0-2.91-1.684-5.558-4.319-6.792-2.635-1.235-5.748-.833-7.982 1.03l-49.7 41.416c-1.71 1.425-2.699 3.536-2.699 5.762s.989 4.337 2.699 5.762l49.7 41.417c1.375 1.146 3.08 1.738 4.803 1.738 1.079 0 2.165-.232 3.18-.708 2.635-1.234 4.319-3.882 4.319-6.792v-17.351h42.2c4.142 0 7.5-3.357 7.5-7.5v-33.132c-.001-4.142-3.359-7.5-7.501-7.5zm-7.5 33.133h-42.2c-4.142 0-7.5 3.357-7.5 7.5v8.838l-30.484-25.404 30.484-25.403v8.837c0 4.143 3.358 7.5 7.5 7.5h42.2z"/><path d="m334.691 205.517h8.284c4.142 0 7.5-3.357 7.5-7.5s-3.358-7.5-7.5-7.5h-8.284c-4.142 0-7.5 3.357-7.5 7.5 0 4.142 3.358 7.5 7.5 7.5z"/></svg>