<svg enable-background="new 0 0 470.001 470.001" viewBox="0 0 470.001 470.001" xmlns="http://www.w3.org/2000/svg"><path d="m434.325 297.801c-.472.089-.941.133-1.405.133-3.532 0-6.678-2.507-7.36-6.104-.771-4.07 1.902-7.994 5.973-8.766l23.467-4.449v-26.123l-12.009 2.276c-.472.089-.941.133-1.405.133-3.532 0-6.678-2.507-7.36-6.104-.771-4.07 1.902-7.994 5.973-8.766l14.801-2.806v-14.733l-212.5 40.284v190.669l47.438-8.993v-17.951c0-4.142 3.357-7.5 7.5-7.5s7.5 3.358 7.5 7.5v15.108l150.062-28.448v-119.28zm-30.821 68.866c-4.411 0-8-3.589-8-8s3.589-8 8-8 8 3.589 8 8-3.589 8-8 8z" fill="#c5a271"/><path d="m242.5 110.628c0 4.142-3.357 7.5-7.5 7.5v15c4.143 0 7.5 3.358 7.5 7.5v106.88l212.5-40.283v-124.141l-8.556-9.625c-2.526-2.842-2.526-7.124 0-9.965l8.556-9.626v-37.312l-212.5 40.284zm116.698-10.22c2.93-2.929 7.678-2.929 10.607 0l5.87 5.87 5.87-5.87c2.93-2.929 7.678-2.929 10.607 0s2.929 7.678 0 10.606l-5.871 5.871 5.871 5.871c2.929 2.929 2.929 7.678 0 10.606-1.465 1.464-3.385 2.197-5.304 2.197s-3.839-.732-5.304-2.197l-5.87-5.87-5.87 5.87c-1.465 1.464-3.385 2.197-5.304 2.197s-3.839-.732-5.304-2.197c-2.929-2.929-2.929-7.678 0-10.606l5.871-5.871-5.871-5.871c-2.927-2.928-2.927-7.677.002-10.606z" fill="#e3c498"/><path d="m227.5 262.776-212.5-40.284v119.361l12.819 14.421c2.526 2.842 2.526 7.124 0 9.966l-12.819 14.421v32.5l212.5 40.284zm-50.114 112.088-21.213 21.213c-1.407 1.407-3.314 2.197-5.304 2.197s-3.896-.79-5.304-2.197l-28.957-28.958-28.958 28.958c-1.465 1.464-3.385 2.197-5.304 2.197-1.92 0-3.839-.732-5.304-2.197l-21.212-21.213c-1.406-1.406-2.196-3.314-2.196-5.303s.79-3.897 2.196-5.303l28.959-28.958-28.959-28.958c-1.406-1.406-2.196-3.314-2.196-5.303s.79-3.897 2.196-5.303l21.213-21.213c2.929-2.928 7.677-2.93 10.607 0l28.958 28.958 28.957-28.958c1.407-1.407 3.314-2.197 5.304-2.197s3.896.79 5.304 2.197l21.213 21.213c2.929 2.929 2.929 7.678 0 10.606l-28.958 28.958 28.958 28.958c2.929 2.928 2.929 7.677 0 10.606z" fill="#e3c498"/><path d="m235 118.128c-4.143 0-7.5-3.358-7.5-7.5v-53.788l-135.145-25.62v35.614c0 4.142-3.357 7.5-7.5 7.5s-7.5-3.358-7.5-7.5v-38.457l-24.664-4.676v7.8c0 4.142-3.357 7.5-7.5 7.5s-7.5-3.358-7.5-7.5v-10.644l-22.691-4.301v190.669l212.5 40.284v-106.88c0-4.142 3.357-7.5 7.5-7.5zm-141.496-1.461c-4.411 0-8-3.589-8-8s3.589-8 8-8 8 3.589 8 8-3.589 8-8 8zm30-20c-4.411 0-8-3.589-8-8s3.589-8 8-8 8 3.589 8 8-3.589 8-8 8z" fill="#c5a271"/><path d="m470 56.719v-49.218c0-2.234-.996-4.351-2.716-5.776-1.721-1.425-3.988-2.01-6.181-1.593l-226.103 42.863-226.103-42.863c-2.192-.416-4.46.168-6.181 1.593-1.72 1.424-2.716 3.542-2.716 5.776v337.204c0 1.837.674 3.61 1.895 4.983l10.284 11.569-10.284 11.569c-1.221 1.373-1.895 3.146-1.895 4.983v41.563c0 3.604 2.563 6.698 6.104 7.369l227.5 43.128c.461.087.929.131 1.396.131s.936-.044 1.396-.131l227.5-43.128c3.541-.671 6.104-3.765 6.104-7.369v-339.14c0-1.837-.674-3.61-1.895-4.983l-6.021-6.773 6.021-6.774c1.221-1.373 1.895-3.146 1.895-4.983zm-455 323.942 12.82-14.421c2.526-2.842 2.526-7.124 0-9.966l-12.82-14.421v-119.361l212.5 40.284v190.669l-212.5-40.284zm289.939 60.947v-15.108c0-4.142-3.357-7.5-7.5-7.5s-7.5 3.358-7.5 7.5v17.951l-47.438 8.993v-190.668l212.499-40.284v14.733l-14.802 2.806c-4.07.771-6.744 4.696-5.973 8.766.683 3.598 3.828 6.104 7.36 6.104.464 0 .934-.043 1.405-.133l12.01-2.276v26.123l-23.468 4.449c-4.07.771-6.744 4.696-5.973 8.766.683 3.598 3.828 6.104 7.36 6.104.464 0 .934-.043 1.405-.133l20.676-3.92v119.279zm150.061-387.74-8.556 9.626c-2.526 2.841-2.526 7.124 0 9.965l8.556 9.625v124.141l-212.5 40.284v-106.88c0-4.142-3.357-7.5-7.5-7.5s-7.5 3.358-7.5 7.5v106.88l-212.5-40.284v-190.669l22.69 4.301v10.644c0 4.142 3.357 7.5 7.5 7.5s7.5-3.358 7.5-7.5v-7.8l24.664 4.676v38.458c0 4.142 3.357 7.5 7.5 7.5s7.5-3.358 7.5-7.5v-35.615l135.146 25.62v53.789c0 4.142 3.357 7.5 7.5 7.5s7.5-3.358 7.5-7.5v-53.789l212.5-40.284z" fill="#34150c"/><path d="m111.305 351.209c1.407-1.407 3.314-2.197 5.304-2.197s3.896.79 5.304 2.197l28.957 28.958 10.606-10.606-28.958-28.958c-2.929-2.929-2.929-7.678 0-10.606l28.958-28.958-10.606-10.606-28.957 28.958c-1.407 1.407-3.314 2.197-5.304 2.197s-3.896-.79-5.304-2.197l-28.958-28.958-10.606 10.606 28.959 28.958c1.406 1.406 2.196 3.314 2.196 5.303s-.79 3.897-2.196 5.303l-28.959 28.958 10.606 10.606z" fill="#e63a2a"/><g fill="#34150c"><path d="m148.428 335.299 28.958-28.958c2.929-2.929 2.929-7.678 0-10.606l-21.213-21.213c-1.407-1.407-3.314-2.197-5.304-2.197s-3.896.79-5.304 2.197l-28.957 28.958-28.958-28.958c-2.931-2.93-7.679-2.928-10.607 0l-21.213 21.213c-1.406 1.406-2.196 3.314-2.196 5.303s.79 3.897 2.196 5.303l28.959 28.958-28.959 28.958c-1.406 1.406-2.196 3.314-2.196 5.303s.79 3.897 2.196 5.303l21.213 21.213c1.465 1.465 3.384 2.197 5.304 2.197 1.919 0 3.839-.732 5.304-2.197l28.958-28.958 28.957 28.958c1.407 1.407 3.314 2.197 5.304 2.197s3.896-.79 5.304-2.197l21.213-21.213c2.929-2.929 2.929-7.678 0-10.606zm-47.729 5.304c1.406-1.406 2.196-3.314 2.196-5.303s-.79-3.897-2.196-5.303l-28.959-28.958 10.606-10.606 28.958 28.958c1.407 1.407 3.314 2.197 5.304 2.197s3.896-.79 5.304-2.197l28.957-28.958 10.606 10.606-28.958 28.958c-2.929 2.929-2.929 7.678 0 10.606l28.958 28.958-10.606 10.606-28.957-28.958c-1.407-1.407-3.314-2.197-5.304-2.197s-3.896.79-5.304 2.197l-28.958 28.958-10.606-10.606z"/><path d="m403.504 350.667c-4.411 0-8 3.589-8 8s3.589 8 8 8 8-3.589 8-8-3.589-8-8-8z"/><path d="m93.504 100.667c-4.411 0-8 3.589-8 8s3.589 8 8 8 8-3.589 8-8-3.589-8-8-8z"/><path d="m123.504 80.667c-4.411 0-8 3.589-8 8s3.589 8 8 8 8-3.589 8-8-3.589-8-8-8z"/><path d="m365.068 116.885-5.871 5.871c-2.929 2.929-2.929 7.678 0 10.606 1.465 1.464 3.385 2.197 5.304 2.197s3.839-.732 5.304-2.197l5.87-5.87 5.87 5.87c1.465 1.464 3.385 2.197 5.304 2.197s3.839-.732 5.304-2.197c2.929-2.929 2.929-7.678 0-10.606l-5.871-5.871 5.871-5.871c2.929-2.929 2.929-7.678 0-10.606-2.93-2.929-7.678-2.929-10.607 0l-5.87 5.87-5.87-5.87c-2.93-2.929-7.678-2.929-10.607 0s-2.929 7.678 0 10.606z"/></g></svg>