<svg height="512pt" viewBox="-2 0 511 512" width="512pt" xmlns="http://www.w3.org/2000/svg"><path d="m348.585938 40.535156h-283.296876c-31.589843 0-57.199218 25.609375-57.199218 57.199219v349.195313c0 31.589843 25.609375 57.199218 57.199218 57.199218h283.296876c31.589843 0 57.199218-25.609375 57.199218-57.199218v-349.195313c0-31.589844-25.609375-57.199219-57.199218-57.199219zm0 0" fill="#5b5b68"/><path d="m65.289062 460.121094c-7.273437 0-13.191406-5.917969-13.191406-13.191406v-349.195313c0-7.273437 5.917969-13.191406 13.191406-13.191406h283.296876c7.277343 0 13.195312 5.917969 13.195312 13.191406v349.195313c0 7.273437-5.917969 13.191406-13.195312 13.191406zm0 0" fill="#d5e8ec"/><path d="m288.09375 101.933594h-162.3125c-13.546875 0-24.527344-10.980469-24.527344-24.527344v-45.28125c0-13.542969 10.984375-24.523438 24.527344-24.523438h162.3125c13.546875 0 24.527344 10.980469 24.527344 24.523438v45.28125c0 13.546875-10.980469 24.527344-24.527344 24.527344zm0 0" fill="#fed563"/><path d="m183.316406 54.484375c0 12.3125-9.980468 22.292969-22.292968 22.292969s-22.292969-9.980469-22.292969-22.292969 9.980469-22.292969 22.292969-22.292969 22.292968 9.980469 22.292968 22.292969zm0 0" fill="#5b5b68"/><path d="m275.148438 54.484375c0 12.3125-9.980469 22.292969-22.292969 22.292969s-22.292969-9.980469-22.292969-22.292969 9.980469-22.292969 22.292969-22.292969 22.292969 9.980469 22.292969 22.292969zm0 0" fill="#5b5b68"/><path d="m500.804688 353.921875c0 83.105469-67.371094 150.476563-150.476563 150.476563-83.109375 0-150.480469-67.371094-150.480469-150.476563s67.371094-150.476563 150.480469-150.476563c83.105469 0 150.476563 67.371094 150.476563 150.476563zm0 0" fill="#55c7f3"/><path d="m460.175781 353.921875c0 60.667969-49.179687 109.855469-109.847656 109.855469-5.328125 0-10.578125-.375-15.703125-1.125-53.230469-7.609375-94.148438-53.394532-94.148438-108.730469s40.917969-101.121094 94.148438-108.730469c5.125-.75 10.375-1.125 15.703125-1.125 60.667969 0 109.847656 49.1875 109.847656 109.855469zm0 0" fill="#dafdfd"/><path d="m428.761719 353.921875c0 55.335937-40.910157 101.121094-94.136719 108.730469-53.230469-7.609375-94.148438-53.394532-94.148438-108.730469s40.917969-101.121094 94.148438-108.730469c53.226562 7.609375 94.136719 53.394532 94.136719 108.730469zm0 0" fill="#56d8d8"/><path d="m390.355469 369.121094h-40.027344c-8.394531 0-15.199219-6.804688-15.199219-15.199219v-68.398437c0-8.394532 6.804688-15.199219 15.199219-15.199219s15.199219 6.804687 15.199219 15.199219v53.199218h24.828125c8.394531 0 15.199219 6.804688 15.199219 15.199219s-6.804688 15.199219-15.199219 15.199219zm0 0" fill="#5b5b68"/><path d="m125.378906 244.835938c-3.683594 0-7.167968-1.769532-9.339844-4.789063l-31.441406-43.710937c-3.710937-5.160157-2.535156-12.347657 2.621094-16.058594 5.160156-3.710938 12.347656-2.535156 16.058594 2.625l20.273437 28.183594 26.796875-54.175782c2.816406-5.695312 9.714844-8.027344 15.410156-5.210937 5.695313 2.816406 8.027344 9.714843 5.210938 15.410156l-35.277344 71.320313c-1.789062 3.621093-5.34375 6.035156-9.367187 6.367187-.316407.023437-.632813.039063-.945313.039063zm0 0" fill="#fc315f"/><path d="m125.378906 386.484375c-3.683594 0-7.167968-1.769531-9.339844-4.789063l-31.441406-43.710937c-3.710937-5.160156-2.535156-12.347656 2.621094-16.058594 5.160156-3.710937 12.347656-2.535156 16.058594 2.621094l20.273437 28.1875 26.796875-54.175781c2.816406-5.695313 9.714844-8.027344 15.410156-5.210938 5.695313 2.816406 8.027344 9.714844 5.210938 15.410156l-35.277344 71.320313c-1.789062 3.621094-5.34375 6.035156-9.367187 6.367187-.316407.027344-.632813.039063-.945313.039063zm0 0" fill="#fc315f"/><path d="m161.023438 84.378906c16.480468 0 29.890624-13.410156 29.890624-29.894531 0-16.480469-13.410156-29.890625-29.890624-29.890625-16.484376 0-29.894532 13.410156-29.894532 29.890625 0 16.484375 13.410156 29.894531 29.894532 29.894531zm0-44.585937c8.101562 0 14.691406 6.589843 14.691406 14.691406s-6.589844 14.695313-14.691406 14.695313c-8.101563 0-14.695313-6.59375-14.695313-14.695313s6.59375-14.691406 14.695313-14.691406zm0 0"/><path d="m252.855469 84.378906c16.480469 0 29.890625-13.410156 29.890625-29.894531 0-16.480469-13.410156-29.890625-29.890625-29.890625-16.484375 0-29.894531 13.410156-29.894531 29.890625 0 16.484375 13.410156 29.894531 29.894531 29.894531zm0-44.585937c8.101562 0 14.691406 6.589843 14.691406 14.691406s-6.589844 14.695313-14.691406 14.695313c-8.101563 0-14.695313-6.59375-14.695313-14.695313s6.59375-14.691406 14.695313-14.691406zm0 0"/><path d="m476.984375 259.320312c-2.511719-3.359374-7.277344-4.046874-10.636719-1.535156-3.363281 2.515625-4.046875 7.277344-1.535156 10.640625 18.574219 24.828125 28.394531 54.394531 28.394531 85.496094 0 78.785156-64.097656 142.878906-142.878906 142.878906-78.785156 0-142.878906-64.09375-142.878906-142.878906s64.09375-142.878906 142.878906-142.878906c34.757813 0 68.257813 12.628906 94.324219 35.558593 3.152344 2.773438 7.953125 2.464844 10.726562-.6875 2.773438-3.148437 2.464844-7.953124-.6875-10.722656-12.421875-10.929687-26.375-19.738281-41.300781-26.230468v-111.226563c0-35.730469-29.070313-64.800781-64.804687-64.800781h-28.363282v-.808594c0-17.714844-14.414062-32.125-32.128906-32.125h-162.3125c-17.714844 0-32.125 14.410156-32.125 32.125v.808594h-28.363281c-35.726563 0-64.792969 29.070312-64.792969 64.800781v349.191406c0 35.730469 29.066406 64.800781 64.792969 64.800781h275.847656c3.039063.175782 6.101563.273438 9.183594.273438 87.167969 0 158.078125-70.914062 158.078125-158.078125.003906-34.410156-10.863282-67.121094-31.417969-94.601563zm-128.398437-211.1875c27.351562 0 49.601562 22.25 49.601562 49.601563v105.527344c-9.351562-2.96875-18.992188-5.070313-28.808594-6.261719v-99.265625c0-11.464844-9.324218-20.792969-20.792968-20.792969h-28.363282v-28.808594zm-239.730469-16.007812c0-9.332031 7.59375-16.925781 16.925781-16.925781h162.316406c9.332032 0 16.925782 7.59375 16.925782 16.925781v45.28125c0 9.335938-7.59375 16.925781-16.925782 16.925781h-162.316406c-9.332031 0-16.925781-7.589843-16.925781-16.925781zm-43.5625 464.402344c-27.34375 0-49.59375-22.253906-49.59375-49.601563v-349.191406c0-27.351563 22.25-49.601563 49.59375-49.601563h28.363281v28.808594h-28.363281c-11.464844 0-20.792969 9.324219-20.792969 20.789063v12.828125c0 4.195312 3.402344 7.597656 7.601562 7.597656 4.195313 0 7.601563-3.402344 7.601563-7.597656v-12.828125c0-3.082031 2.507813-5.589844 5.589844-5.589844h31.953125c5.351562 10.320313 16.128906 17.390625 28.535156 17.390625h162.316406c12.402344 0 23.183594-7.070312 28.53125-17.390625h31.960938c3.082031 0 5.59375 2.507813 5.59375 5.59375v98.160156c-1.285156-.03125-2.570313-.050781-3.855469-.050781-87.164063 0-158.078125 70.914062-158.078125 158.078125 0 37.261719 12.964844 71.542969 34.613281 98.597656h-161.570312c-3.085938 0-5.59375-2.511719-5.59375-5.59375v-303.359375c0-4.195312-3.402344-7.601562-7.601563-7.601562-4.195312 0-7.597656 3.40625-7.597656 7.601562v303.359375c0 11.464844 9.328125 20.792969 20.792969 20.792969h175.429687c12.117188 11.675781 26.089844 21.445312 41.429688 28.808594zm0 0"/><path d="m350.328125 236.472656c-64.761719 0-117.453125 52.6875-117.453125 117.449219s52.691406 117.449219 117.453125 117.449219 117.449219-52.6875 117.449219-117.449219-52.6875-117.449219-117.449219-117.449219zm0 219.699219c-56.382813 0-102.25-45.867187-102.25-102.25s45.867187-102.25 102.25-102.25c56.378906 0 102.25 45.867187 102.25 102.25s-45.871094 102.25-102.25 102.25zm0 0"/><path d="m390.355469 331.121094h-17.230469v-45.597656c0-12.570313-10.226562-22.800782-22.796875-22.800782-12.574219 0-22.800781 10.230469-22.800781 22.800782v68.398437c0 12.570313 10.226562 22.800781 22.800781 22.800781h40.027344c12.574219 0 22.800781-10.230468 22.800781-22.800781s-10.226562-22.800781-22.800781-22.800781zm0 30.402344h-40.027344c-4.191406 0-7.601563-3.410157-7.601563-7.601563v-68.398437c0-4.191407 3.410157-7.601563 7.601563-7.601563s7.597656 3.410156 7.597656 7.601563v53.199218c0 4.195313 3.402344 7.597656 7.601563 7.597656h24.828125c4.191406 0 7.601562 3.410157 7.601562 7.601563s-3.410156 7.601563-7.601562 7.601563zm0 0"/><path d="m109.871094 244.484375c3.578125 4.976563 9.375 7.949219 15.507812 7.949219.519532 0 1.042969-.019532 1.566406-.0625 6.644532-.546875 12.605469-4.597656 15.558594-10.570313l35.277344-71.324219c4.667969-9.441406.789062-20.921874-8.65625-25.59375-9.4375-4.667968-20.921875-.785156-25.589844 8.65625l-21.195312 42.847657-12.894532-17.925781c-6.152343-8.550782-18.113281-10.5-26.664062-4.351563-4.140625 2.980469-6.875 7.394531-7.699219 12.429687-.824219 5.039063.367188 10.09375 3.347657 14.234376zm-19.789063-55.496094c.167969-1.027343.726563-1.929687 1.574219-2.539062.6875-.496094 1.484375-.734375 2.277344-.734375 1.214844 0 2.410156.5625 3.171875 1.621094l20.273437 28.1875c1.558594 2.164062 4.136719 3.355468 6.796875 3.136718 2.65625-.21875 5.003907-1.816406 6.1875-4.207031l26.792969-54.175781c.953125-1.925782 3.300781-2.722656 5.230469-1.765625 1.929687.953125 2.722656 3.300781 1.769531 5.230469l-35.277344 71.320312c-.601562 1.21875-1.820312 2.046875-3.179687 2.160156-1.367188.109375-2.695313-.507812-3.488281-1.613281l-31.441407-43.710937c-.609375-.847657-.855469-1.882813-.6875-2.910157zm0 0"/><path d="m109.871094 386.132812c3.578125 4.980469 9.375 7.949219 15.507812 7.949219.519532 0 1.042969-.019531 1.566406-.0625 6.644532-.546875 12.605469-4.597656 15.558594-10.570312l35.277344-71.320313c4.667969-9.441406.789062-20.921875-8.65625-25.59375-9.4375-4.667968-20.921875-.785156-25.589844 8.65625l-21.195312 42.847656-12.894532-17.925781c-6.152343-8.550781-18.113281-10.503906-26.664062-4.355469-4.140625 2.980469-6.875 7.394532-7.699219 12.433594-.824219 5.035156.367188 10.089844 3.347657 14.230469zm-19.789063-55.496093c.167969-1.03125.726563-1.929688 1.574219-2.539063.6875-.496094 1.484375-.734375 2.273438-.734375 1.214843 0 2.414062.5625 3.175781 1.625l20.273437 28.183594c1.558594 2.164063 4.136719 3.355469 6.792969 3.136719 2.660156-.21875 5.007813-1.816406 6.1875-4.207032l26.796875-54.171874c.953125-1.929688 3.296875-2.722657 5.230469-1.769532 1.929687.953125 2.722656 3.300782 1.769531 5.230469l-35.277344 71.320313c-.605468 1.222656-1.820312 2.046874-3.179687 2.160156-1.367188.113281-2.695313-.507813-3.488281-1.609375l-31.445313-43.714844c-.605469-.847656-.851563-1.878906-.683594-2.910156zm0 0"/><path d="m199.464844 199.207031h86.636718c4.199219 0 7.601563-3.402343 7.601563-7.597656 0-4.199219-3.402344-7.601563-7.601563-7.601563h-86.636718c-4.195313 0-7.597656 3.402344-7.597656 7.601563 0 4.195313 3.402343 7.597656 7.597656 7.597656zm0 0"/></svg>