<?xml version="1.0" encoding="utf-8"?>
<!-- Generator: Adobe Illustrator 20.1.0, SVG Export Plug-In . SVG Version: 6.00 Build 0)  -->
<svg version="1.1" id="Layer_1" xmlns="http://www.w3.org/2000/svg" xmlns:xlink="http://www.w3.org/1999/xlink" x="0px" y="0px"
	 width="12.9px" height="18.4px" viewBox="0 0 12.9 18.4" style="enable-background:new 0 0 12.9 18.4;" xml:space="preserve">
<style type="text/css">
	.st0{fill:#939598;stroke:#939598;stroke-miterlimit:10;}
</style>
<g>
	<g>
		<path class="st0" d="M6.5,4.2c-1.2,0-2.2,1-2.2,2.2c0,1.2,1,2.2,2.2,2.2c1.2,0,2.2-1,2.2-2.2C8.7,5.2,7.7,4.2,6.5,4.2L6.5,4.2z
			 M6.5,7.9C5.6,7.9,5,7.2,5,6.4c0-0.9,0.7-1.6,1.6-1.6c0.9,0,1.6,0.7,1.6,1.6C8.1,7.2,7.4,7.9,6.5,7.9L6.5,7.9z M6.5,7.9"/>
		<path class="st0" d="M10.7,2.2C9.5,1.1,8,0.5,6.4,0.5c-1.6,0-3.1,0.6-4.2,1.7c-2.1,2.1-2.3,6-0.6,8.4l4.8,6.9l4.8-6.9
			C13,8.2,12.7,4.3,10.7,2.2L10.7,2.2z M10.7,10.2l-4.3,6.1l-4.3-6.2C0.6,8.1,0.8,4.6,2.7,2.7c1-1,2.3-1.6,3.8-1.6
			c1.4,0,2.8,0.6,3.8,1.6C12.1,4.6,12.3,8.1,10.7,10.2L10.7,10.2z M10.7,10.2"/>
	</g>
</g>
<g>
</g>
<g>
</g>
<g>
</g>
<g>
</g>
<g>
</g>
<g>
</g>
</svg>
