<svg xmlns="http://www.w3.org/2000/svg" width="28.8" height="30" viewBox="0 0 28.8 30"><title>ico_calendar</title><g id="Layer_2" data-name="Layer 2"><g id="sp"><path d="M5.7,8.1a.9.9,0,0,1-.9-.9V.9A.9.9,0,1,1,6.7.9V7.1A.9.9,0,0,1,5.7,8.1Z" fill="#939598"/><path d="M14.4,8.1a.9.9,0,0,1-.9-.9V.9a.9.9,0,1,1,1.9,0V7.1A.9.9,0,0,1,14.4,8.1Z" fill="#939598"/><path d="M25.8,3.7V7.1a2.8,2.8,0,1,1-5.6,0V3.7H17.2V7.1a2.8,2.8,0,1,1-5.6,0V3.7H8.5V7.1A2.8,2.8,0,1,1,3,7.1V3.7H0V30H28.8V3.7Z" fill="#939598"/><path d="M23,8.1a.9.9,0,0,1-.9-.9V.9A.9.9,0,1,1,24,.9V7.1A.9.9,0,0,1,23,8.1Z" fill="#939598"/><rect x="4.8" y="13.4" width="4" height="2.83" fill="#fff"/><rect x="12.4" y="13.4" width="4" height="2.83" fill="#fff"/><rect x="19.9" y="13.4" width="4" height="2.83" fill="#fff"/><rect x="4.8" y="18.6" width="4" height="2.83" fill="#fff"/><rect x="12.4" y="18.6" width="4" height="2.83" fill="#fff"/><rect x="19.9" y="18.6" width="4" height="2.83" fill="#fff"/><rect x="4.8" y="23.9" width="4" height="2.83" fill="#fff"/><rect x="12.4" y="23.9" width="4" height="2.83" fill="#fff"/><rect x="19.9" y="23.9" width="4" height="2.83" fill="#fff"/></g></g></svg>